%FSLAX45Y45*%
G04 Gerber Fmt 4.5, Leading zero omitted, Abs format (unit mm)*
G04 Created by KiCad (PCBNEW (6.0.1)) date 2022-02-09 09:53:43*
%MOMM*%
%LPD*%
G01*
G04 APERTURE LIST*
%TA.AperFunction,Profile*%
%ADD10C,0.152400*%
%TD*%
%ADD11C,0.200000*%
%ADD12C,0.040000*%
%ADD13C,0.081280*%
%ADD14C,0.090000*%
%ADD15C,0.100000*%
%ADD16C,0.101600*%
%ADD17C,0.150000*%
%ADD18C,0.305000*%
G04 APERTURE END LIST*
D10*
X19700110Y-6775360D02*
X19500110Y-6575360D01*
X10000110Y-6775360D02*
X10000110Y-14225360D01*
X10200110Y-6575360D02*
X10000110Y-6775360D01*
X10000110Y-14225360D02*
X10200110Y-14425360D01*
X19700110Y-14225360D02*
X19700110Y-6775360D01*
X19500110Y-14425360D02*
X19700110Y-14225360D01*
X19500110Y-6575360D02*
X10200110Y-6575360D01*
X10200110Y-14425360D02*
X19500110Y-14425360D01*
D11*
D12*
X11283000Y-8743000D02*
X11323000Y-8783000D01*
X11323000Y-8743000D02*
X11283000Y-8783000D01*
X11283000Y-9378000D02*
X11323000Y-9418000D01*
X11323000Y-9378000D02*
X11283000Y-9418000D01*
X12125190Y-10622600D02*
X12165190Y-10662600D01*
X12165190Y-10622600D02*
X12125190Y-10662600D01*
X12299000Y-7600000D02*
X12339000Y-7640000D01*
X12339000Y-7600000D02*
X12299000Y-7640000D01*
X12299000Y-8997000D02*
X12339000Y-9037000D01*
X12339000Y-8997000D02*
X12299000Y-9037000D01*
X12299000Y-9505000D02*
X12339000Y-9545000D01*
X12339000Y-9505000D02*
X12299000Y-9545000D01*
X12299000Y-10902000D02*
X12339000Y-10942000D01*
X12339000Y-10902000D02*
X12299000Y-10942000D01*
X12299000Y-11410000D02*
X12339000Y-11450000D01*
X12339000Y-11410000D02*
X12299000Y-11450000D01*
X12299000Y-12807000D02*
X12339000Y-12847000D01*
X12339000Y-12807000D02*
X12299000Y-12847000D01*
X12476800Y-11994200D02*
X12516800Y-12034200D01*
X12516800Y-11994200D02*
X12476800Y-12034200D01*
X12705400Y-10241600D02*
X12745400Y-10281600D01*
X12745400Y-10241600D02*
X12705400Y-10281600D01*
X14204000Y-7600000D02*
X14244000Y-7640000D01*
X14244000Y-7600000D02*
X14204000Y-7640000D01*
X14204000Y-8997000D02*
X14244000Y-9037000D01*
X14244000Y-8997000D02*
X14204000Y-9037000D01*
X14204000Y-9505000D02*
X14244000Y-9545000D01*
X14244000Y-9505000D02*
X14204000Y-9545000D01*
X14204000Y-10902000D02*
X14244000Y-10942000D01*
X14244000Y-10902000D02*
X14204000Y-10942000D01*
X14204000Y-11410000D02*
X14244000Y-11450000D01*
X14244000Y-11410000D02*
X14204000Y-11450000D01*
X14204000Y-12807000D02*
X14244000Y-12847000D01*
X14244000Y-12807000D02*
X14204000Y-12847000D01*
X16109000Y-7600000D02*
X16149000Y-7640000D01*
X16149000Y-7600000D02*
X16109000Y-7640000D01*
X16109000Y-8997000D02*
X16149000Y-9037000D01*
X16149000Y-8997000D02*
X16109000Y-9037000D01*
X16109000Y-9505000D02*
X16149000Y-9545000D01*
X16149000Y-9505000D02*
X16109000Y-9545000D01*
X16109000Y-10902000D02*
X16149000Y-10942000D01*
X16149000Y-10902000D02*
X16109000Y-10942000D01*
X16109000Y-11410000D02*
X16149000Y-11450000D01*
X16149000Y-11410000D02*
X16109000Y-11450000D01*
X16109000Y-12807000D02*
X16149000Y-12847000D01*
X16149000Y-12807000D02*
X16109000Y-12847000D01*
X16109000Y-13315000D02*
X16149000Y-13355000D01*
X16149000Y-13315000D02*
X16109000Y-13355000D01*
X16109000Y-14077000D02*
X16149000Y-14117000D01*
X16149000Y-14077000D02*
X16109000Y-14117000D01*
X18014000Y-7600000D02*
X18054000Y-7640000D01*
X18054000Y-7600000D02*
X18014000Y-7640000D01*
X18014000Y-9505000D02*
X18054000Y-9545000D01*
X18054000Y-9505000D02*
X18014000Y-9545000D01*
X18014000Y-11410000D02*
X18054000Y-11450000D01*
X18054000Y-11410000D02*
X18014000Y-11450000D01*
X18014000Y-13315000D02*
X18054000Y-13355000D01*
X18054000Y-13315000D02*
X18014000Y-13355000D01*
X18014000Y-14204000D02*
X18054000Y-14244000D01*
X18054000Y-14204000D02*
X18014000Y-14244000D01*
X18021419Y-9004419D02*
X18061419Y-9044419D01*
X18061419Y-9004419D02*
X18021419Y-9044419D01*
X18021419Y-10909419D02*
X18061419Y-10949419D01*
X18061419Y-10909419D02*
X18021419Y-10949419D01*
X18021419Y-12814419D02*
X18061419Y-12854419D01*
X18061419Y-12814419D02*
X18021419Y-12854419D01*
X19004600Y-9809800D02*
X19044600Y-9849800D01*
X19044600Y-9809800D02*
X19004600Y-9849800D01*
X19131600Y-8031800D02*
X19171600Y-8071800D01*
X19171600Y-8031800D02*
X19131600Y-8071800D01*
X19131600Y-11841800D02*
X19171600Y-11881800D01*
X19171600Y-11841800D02*
X19131600Y-11881800D01*
X19157000Y-13746800D02*
X19197000Y-13786800D01*
X19197000Y-13746800D02*
X19157000Y-13786800D01*
D13*
X10520750Y-10423360D02*
G75*
G03*
X10520750Y-10423360I-40640J0D01*
G01*
X10520750Y-10677360D02*
G75*
G03*
X10520750Y-10677360I-40640J0D01*
G01*
X11045750Y-10423360D02*
G75*
G03*
X11045750Y-10423360I-40640J0D01*
G01*
X11045750Y-10677360D02*
G75*
G03*
X11045750Y-10677360I-40640J0D01*
G01*
X11570750Y-10423360D02*
G75*
G03*
X11570750Y-10423360I-40640J0D01*
G01*
X11570750Y-10677360D02*
G75*
G03*
X11570750Y-10677360I-40640J0D01*
G01*
D14*
X10624110Y-10955360D02*
X10624110Y-11045360D01*
X10579110Y-11000360D02*
X10669110Y-11000360D01*
X10624110Y-11230360D02*
X10624110Y-11320360D01*
X10579110Y-11275360D02*
X10669110Y-11275360D01*
X10624110Y-11505360D02*
X10624110Y-11595360D01*
X10579110Y-11550360D02*
X10669110Y-11550360D01*
X11386110Y-10955360D02*
X11386110Y-11045360D01*
X11341110Y-11000360D02*
X11431110Y-11000360D01*
X11386110Y-11230360D02*
X11386110Y-11320360D01*
X11341110Y-11275360D02*
X11431110Y-11275360D01*
X11386110Y-11505360D02*
X11386110Y-11595360D01*
X11341110Y-11550360D02*
X11431110Y-11550360D01*
X11938000Y-12782000D02*
X11938000Y-12872000D01*
X11893000Y-12827000D02*
X11983000Y-12827000D01*
X11938000Y-13544000D02*
X11938000Y-13634000D01*
X11893000Y-13589000D02*
X11983000Y-13589000D01*
X13952610Y-7067000D02*
X13952610Y-7157000D01*
X13907610Y-7112000D02*
X13997610Y-7112000D01*
X13952610Y-7829000D02*
X13952610Y-7919000D01*
X13907610Y-7874000D02*
X13997610Y-7874000D01*
X13952610Y-8972000D02*
X13952610Y-9062000D01*
X13907610Y-9017000D02*
X13997610Y-9017000D01*
X13952610Y-9734000D02*
X13952610Y-9824000D01*
X13907610Y-9779000D02*
X13997610Y-9779000D01*
X13952610Y-10877000D02*
X13952610Y-10967000D01*
X13907610Y-10922000D02*
X13997610Y-10922000D01*
X13952610Y-11639000D02*
X13952610Y-11729000D01*
X13907610Y-11684000D02*
X13997610Y-11684000D01*
X13952610Y-12782000D02*
X13952610Y-12872000D01*
X13907610Y-12827000D02*
X13997610Y-12827000D01*
X13952610Y-13544000D02*
X13952610Y-13634000D01*
X13907610Y-13589000D02*
X13997610Y-13589000D01*
X15857610Y-7067000D02*
X15857610Y-7157000D01*
X15812610Y-7112000D02*
X15902610Y-7112000D01*
X15857610Y-7829000D02*
X15857610Y-7919000D01*
X15812610Y-7874000D02*
X15902610Y-7874000D01*
X15857610Y-8972000D02*
X15857610Y-9062000D01*
X15812610Y-9017000D02*
X15902610Y-9017000D01*
X15857610Y-9734000D02*
X15857610Y-9824000D01*
X15812610Y-9779000D02*
X15902610Y-9779000D01*
X15857610Y-12782000D02*
X15857610Y-12872000D01*
X15812610Y-12827000D02*
X15902610Y-12827000D01*
X15857610Y-13544000D02*
X15857610Y-13634000D01*
X15812610Y-13589000D02*
X15902610Y-13589000D01*
X15875000Y-10877000D02*
X15875000Y-10967000D01*
X15830000Y-10922000D02*
X15920000Y-10922000D01*
X15875000Y-11639000D02*
X15875000Y-11729000D01*
X15830000Y-11684000D02*
X15920000Y-11684000D01*
X17762610Y-7067000D02*
X17762610Y-7157000D01*
X17717610Y-7112000D02*
X17807610Y-7112000D01*
X17762610Y-7829000D02*
X17762610Y-7919000D01*
X17717610Y-7874000D02*
X17807610Y-7874000D01*
X17762610Y-8972000D02*
X17762610Y-9062000D01*
X17717610Y-9017000D02*
X17807610Y-9017000D01*
X17762610Y-9734000D02*
X17762610Y-9824000D01*
X17717610Y-9779000D02*
X17807610Y-9779000D01*
X17762610Y-10877000D02*
X17762610Y-10967000D01*
X17717610Y-10922000D02*
X17807610Y-10922000D01*
X17762610Y-11639000D02*
X17762610Y-11729000D01*
X17717610Y-11684000D02*
X17807610Y-11684000D01*
X17762610Y-12782000D02*
X17762610Y-12872000D01*
X17717610Y-12827000D02*
X17807610Y-12827000D01*
X17762610Y-13544000D02*
X17762610Y-13634000D01*
X17717610Y-13589000D02*
X17807610Y-13589000D01*
X18334110Y-6686000D02*
X18334110Y-6776000D01*
X18289110Y-6731000D02*
X18379110Y-6731000D01*
X18334110Y-8591000D02*
X18334110Y-8681000D01*
X18289110Y-8636000D02*
X18379110Y-8636000D01*
X18334110Y-10496000D02*
X18334110Y-10586000D01*
X18289110Y-10541000D02*
X18379110Y-10541000D01*
X18334110Y-12401000D02*
X18334110Y-12491000D01*
X18289110Y-12446000D02*
X18379110Y-12446000D01*
X19096110Y-6686000D02*
X19096110Y-6776000D01*
X19051110Y-6731000D02*
X19141110Y-6731000D01*
X19096110Y-8591000D02*
X19096110Y-8681000D01*
X19051110Y-8636000D02*
X19141110Y-8636000D01*
X19096110Y-10496000D02*
X19096110Y-10586000D01*
X19051110Y-10541000D02*
X19141110Y-10541000D01*
X19096110Y-12401000D02*
X19096110Y-12491000D01*
X19051110Y-12446000D02*
X19141110Y-12446000D01*
D15*
X10707356Y-12645356D02*
X10707356Y-12574644D01*
X10636644Y-12574644D01*
X10636644Y-12645356D01*
X10707356Y-12645356D01*
X10707356Y-14095356D02*
X10707356Y-14024644D01*
X10636644Y-14024644D01*
X10636644Y-14095356D01*
X10707356Y-14095356D01*
X10957356Y-14095356D02*
X10957356Y-14024644D01*
X10886644Y-14024644D01*
X10886644Y-14095356D01*
X10957356Y-14095356D01*
X11207356Y-12645356D02*
X11207356Y-12574644D01*
X11136644Y-12574644D01*
X11136644Y-12645356D01*
X11207356Y-12645356D01*
X11207356Y-14095356D02*
X11207356Y-14024644D01*
X11136644Y-14024644D01*
X11136644Y-14095356D01*
X11207356Y-14095356D01*
D16*
X10243110Y-7256160D02*
X10293910Y-7205360D01*
X10243110Y-7154560D01*
X10192310Y-7205360D01*
X10243110Y-7256160D01*
X10243110Y-7510160D02*
X10293910Y-7459360D01*
X10243110Y-7408560D01*
X10192310Y-7459360D01*
X10243110Y-7510160D01*
X10243110Y-7764160D02*
X10293910Y-7713360D01*
X10243110Y-7662560D01*
X10192310Y-7713360D01*
X10243110Y-7764160D01*
X10243110Y-8018160D02*
X10293910Y-7967360D01*
X10243110Y-7916560D01*
X10192310Y-7967360D01*
X10243110Y-8018160D01*
X10243110Y-8272160D02*
X10293910Y-8221360D01*
X10243110Y-8170560D01*
X10192310Y-8221360D01*
X10243110Y-8272160D01*
X10243110Y-8526160D02*
X10293910Y-8475360D01*
X10243110Y-8424560D01*
X10192310Y-8475360D01*
X10243110Y-8526160D01*
X10243110Y-8780160D02*
X10293910Y-8729360D01*
X10243110Y-8678560D01*
X10192310Y-8729360D01*
X10243110Y-8780160D01*
X10243110Y-9034160D02*
X10293910Y-8983360D01*
X10243110Y-8932560D01*
X10192310Y-8983360D01*
X10243110Y-9034160D01*
X10243110Y-9288160D02*
X10293910Y-9237360D01*
X10243110Y-9186560D01*
X10192310Y-9237360D01*
X10243110Y-9288160D01*
X10243110Y-9542160D02*
X10293910Y-9491360D01*
X10243110Y-9440560D01*
X10192310Y-9491360D01*
X10243110Y-9542160D01*
X10243110Y-9796160D02*
X10293910Y-9745360D01*
X10243110Y-9694560D01*
X10192310Y-9745360D01*
X10243110Y-9796160D01*
X10243110Y-10050160D02*
X10293910Y-9999360D01*
X10243110Y-9948560D01*
X10192310Y-9999360D01*
X10243110Y-10050160D01*
X10679990Y-11925100D02*
X10730790Y-11874300D01*
X10679990Y-11823500D01*
X10629190Y-11874300D01*
X10679990Y-11925100D01*
X10679990Y-12377220D02*
X10730790Y-12326420D01*
X10679990Y-12275620D01*
X10629190Y-12326420D01*
X10679990Y-12377220D01*
X11330230Y-11925100D02*
X11381030Y-11874300D01*
X11330230Y-11823500D01*
X11279430Y-11874300D01*
X11330230Y-11925100D01*
X11330230Y-12377220D02*
X11381030Y-12326420D01*
X11330230Y-12275620D01*
X11279430Y-12326420D01*
X11330230Y-12377220D01*
X11767110Y-7256160D02*
X11817910Y-7205360D01*
X11767110Y-7154560D01*
X11716310Y-7205360D01*
X11767110Y-7256160D01*
X11767110Y-7510160D02*
X11817910Y-7459360D01*
X11767110Y-7408560D01*
X11716310Y-7459360D01*
X11767110Y-7510160D01*
X11767110Y-7764160D02*
X11817910Y-7713360D01*
X11767110Y-7662560D01*
X11716310Y-7713360D01*
X11767110Y-7764160D01*
X11767110Y-8018160D02*
X11817910Y-7967360D01*
X11767110Y-7916560D01*
X11716310Y-7967360D01*
X11767110Y-8018160D01*
X11767110Y-8272160D02*
X11817910Y-8221360D01*
X11767110Y-8170560D01*
X11716310Y-8221360D01*
X11767110Y-8272160D01*
X11767110Y-8526160D02*
X11817910Y-8475360D01*
X11767110Y-8424560D01*
X11716310Y-8475360D01*
X11767110Y-8526160D01*
X11767110Y-8780160D02*
X11817910Y-8729360D01*
X11767110Y-8678560D01*
X11716310Y-8729360D01*
X11767110Y-8780160D01*
X11767110Y-9034160D02*
X11817910Y-8983360D01*
X11767110Y-8932560D01*
X11716310Y-8983360D01*
X11767110Y-9034160D01*
X11767110Y-9288160D02*
X11817910Y-9237360D01*
X11767110Y-9186560D01*
X11716310Y-9237360D01*
X11767110Y-9288160D01*
X11767110Y-9542160D02*
X11817910Y-9491360D01*
X11767110Y-9440560D01*
X11716310Y-9491360D01*
X11767110Y-9542160D01*
X11767110Y-9796160D02*
X11817910Y-9745360D01*
X11767110Y-9694560D01*
X11716310Y-9745360D01*
X11767110Y-9796160D01*
X11767110Y-10050160D02*
X11817910Y-9999360D01*
X11767110Y-9948560D01*
X11716310Y-9999360D01*
X11767110Y-10050160D01*
D17*
X10287000Y-13235000D02*
X10437000Y-13385000D01*
X10437000Y-13235000D02*
X10287000Y-13385000D01*
X10437000Y-13310000D02*
G75*
G03*
X10437000Y-13310000I-75000J0D01*
G01*
D11*
X10427000Y-13375000D02*
X10427000Y-13245000D01*
X10297000Y-13375000D02*
X10297000Y-13245000D01*
X10427000Y-13245000D02*
G75*
G03*
X10297000Y-13245000I-65000J0D01*
G01*
X10297000Y-13375000D02*
G75*
G03*
X10427000Y-13375000I65000J0D01*
G01*
D17*
X11407000Y-13235000D02*
X11557000Y-13385000D01*
X11557000Y-13235000D02*
X11407000Y-13385000D01*
X11557000Y-13310000D02*
G75*
G03*
X11557000Y-13310000I-75000J0D01*
G01*
D11*
X11547000Y-13375000D02*
X11547000Y-13245000D01*
X11417000Y-13375000D02*
X11417000Y-13245000D01*
X11547000Y-13245000D02*
G75*
G03*
X11417000Y-13245000I-65000J0D01*
G01*
X11417000Y-13375000D02*
G75*
G03*
X11547000Y-13375000I65000J0D01*
G01*
D18*
X12466610Y-7218860D02*
X12771610Y-7523860D01*
X12771610Y-7218860D02*
X12466610Y-7523860D01*
X12619110Y-7218860D02*
X12619110Y-7523860D01*
X12466610Y-7371360D02*
X12771610Y-7371360D01*
X12466610Y-9123860D02*
X12771610Y-9428860D01*
X12771610Y-9123860D02*
X12466610Y-9428860D01*
X12619110Y-9123860D02*
X12619110Y-9428860D01*
X12466610Y-9276360D02*
X12771610Y-9276360D01*
X12466610Y-11028860D02*
X12771610Y-11333860D01*
X12771610Y-11028860D02*
X12466610Y-11333860D01*
X12619110Y-11028860D02*
X12619110Y-11333860D01*
X12466610Y-11181360D02*
X12771610Y-11181360D01*
X12466610Y-12934220D02*
X12771610Y-13239220D01*
X12771610Y-12934220D02*
X12466610Y-13239220D01*
X12619110Y-12934220D02*
X12619110Y-13239220D01*
X12466610Y-13086720D02*
X12771610Y-13086720D01*
X13101610Y-6964860D02*
X13406610Y-7269860D01*
X13406610Y-6964860D02*
X13101610Y-7269860D01*
X13254110Y-6964860D02*
X13254110Y-7269860D01*
X13101610Y-7117360D02*
X13406610Y-7117360D01*
X13101610Y-8869860D02*
X13406610Y-9174860D01*
X13406610Y-8869860D02*
X13101610Y-9174860D01*
X13254110Y-8869860D02*
X13254110Y-9174860D01*
X13101610Y-9022360D02*
X13406610Y-9022360D01*
X13101610Y-10774860D02*
X13406610Y-11079860D01*
X13406610Y-10774860D02*
X13101610Y-11079860D01*
X13254110Y-10774860D02*
X13254110Y-11079860D01*
X13101610Y-10927360D02*
X13406610Y-10927360D01*
X13101610Y-12680220D02*
X13406610Y-12985220D01*
X13406610Y-12680220D02*
X13101610Y-12985220D01*
X13254110Y-12680220D02*
X13254110Y-12985220D01*
X13101610Y-12832720D02*
X13406610Y-12832720D01*
X14371610Y-7218860D02*
X14676610Y-7523860D01*
X14676610Y-7218860D02*
X14371610Y-7523860D01*
X14524110Y-7218860D02*
X14524110Y-7523860D01*
X14371610Y-7371360D02*
X14676610Y-7371360D01*
X14371610Y-9123860D02*
X14676610Y-9428860D01*
X14676610Y-9123860D02*
X14371610Y-9428860D01*
X14524110Y-9123860D02*
X14524110Y-9428860D01*
X14371610Y-9276360D02*
X14676610Y-9276360D01*
X14371610Y-11028860D02*
X14676610Y-11333860D01*
X14676610Y-11028860D02*
X14371610Y-11333860D01*
X14524110Y-11028860D02*
X14524110Y-11333860D01*
X14371610Y-11181360D02*
X14676610Y-11181360D01*
X14371610Y-12933860D02*
X14676610Y-13238860D01*
X14676610Y-12933860D02*
X14371610Y-13238860D01*
X14524110Y-12933860D02*
X14524110Y-13238860D01*
X14371610Y-13086360D02*
X14676610Y-13086360D01*
X15006610Y-6964860D02*
X15311610Y-7269860D01*
X15311610Y-6964860D02*
X15006610Y-7269860D01*
X15159110Y-6964860D02*
X15159110Y-7269860D01*
X15006610Y-7117360D02*
X15311610Y-7117360D01*
X15006610Y-8869860D02*
X15311610Y-9174860D01*
X15311610Y-8869860D02*
X15006610Y-9174860D01*
X15159110Y-8869860D02*
X15159110Y-9174860D01*
X15006610Y-9022360D02*
X15311610Y-9022360D01*
X15006610Y-10774860D02*
X15311610Y-11079860D01*
X15311610Y-10774860D02*
X15006610Y-11079860D01*
X15159110Y-10774860D02*
X15159110Y-11079860D01*
X15006610Y-10927360D02*
X15311610Y-10927360D01*
X15006610Y-12679860D02*
X15311610Y-12984860D01*
X15311610Y-12679860D02*
X15006610Y-12984860D01*
X15159110Y-12679860D02*
X15159110Y-12984860D01*
X15006610Y-12832360D02*
X15311610Y-12832360D01*
X16276610Y-7218860D02*
X16581610Y-7523860D01*
X16581610Y-7218860D02*
X16276610Y-7523860D01*
X16429110Y-7218860D02*
X16429110Y-7523860D01*
X16276610Y-7371360D02*
X16581610Y-7371360D01*
X16276610Y-9123860D02*
X16581610Y-9428860D01*
X16581610Y-9123860D02*
X16276610Y-9428860D01*
X16429110Y-9123860D02*
X16429110Y-9428860D01*
X16276610Y-9276360D02*
X16581610Y-9276360D01*
X16276610Y-11028860D02*
X16581610Y-11333860D01*
X16581610Y-11028860D02*
X16276610Y-11333860D01*
X16429110Y-11028860D02*
X16429110Y-11333860D01*
X16276610Y-11181360D02*
X16581610Y-11181360D01*
X16276610Y-12933860D02*
X16581610Y-13238860D01*
X16581610Y-12933860D02*
X16276610Y-13238860D01*
X16429110Y-12933860D02*
X16429110Y-13238860D01*
X16276610Y-13086360D02*
X16581610Y-13086360D01*
X16911610Y-6964860D02*
X17216610Y-7269860D01*
X17216610Y-6964860D02*
X16911610Y-7269860D01*
X17064110Y-6964860D02*
X17064110Y-7269860D01*
X16911610Y-7117360D02*
X17216610Y-7117360D01*
X16911610Y-8869860D02*
X17216610Y-9174860D01*
X17216610Y-8869860D02*
X16911610Y-9174860D01*
X17064110Y-8869860D02*
X17064110Y-9174860D01*
X16911610Y-9022360D02*
X17216610Y-9022360D01*
X16911610Y-10774860D02*
X17216610Y-11079860D01*
X17216610Y-10774860D02*
X16911610Y-11079860D01*
X17064110Y-10774860D02*
X17064110Y-11079860D01*
X16911610Y-10927360D02*
X17216610Y-10927360D01*
X16911610Y-12679860D02*
X17216610Y-12984860D01*
X17216610Y-12679860D02*
X16911610Y-12984860D01*
X17064110Y-12679860D02*
X17064110Y-12984860D01*
X16911610Y-12832360D02*
X17216610Y-12832360D01*
X18181610Y-7218860D02*
X18486610Y-7523860D01*
X18486610Y-7218860D02*
X18181610Y-7523860D01*
X18334110Y-7218860D02*
X18334110Y-7523860D01*
X18181610Y-7371360D02*
X18486610Y-7371360D01*
X18181610Y-9123860D02*
X18486610Y-9428860D01*
X18486610Y-9123860D02*
X18181610Y-9428860D01*
X18334110Y-9123860D02*
X18334110Y-9428860D01*
X18181610Y-9276360D02*
X18486610Y-9276360D01*
X18181610Y-11028860D02*
X18486610Y-11333860D01*
X18486610Y-11028860D02*
X18181610Y-11333860D01*
X18334110Y-11028860D02*
X18334110Y-11333860D01*
X18181610Y-11181360D02*
X18486610Y-11181360D01*
X18181610Y-12934220D02*
X18486610Y-13239220D01*
X18486610Y-12934220D02*
X18181610Y-13239220D01*
X18334110Y-12934220D02*
X18334110Y-13239220D01*
X18181610Y-13086720D02*
X18486610Y-13086720D01*
X18816610Y-6964860D02*
X19121610Y-7269860D01*
X19121610Y-6964860D02*
X18816610Y-7269860D01*
X18969110Y-6964860D02*
X18969110Y-7269860D01*
X18816610Y-7117360D02*
X19121610Y-7117360D01*
X18816610Y-8869860D02*
X19121610Y-9174860D01*
X19121610Y-8869860D02*
X18816610Y-9174860D01*
X18969110Y-8869860D02*
X18969110Y-9174860D01*
X18816610Y-9022360D02*
X19121610Y-9022360D01*
X18816610Y-10774860D02*
X19121610Y-11079860D01*
X19121610Y-10774860D02*
X18816610Y-11079860D01*
X18969110Y-10774860D02*
X18969110Y-11079860D01*
X18816610Y-10927360D02*
X19121610Y-10927360D01*
X18816610Y-12680220D02*
X19121610Y-12985220D01*
X19121610Y-12680220D02*
X18816610Y-12985220D01*
X18969110Y-12680220D02*
X18969110Y-12985220D01*
X18816610Y-12832720D02*
X19121610Y-12832720D01*
D11*
X10250109Y-14743456D02*
X10250109Y-14543456D01*
X10297728Y-14543456D01*
X10326300Y-14552980D01*
X10345347Y-14572028D01*
X10354871Y-14591075D01*
X10364395Y-14629170D01*
X10364395Y-14657742D01*
X10354871Y-14695837D01*
X10345347Y-14714885D01*
X10326300Y-14733932D01*
X10297728Y-14743456D01*
X10250109Y-14743456D01*
X10450109Y-14743456D02*
X10450109Y-14610123D01*
X10450109Y-14648218D02*
X10459633Y-14629170D01*
X10469157Y-14619647D01*
X10488204Y-14610123D01*
X10507252Y-14610123D01*
X10573919Y-14743456D02*
X10573919Y-14610123D01*
X10573919Y-14543456D02*
X10564395Y-14552980D01*
X10573919Y-14562504D01*
X10583442Y-14552980D01*
X10573919Y-14543456D01*
X10573919Y-14562504D01*
X10697728Y-14743456D02*
X10678680Y-14733932D01*
X10669157Y-14714885D01*
X10669157Y-14543456D01*
X10802490Y-14743456D02*
X10783442Y-14733932D01*
X10773919Y-14714885D01*
X10773919Y-14543456D01*
X11031061Y-14743456D02*
X11031061Y-14543456D01*
X11097728Y-14686313D01*
X11164395Y-14543456D01*
X11164395Y-14743456D01*
X11345347Y-14743456D02*
X11345347Y-14638694D01*
X11335823Y-14619647D01*
X11316776Y-14610123D01*
X11278680Y-14610123D01*
X11259633Y-14619647D01*
X11345347Y-14733932D02*
X11326299Y-14743456D01*
X11278680Y-14743456D01*
X11259633Y-14733932D01*
X11250109Y-14714885D01*
X11250109Y-14695837D01*
X11259633Y-14676789D01*
X11278680Y-14667266D01*
X11326299Y-14667266D01*
X11345347Y-14657742D01*
X11440585Y-14610123D02*
X11440585Y-14810123D01*
X11440585Y-14619647D02*
X11459633Y-14610123D01*
X11497728Y-14610123D01*
X11516776Y-14619647D01*
X11526299Y-14629170D01*
X11535823Y-14648218D01*
X11535823Y-14705361D01*
X11526299Y-14724408D01*
X11516776Y-14733932D01*
X11497728Y-14743456D01*
X11459633Y-14743456D01*
X11440585Y-14733932D01*
X11621538Y-14724408D02*
X11631061Y-14733932D01*
X11621538Y-14743456D01*
X11612014Y-14733932D01*
X11621538Y-14724408D01*
X11621538Y-14743456D01*
X11621538Y-14619647D02*
X11631061Y-14629170D01*
X11621538Y-14638694D01*
X11612014Y-14629170D01*
X11621538Y-14619647D01*
X11621538Y-14638694D01*
D12*
X9952490Y-15052980D02*
X9992490Y-15092980D01*
X9992490Y-15052980D02*
X9952490Y-15092980D01*
D11*
X10288204Y-14963456D02*
X10307252Y-14963456D01*
X10326300Y-14972980D01*
X10335823Y-14982504D01*
X10345347Y-15001551D01*
X10354871Y-15039647D01*
X10354871Y-15087266D01*
X10345347Y-15125361D01*
X10335823Y-15144408D01*
X10326300Y-15153932D01*
X10307252Y-15163456D01*
X10288204Y-15163456D01*
X10269157Y-15153932D01*
X10259633Y-15144408D01*
X10250109Y-15125361D01*
X10240585Y-15087266D01*
X10240585Y-15039647D01*
X10250109Y-15001551D01*
X10259633Y-14982504D01*
X10269157Y-14972980D01*
X10288204Y-14963456D01*
X10440585Y-15144408D02*
X10450109Y-15153932D01*
X10440585Y-15163456D01*
X10431061Y-15153932D01*
X10440585Y-15144408D01*
X10440585Y-15163456D01*
X10621538Y-15030123D02*
X10621538Y-15163456D01*
X10573919Y-14953932D02*
X10526300Y-15096789D01*
X10650109Y-15096789D01*
X10764395Y-14963456D02*
X10783442Y-14963456D01*
X10802490Y-14972980D01*
X10812014Y-14982504D01*
X10821538Y-15001551D01*
X10831061Y-15039647D01*
X10831061Y-15087266D01*
X10821538Y-15125361D01*
X10812014Y-15144408D01*
X10802490Y-15153932D01*
X10783442Y-15163456D01*
X10764395Y-15163456D01*
X10745347Y-15153932D01*
X10735823Y-15144408D01*
X10726300Y-15125361D01*
X10716776Y-15087266D01*
X10716776Y-15039647D01*
X10726300Y-15001551D01*
X10735823Y-14982504D01*
X10745347Y-14972980D01*
X10764395Y-14963456D01*
X10954871Y-14963456D02*
X10973919Y-14963456D01*
X10992966Y-14972980D01*
X11002490Y-14982504D01*
X11012014Y-15001551D01*
X11021538Y-15039647D01*
X11021538Y-15087266D01*
X11012014Y-15125361D01*
X11002490Y-15144408D01*
X10992966Y-15153932D01*
X10973919Y-15163456D01*
X10954871Y-15163456D01*
X10935823Y-15153932D01*
X10926300Y-15144408D01*
X10916776Y-15125361D01*
X10907252Y-15087266D01*
X10907252Y-15039647D01*
X10916776Y-15001551D01*
X10926300Y-14982504D01*
X10935823Y-14972980D01*
X10954871Y-14963456D01*
X11107252Y-15163456D02*
X11107252Y-15030123D01*
X11107252Y-15049170D02*
X11116776Y-15039647D01*
X11135823Y-15030123D01*
X11164395Y-15030123D01*
X11183442Y-15039647D01*
X11192966Y-15058694D01*
X11192966Y-15163456D01*
X11192966Y-15058694D02*
X11202490Y-15039647D01*
X11221538Y-15030123D01*
X11250109Y-15030123D01*
X11269157Y-15039647D01*
X11278680Y-15058694D01*
X11278680Y-15163456D01*
X11373918Y-15163456D02*
X11373918Y-15030123D01*
X11373918Y-15049170D02*
X11383442Y-15039647D01*
X11402490Y-15030123D01*
X11431061Y-15030123D01*
X11450109Y-15039647D01*
X11459633Y-15058694D01*
X11459633Y-15163456D01*
X11459633Y-15058694D02*
X11469157Y-15039647D01*
X11488204Y-15030123D01*
X11516776Y-15030123D01*
X11535823Y-15039647D01*
X11545347Y-15058694D01*
X11545347Y-15163456D01*
X11935823Y-14953932D02*
X11764395Y-15211075D01*
X12192966Y-14963456D02*
X12212014Y-14963456D01*
X12231061Y-14972980D01*
X12240585Y-14982504D01*
X12250109Y-15001551D01*
X12259633Y-15039647D01*
X12259633Y-15087266D01*
X12250109Y-15125361D01*
X12240585Y-15144408D01*
X12231061Y-15153932D01*
X12212014Y-15163456D01*
X12192966Y-15163456D01*
X12173918Y-15153932D01*
X12164395Y-15144408D01*
X12154871Y-15125361D01*
X12145347Y-15087266D01*
X12145347Y-15039647D01*
X12154871Y-15001551D01*
X12164395Y-14982504D01*
X12173918Y-14972980D01*
X12192966Y-14963456D01*
X12345347Y-15144408D02*
X12354871Y-15153932D01*
X12345347Y-15163456D01*
X12335823Y-15153932D01*
X12345347Y-15144408D01*
X12345347Y-15163456D01*
X12478680Y-14963456D02*
X12497728Y-14963456D01*
X12516776Y-14972980D01*
X12526299Y-14982504D01*
X12535823Y-15001551D01*
X12545347Y-15039647D01*
X12545347Y-15087266D01*
X12535823Y-15125361D01*
X12526299Y-15144408D01*
X12516776Y-15153932D01*
X12497728Y-15163456D01*
X12478680Y-15163456D01*
X12459633Y-15153932D01*
X12450109Y-15144408D01*
X12440585Y-15125361D01*
X12431061Y-15087266D01*
X12431061Y-15039647D01*
X12440585Y-15001551D01*
X12450109Y-14982504D01*
X12459633Y-14972980D01*
X12478680Y-14963456D01*
X12735823Y-15163456D02*
X12621538Y-15163456D01*
X12678680Y-15163456D02*
X12678680Y-14963456D01*
X12659633Y-14992028D01*
X12640585Y-15011075D01*
X12621538Y-15020599D01*
X12916776Y-14963456D02*
X12821538Y-14963456D01*
X12812014Y-15058694D01*
X12821538Y-15049170D01*
X12840585Y-15039647D01*
X12888204Y-15039647D01*
X12907252Y-15049170D01*
X12916776Y-15058694D01*
X12926299Y-15077742D01*
X12926299Y-15125361D01*
X12916776Y-15144408D01*
X12907252Y-15153932D01*
X12888204Y-15163456D01*
X12840585Y-15163456D01*
X12821538Y-15153932D01*
X12812014Y-15144408D01*
X12992966Y-14963456D02*
X13126299Y-14963456D01*
X13040585Y-15163456D01*
X13192966Y-14963456D02*
X13192966Y-15001551D01*
X13269157Y-14963456D02*
X13269157Y-15001551D01*
X13564395Y-15239647D02*
X13554871Y-15230123D01*
X13535823Y-15201551D01*
X13526299Y-15182504D01*
X13516776Y-15153932D01*
X13507252Y-15106313D01*
X13507252Y-15068218D01*
X13516776Y-15020599D01*
X13526299Y-14992028D01*
X13535823Y-14972980D01*
X13554871Y-14944408D01*
X13564395Y-14934885D01*
X13621538Y-14963456D02*
X13745347Y-14963456D01*
X13678680Y-15039647D01*
X13707252Y-15039647D01*
X13726299Y-15049170D01*
X13735823Y-15058694D01*
X13745347Y-15077742D01*
X13745347Y-15125361D01*
X13735823Y-15144408D01*
X13726299Y-15153932D01*
X13707252Y-15163456D01*
X13650109Y-15163456D01*
X13631061Y-15153932D01*
X13621538Y-15144408D01*
X13812014Y-14963456D02*
X13945347Y-14963456D01*
X13859633Y-15163456D01*
X14173918Y-15163456D02*
X14173918Y-14963456D01*
X14259633Y-15163456D02*
X14259633Y-15058694D01*
X14250109Y-15039647D01*
X14231061Y-15030123D01*
X14202490Y-15030123D01*
X14183442Y-15039647D01*
X14173918Y-15049170D01*
X14383442Y-15163456D02*
X14364395Y-15153932D01*
X14354871Y-15144408D01*
X14345347Y-15125361D01*
X14345347Y-15068218D01*
X14354871Y-15049170D01*
X14364395Y-15039647D01*
X14383442Y-15030123D01*
X14412014Y-15030123D01*
X14431061Y-15039647D01*
X14440585Y-15049170D01*
X14450109Y-15068218D01*
X14450109Y-15125361D01*
X14440585Y-15144408D01*
X14431061Y-15153932D01*
X14412014Y-15163456D01*
X14383442Y-15163456D01*
X14564395Y-15163456D02*
X14545347Y-15153932D01*
X14535823Y-15134885D01*
X14535823Y-14963456D01*
X14716776Y-15153932D02*
X14697728Y-15163456D01*
X14659633Y-15163456D01*
X14640585Y-15153932D01*
X14631061Y-15134885D01*
X14631061Y-15058694D01*
X14640585Y-15039647D01*
X14659633Y-15030123D01*
X14697728Y-15030123D01*
X14716776Y-15039647D01*
X14726299Y-15058694D01*
X14726299Y-15077742D01*
X14631061Y-15096789D01*
X14802490Y-15153932D02*
X14821538Y-15163456D01*
X14859633Y-15163456D01*
X14878680Y-15153932D01*
X14888204Y-15134885D01*
X14888204Y-15125361D01*
X14878680Y-15106313D01*
X14859633Y-15096789D01*
X14831061Y-15096789D01*
X14812014Y-15087266D01*
X14802490Y-15068218D01*
X14802490Y-15058694D01*
X14812014Y-15039647D01*
X14831061Y-15030123D01*
X14859633Y-15030123D01*
X14878680Y-15039647D01*
X14954871Y-15239647D02*
X14964395Y-15230123D01*
X14983442Y-15201551D01*
X14992966Y-15182504D01*
X15002490Y-15153932D01*
X15012014Y-15106313D01*
X15012014Y-15068218D01*
X15002490Y-15020599D01*
X14992966Y-14992028D01*
X14983442Y-14972980D01*
X14964395Y-14944408D01*
X14954871Y-14934885D01*
D13*
X9992490Y-15336980D02*
G75*
G03*
X9992490Y-15336980I-40640J0D01*
G01*
D11*
X10288204Y-15227456D02*
X10307252Y-15227456D01*
X10326300Y-15236980D01*
X10335823Y-15246504D01*
X10345347Y-15265551D01*
X10354871Y-15303647D01*
X10354871Y-15351266D01*
X10345347Y-15389361D01*
X10335823Y-15408408D01*
X10326300Y-15417932D01*
X10307252Y-15427456D01*
X10288204Y-15427456D01*
X10269157Y-15417932D01*
X10259633Y-15408408D01*
X10250109Y-15389361D01*
X10240585Y-15351266D01*
X10240585Y-15303647D01*
X10250109Y-15265551D01*
X10259633Y-15246504D01*
X10269157Y-15236980D01*
X10288204Y-15227456D01*
X10440585Y-15408408D02*
X10450109Y-15417932D01*
X10440585Y-15427456D01*
X10431061Y-15417932D01*
X10440585Y-15408408D01*
X10440585Y-15427456D01*
X10564395Y-15313170D02*
X10545347Y-15303647D01*
X10535823Y-15294123D01*
X10526300Y-15275075D01*
X10526300Y-15265551D01*
X10535823Y-15246504D01*
X10545347Y-15236980D01*
X10564395Y-15227456D01*
X10602490Y-15227456D01*
X10621538Y-15236980D01*
X10631061Y-15246504D01*
X10640585Y-15265551D01*
X10640585Y-15275075D01*
X10631061Y-15294123D01*
X10621538Y-15303647D01*
X10602490Y-15313170D01*
X10564395Y-15313170D01*
X10545347Y-15322694D01*
X10535823Y-15332218D01*
X10526300Y-15351266D01*
X10526300Y-15389361D01*
X10535823Y-15408408D01*
X10545347Y-15417932D01*
X10564395Y-15427456D01*
X10602490Y-15427456D01*
X10621538Y-15417932D01*
X10631061Y-15408408D01*
X10640585Y-15389361D01*
X10640585Y-15351266D01*
X10631061Y-15332218D01*
X10621538Y-15322694D01*
X10602490Y-15313170D01*
X10831061Y-15427456D02*
X10716776Y-15427456D01*
X10773919Y-15427456D02*
X10773919Y-15227456D01*
X10754871Y-15256028D01*
X10735823Y-15275075D01*
X10716776Y-15284599D01*
X10897728Y-15227456D02*
X11021538Y-15227456D01*
X10954871Y-15303647D01*
X10983442Y-15303647D01*
X11002490Y-15313170D01*
X11012014Y-15322694D01*
X11021538Y-15341742D01*
X11021538Y-15389361D01*
X11012014Y-15408408D01*
X11002490Y-15417932D01*
X10983442Y-15427456D01*
X10926300Y-15427456D01*
X10907252Y-15417932D01*
X10897728Y-15408408D01*
X11107252Y-15427456D02*
X11107252Y-15294123D01*
X11107252Y-15313170D02*
X11116776Y-15303647D01*
X11135823Y-15294123D01*
X11164395Y-15294123D01*
X11183442Y-15303647D01*
X11192966Y-15322694D01*
X11192966Y-15427456D01*
X11192966Y-15322694D02*
X11202490Y-15303647D01*
X11221538Y-15294123D01*
X11250109Y-15294123D01*
X11269157Y-15303647D01*
X11278680Y-15322694D01*
X11278680Y-15427456D01*
X11373918Y-15427456D02*
X11373918Y-15294123D01*
X11373918Y-15313170D02*
X11383442Y-15303647D01*
X11402490Y-15294123D01*
X11431061Y-15294123D01*
X11450109Y-15303647D01*
X11459633Y-15322694D01*
X11459633Y-15427456D01*
X11459633Y-15322694D02*
X11469157Y-15303647D01*
X11488204Y-15294123D01*
X11516776Y-15294123D01*
X11535823Y-15303647D01*
X11545347Y-15322694D01*
X11545347Y-15427456D01*
X11935823Y-15217932D02*
X11764395Y-15475075D01*
X12192966Y-15227456D02*
X12212014Y-15227456D01*
X12231061Y-15236980D01*
X12240585Y-15246504D01*
X12250109Y-15265551D01*
X12259633Y-15303647D01*
X12259633Y-15351266D01*
X12250109Y-15389361D01*
X12240585Y-15408408D01*
X12231061Y-15417932D01*
X12212014Y-15427456D01*
X12192966Y-15427456D01*
X12173918Y-15417932D01*
X12164395Y-15408408D01*
X12154871Y-15389361D01*
X12145347Y-15351266D01*
X12145347Y-15303647D01*
X12154871Y-15265551D01*
X12164395Y-15246504D01*
X12173918Y-15236980D01*
X12192966Y-15227456D01*
X12345347Y-15408408D02*
X12354871Y-15417932D01*
X12345347Y-15427456D01*
X12335823Y-15417932D01*
X12345347Y-15408408D01*
X12345347Y-15427456D01*
X12478680Y-15227456D02*
X12497728Y-15227456D01*
X12516776Y-15236980D01*
X12526299Y-15246504D01*
X12535823Y-15265551D01*
X12545347Y-15303647D01*
X12545347Y-15351266D01*
X12535823Y-15389361D01*
X12526299Y-15408408D01*
X12516776Y-15417932D01*
X12497728Y-15427456D01*
X12478680Y-15427456D01*
X12459633Y-15417932D01*
X12450109Y-15408408D01*
X12440585Y-15389361D01*
X12431061Y-15351266D01*
X12431061Y-15303647D01*
X12440585Y-15265551D01*
X12450109Y-15246504D01*
X12459633Y-15236980D01*
X12478680Y-15227456D01*
X12612014Y-15227456D02*
X12735823Y-15227456D01*
X12669157Y-15303647D01*
X12697728Y-15303647D01*
X12716776Y-15313170D01*
X12726299Y-15322694D01*
X12735823Y-15341742D01*
X12735823Y-15389361D01*
X12726299Y-15408408D01*
X12716776Y-15417932D01*
X12697728Y-15427456D01*
X12640585Y-15427456D01*
X12621538Y-15417932D01*
X12612014Y-15408408D01*
X12812014Y-15246504D02*
X12821538Y-15236980D01*
X12840585Y-15227456D01*
X12888204Y-15227456D01*
X12907252Y-15236980D01*
X12916776Y-15246504D01*
X12926299Y-15265551D01*
X12926299Y-15284599D01*
X12916776Y-15313170D01*
X12802490Y-15427456D01*
X12926299Y-15427456D01*
X13050109Y-15227456D02*
X13069157Y-15227456D01*
X13088204Y-15236980D01*
X13097728Y-15246504D01*
X13107252Y-15265551D01*
X13116776Y-15303647D01*
X13116776Y-15351266D01*
X13107252Y-15389361D01*
X13097728Y-15408408D01*
X13088204Y-15417932D01*
X13069157Y-15427456D01*
X13050109Y-15427456D01*
X13031061Y-15417932D01*
X13021538Y-15408408D01*
X13012014Y-15389361D01*
X13002490Y-15351266D01*
X13002490Y-15303647D01*
X13012014Y-15265551D01*
X13021538Y-15246504D01*
X13031061Y-15236980D01*
X13050109Y-15227456D01*
X13192966Y-15227456D02*
X13192966Y-15265551D01*
X13269157Y-15227456D02*
X13269157Y-15265551D01*
X13564395Y-15503647D02*
X13554871Y-15494123D01*
X13535823Y-15465551D01*
X13526299Y-15446504D01*
X13516776Y-15417932D01*
X13507252Y-15370313D01*
X13507252Y-15332218D01*
X13516776Y-15284599D01*
X13526299Y-15256028D01*
X13535823Y-15236980D01*
X13554871Y-15208408D01*
X13564395Y-15198885D01*
X13726299Y-15227456D02*
X13688204Y-15227456D01*
X13669157Y-15236980D01*
X13659633Y-15246504D01*
X13640585Y-15275075D01*
X13631061Y-15313170D01*
X13631061Y-15389361D01*
X13640585Y-15408408D01*
X13650109Y-15417932D01*
X13669157Y-15427456D01*
X13707252Y-15427456D01*
X13726299Y-15417932D01*
X13735823Y-15408408D01*
X13745347Y-15389361D01*
X13745347Y-15341742D01*
X13735823Y-15322694D01*
X13726299Y-15313170D01*
X13707252Y-15303647D01*
X13669157Y-15303647D01*
X13650109Y-15313170D01*
X13640585Y-15322694D01*
X13631061Y-15341742D01*
X13983442Y-15427456D02*
X13983442Y-15227456D01*
X14069157Y-15427456D02*
X14069157Y-15322694D01*
X14059633Y-15303647D01*
X14040585Y-15294123D01*
X14012014Y-15294123D01*
X13992966Y-15303647D01*
X13983442Y-15313170D01*
X14192966Y-15427456D02*
X14173918Y-15417932D01*
X14164395Y-15408408D01*
X14154871Y-15389361D01*
X14154871Y-15332218D01*
X14164395Y-15313170D01*
X14173918Y-15303647D01*
X14192966Y-15294123D01*
X14221538Y-15294123D01*
X14240585Y-15303647D01*
X14250109Y-15313170D01*
X14259633Y-15332218D01*
X14259633Y-15389361D01*
X14250109Y-15408408D01*
X14240585Y-15417932D01*
X14221538Y-15427456D01*
X14192966Y-15427456D01*
X14373918Y-15427456D02*
X14354871Y-15417932D01*
X14345347Y-15398885D01*
X14345347Y-15227456D01*
X14526299Y-15417932D02*
X14507252Y-15427456D01*
X14469157Y-15427456D01*
X14450109Y-15417932D01*
X14440585Y-15398885D01*
X14440585Y-15322694D01*
X14450109Y-15303647D01*
X14469157Y-15294123D01*
X14507252Y-15294123D01*
X14526299Y-15303647D01*
X14535823Y-15322694D01*
X14535823Y-15341742D01*
X14440585Y-15360789D01*
X14612014Y-15417932D02*
X14631061Y-15427456D01*
X14669157Y-15427456D01*
X14688204Y-15417932D01*
X14697728Y-15398885D01*
X14697728Y-15389361D01*
X14688204Y-15370313D01*
X14669157Y-15360789D01*
X14640585Y-15360789D01*
X14621538Y-15351266D01*
X14612014Y-15332218D01*
X14612014Y-15322694D01*
X14621538Y-15303647D01*
X14640585Y-15294123D01*
X14669157Y-15294123D01*
X14688204Y-15303647D01*
X14764395Y-15503647D02*
X14773918Y-15494123D01*
X14792966Y-15465551D01*
X14802490Y-15446504D01*
X14812014Y-15417932D01*
X14821538Y-15370313D01*
X14821538Y-15332218D01*
X14812014Y-15284599D01*
X14802490Y-15256028D01*
X14792966Y-15236980D01*
X14773918Y-15208408D01*
X14764395Y-15198885D01*
D14*
X9947490Y-15555980D02*
X9947490Y-15645980D01*
X9902490Y-15600980D02*
X9992490Y-15600980D01*
D11*
X10288204Y-15491456D02*
X10307252Y-15491456D01*
X10326300Y-15500980D01*
X10335823Y-15510504D01*
X10345347Y-15529551D01*
X10354871Y-15567647D01*
X10354871Y-15615266D01*
X10345347Y-15653361D01*
X10335823Y-15672408D01*
X10326300Y-15681932D01*
X10307252Y-15691456D01*
X10288204Y-15691456D01*
X10269157Y-15681932D01*
X10259633Y-15672408D01*
X10250109Y-15653361D01*
X10240585Y-15615266D01*
X10240585Y-15567647D01*
X10250109Y-15529551D01*
X10259633Y-15510504D01*
X10269157Y-15500980D01*
X10288204Y-15491456D01*
X10440585Y-15672408D02*
X10450109Y-15681932D01*
X10440585Y-15691456D01*
X10431061Y-15681932D01*
X10440585Y-15672408D01*
X10440585Y-15691456D01*
X10545347Y-15691456D02*
X10583442Y-15691456D01*
X10602490Y-15681932D01*
X10612014Y-15672408D01*
X10631061Y-15643837D01*
X10640585Y-15605742D01*
X10640585Y-15529551D01*
X10631061Y-15510504D01*
X10621538Y-15500980D01*
X10602490Y-15491456D01*
X10564395Y-15491456D01*
X10545347Y-15500980D01*
X10535823Y-15510504D01*
X10526300Y-15529551D01*
X10526300Y-15577170D01*
X10535823Y-15596218D01*
X10545347Y-15605742D01*
X10564395Y-15615266D01*
X10602490Y-15615266D01*
X10621538Y-15605742D01*
X10631061Y-15596218D01*
X10640585Y-15577170D01*
X10764395Y-15491456D02*
X10783442Y-15491456D01*
X10802490Y-15500980D01*
X10812014Y-15510504D01*
X10821538Y-15529551D01*
X10831061Y-15567647D01*
X10831061Y-15615266D01*
X10821538Y-15653361D01*
X10812014Y-15672408D01*
X10802490Y-15681932D01*
X10783442Y-15691456D01*
X10764395Y-15691456D01*
X10745347Y-15681932D01*
X10735823Y-15672408D01*
X10726300Y-15653361D01*
X10716776Y-15615266D01*
X10716776Y-15567647D01*
X10726300Y-15529551D01*
X10735823Y-15510504D01*
X10745347Y-15500980D01*
X10764395Y-15491456D01*
X10954871Y-15491456D02*
X10973919Y-15491456D01*
X10992966Y-15500980D01*
X11002490Y-15510504D01*
X11012014Y-15529551D01*
X11021538Y-15567647D01*
X11021538Y-15615266D01*
X11012014Y-15653361D01*
X11002490Y-15672408D01*
X10992966Y-15681932D01*
X10973919Y-15691456D01*
X10954871Y-15691456D01*
X10935823Y-15681932D01*
X10926300Y-15672408D01*
X10916776Y-15653361D01*
X10907252Y-15615266D01*
X10907252Y-15567647D01*
X10916776Y-15529551D01*
X10926300Y-15510504D01*
X10935823Y-15500980D01*
X10954871Y-15491456D01*
X11107252Y-15691456D02*
X11107252Y-15558123D01*
X11107252Y-15577170D02*
X11116776Y-15567647D01*
X11135823Y-15558123D01*
X11164395Y-15558123D01*
X11183442Y-15567647D01*
X11192966Y-15586694D01*
X11192966Y-15691456D01*
X11192966Y-15586694D02*
X11202490Y-15567647D01*
X11221538Y-15558123D01*
X11250109Y-15558123D01*
X11269157Y-15567647D01*
X11278680Y-15586694D01*
X11278680Y-15691456D01*
X11373918Y-15691456D02*
X11373918Y-15558123D01*
X11373918Y-15577170D02*
X11383442Y-15567647D01*
X11402490Y-15558123D01*
X11431061Y-15558123D01*
X11450109Y-15567647D01*
X11459633Y-15586694D01*
X11459633Y-15691456D01*
X11459633Y-15586694D02*
X11469157Y-15567647D01*
X11488204Y-15558123D01*
X11516776Y-15558123D01*
X11535823Y-15567647D01*
X11545347Y-15586694D01*
X11545347Y-15691456D01*
X11935823Y-15481932D02*
X11764395Y-15739075D01*
X12192966Y-15491456D02*
X12212014Y-15491456D01*
X12231061Y-15500980D01*
X12240585Y-15510504D01*
X12250109Y-15529551D01*
X12259633Y-15567647D01*
X12259633Y-15615266D01*
X12250109Y-15653361D01*
X12240585Y-15672408D01*
X12231061Y-15681932D01*
X12212014Y-15691456D01*
X12192966Y-15691456D01*
X12173918Y-15681932D01*
X12164395Y-15672408D01*
X12154871Y-15653361D01*
X12145347Y-15615266D01*
X12145347Y-15567647D01*
X12154871Y-15529551D01*
X12164395Y-15510504D01*
X12173918Y-15500980D01*
X12192966Y-15491456D01*
X12345347Y-15672408D02*
X12354871Y-15681932D01*
X12345347Y-15691456D01*
X12335823Y-15681932D01*
X12345347Y-15672408D01*
X12345347Y-15691456D01*
X12478680Y-15491456D02*
X12497728Y-15491456D01*
X12516776Y-15500980D01*
X12526299Y-15510504D01*
X12535823Y-15529551D01*
X12545347Y-15567647D01*
X12545347Y-15615266D01*
X12535823Y-15653361D01*
X12526299Y-15672408D01*
X12516776Y-15681932D01*
X12497728Y-15691456D01*
X12478680Y-15691456D01*
X12459633Y-15681932D01*
X12450109Y-15672408D01*
X12440585Y-15653361D01*
X12431061Y-15615266D01*
X12431061Y-15567647D01*
X12440585Y-15529551D01*
X12450109Y-15510504D01*
X12459633Y-15500980D01*
X12478680Y-15491456D01*
X12612014Y-15491456D02*
X12735823Y-15491456D01*
X12669157Y-15567647D01*
X12697728Y-15567647D01*
X12716776Y-15577170D01*
X12726299Y-15586694D01*
X12735823Y-15605742D01*
X12735823Y-15653361D01*
X12726299Y-15672408D01*
X12716776Y-15681932D01*
X12697728Y-15691456D01*
X12640585Y-15691456D01*
X12621538Y-15681932D01*
X12612014Y-15672408D01*
X12916776Y-15491456D02*
X12821538Y-15491456D01*
X12812014Y-15586694D01*
X12821538Y-15577170D01*
X12840585Y-15567647D01*
X12888204Y-15567647D01*
X12907252Y-15577170D01*
X12916776Y-15586694D01*
X12926299Y-15605742D01*
X12926299Y-15653361D01*
X12916776Y-15672408D01*
X12907252Y-15681932D01*
X12888204Y-15691456D01*
X12840585Y-15691456D01*
X12821538Y-15681932D01*
X12812014Y-15672408D01*
X13097728Y-15558123D02*
X13097728Y-15691456D01*
X13050109Y-15481932D02*
X13002490Y-15624789D01*
X13126299Y-15624789D01*
X13192966Y-15491456D02*
X13192966Y-15529551D01*
X13269157Y-15491456D02*
X13269157Y-15529551D01*
X13564395Y-15767647D02*
X13554871Y-15758123D01*
X13535823Y-15729551D01*
X13526299Y-15710504D01*
X13516776Y-15681932D01*
X13507252Y-15634313D01*
X13507252Y-15596218D01*
X13516776Y-15548599D01*
X13526299Y-15520028D01*
X13535823Y-15500980D01*
X13554871Y-15472408D01*
X13564395Y-15462885D01*
X13726299Y-15558123D02*
X13726299Y-15691456D01*
X13678680Y-15481932D02*
X13631061Y-15624789D01*
X13754871Y-15624789D01*
X13869157Y-15491456D02*
X13888204Y-15491456D01*
X13907252Y-15500980D01*
X13916776Y-15510504D01*
X13926299Y-15529551D01*
X13935823Y-15567647D01*
X13935823Y-15615266D01*
X13926299Y-15653361D01*
X13916776Y-15672408D01*
X13907252Y-15681932D01*
X13888204Y-15691456D01*
X13869157Y-15691456D01*
X13850109Y-15681932D01*
X13840585Y-15672408D01*
X13831061Y-15653361D01*
X13821538Y-15615266D01*
X13821538Y-15567647D01*
X13831061Y-15529551D01*
X13840585Y-15510504D01*
X13850109Y-15500980D01*
X13869157Y-15491456D01*
X14173918Y-15691456D02*
X14173918Y-15491456D01*
X14259633Y-15691456D02*
X14259633Y-15586694D01*
X14250109Y-15567647D01*
X14231061Y-15558123D01*
X14202490Y-15558123D01*
X14183442Y-15567647D01*
X14173918Y-15577170D01*
X14383442Y-15691456D02*
X14364395Y-15681932D01*
X14354871Y-15672408D01*
X14345347Y-15653361D01*
X14345347Y-15596218D01*
X14354871Y-15577170D01*
X14364395Y-15567647D01*
X14383442Y-15558123D01*
X14412014Y-15558123D01*
X14431061Y-15567647D01*
X14440585Y-15577170D01*
X14450109Y-15596218D01*
X14450109Y-15653361D01*
X14440585Y-15672408D01*
X14431061Y-15681932D01*
X14412014Y-15691456D01*
X14383442Y-15691456D01*
X14564395Y-15691456D02*
X14545347Y-15681932D01*
X14535823Y-15662885D01*
X14535823Y-15491456D01*
X14716776Y-15681932D02*
X14697728Y-15691456D01*
X14659633Y-15691456D01*
X14640585Y-15681932D01*
X14631061Y-15662885D01*
X14631061Y-15586694D01*
X14640585Y-15567647D01*
X14659633Y-15558123D01*
X14697728Y-15558123D01*
X14716776Y-15567647D01*
X14726299Y-15586694D01*
X14726299Y-15605742D01*
X14631061Y-15624789D01*
X14802490Y-15681932D02*
X14821538Y-15691456D01*
X14859633Y-15691456D01*
X14878680Y-15681932D01*
X14888204Y-15662885D01*
X14888204Y-15653361D01*
X14878680Y-15634313D01*
X14859633Y-15624789D01*
X14831061Y-15624789D01*
X14812014Y-15615266D01*
X14802490Y-15596218D01*
X14802490Y-15586694D01*
X14812014Y-15567647D01*
X14831061Y-15558123D01*
X14859633Y-15558123D01*
X14878680Y-15567647D01*
X14954871Y-15767647D02*
X14964395Y-15758123D01*
X14983442Y-15729551D01*
X14992966Y-15710504D01*
X15002490Y-15681932D01*
X15012014Y-15634313D01*
X15012014Y-15596218D01*
X15002490Y-15548599D01*
X14992966Y-15520028D01*
X14983442Y-15500980D01*
X14964395Y-15472408D01*
X14954871Y-15462885D01*
D15*
X9977846Y-15900336D02*
X9977846Y-15829624D01*
X9907134Y-15829624D01*
X9907134Y-15900336D01*
X9977846Y-15900336D01*
D11*
X10354871Y-15955456D02*
X10240585Y-15955456D01*
X10297728Y-15955456D02*
X10297728Y-15755456D01*
X10278680Y-15784028D01*
X10259633Y-15803075D01*
X10240585Y-15812599D01*
X10440585Y-15936408D02*
X10450109Y-15945932D01*
X10440585Y-15955456D01*
X10431061Y-15945932D01*
X10440585Y-15936408D01*
X10440585Y-15955456D01*
X10573919Y-15755456D02*
X10592966Y-15755456D01*
X10612014Y-15764980D01*
X10621538Y-15774504D01*
X10631061Y-15793551D01*
X10640585Y-15831647D01*
X10640585Y-15879266D01*
X10631061Y-15917361D01*
X10621538Y-15936408D01*
X10612014Y-15945932D01*
X10592966Y-15955456D01*
X10573919Y-15955456D01*
X10554871Y-15945932D01*
X10545347Y-15936408D01*
X10535823Y-15917361D01*
X10526300Y-15879266D01*
X10526300Y-15831647D01*
X10535823Y-15793551D01*
X10545347Y-15774504D01*
X10554871Y-15764980D01*
X10573919Y-15755456D01*
X10764395Y-15755456D02*
X10783442Y-15755456D01*
X10802490Y-15764980D01*
X10812014Y-15774504D01*
X10821538Y-15793551D01*
X10831061Y-15831647D01*
X10831061Y-15879266D01*
X10821538Y-15917361D01*
X10812014Y-15936408D01*
X10802490Y-15945932D01*
X10783442Y-15955456D01*
X10764395Y-15955456D01*
X10745347Y-15945932D01*
X10735823Y-15936408D01*
X10726300Y-15917361D01*
X10716776Y-15879266D01*
X10716776Y-15831647D01*
X10726300Y-15793551D01*
X10735823Y-15774504D01*
X10745347Y-15764980D01*
X10764395Y-15755456D01*
X10954871Y-15755456D02*
X10973919Y-15755456D01*
X10992966Y-15764980D01*
X11002490Y-15774504D01*
X11012014Y-15793551D01*
X11021538Y-15831647D01*
X11021538Y-15879266D01*
X11012014Y-15917361D01*
X11002490Y-15936408D01*
X10992966Y-15945932D01*
X10973919Y-15955456D01*
X10954871Y-15955456D01*
X10935823Y-15945932D01*
X10926300Y-15936408D01*
X10916776Y-15917361D01*
X10907252Y-15879266D01*
X10907252Y-15831647D01*
X10916776Y-15793551D01*
X10926300Y-15774504D01*
X10935823Y-15764980D01*
X10954871Y-15755456D01*
X11107252Y-15955456D02*
X11107252Y-15822123D01*
X11107252Y-15841170D02*
X11116776Y-15831647D01*
X11135823Y-15822123D01*
X11164395Y-15822123D01*
X11183442Y-15831647D01*
X11192966Y-15850694D01*
X11192966Y-15955456D01*
X11192966Y-15850694D02*
X11202490Y-15831647D01*
X11221538Y-15822123D01*
X11250109Y-15822123D01*
X11269157Y-15831647D01*
X11278680Y-15850694D01*
X11278680Y-15955456D01*
X11373918Y-15955456D02*
X11373918Y-15822123D01*
X11373918Y-15841170D02*
X11383442Y-15831647D01*
X11402490Y-15822123D01*
X11431061Y-15822123D01*
X11450109Y-15831647D01*
X11459633Y-15850694D01*
X11459633Y-15955456D01*
X11459633Y-15850694D02*
X11469157Y-15831647D01*
X11488204Y-15822123D01*
X11516776Y-15822123D01*
X11535823Y-15831647D01*
X11545347Y-15850694D01*
X11545347Y-15955456D01*
X11935823Y-15745932D02*
X11764395Y-16003075D01*
X12192966Y-15755456D02*
X12212014Y-15755456D01*
X12231061Y-15764980D01*
X12240585Y-15774504D01*
X12250109Y-15793551D01*
X12259633Y-15831647D01*
X12259633Y-15879266D01*
X12250109Y-15917361D01*
X12240585Y-15936408D01*
X12231061Y-15945932D01*
X12212014Y-15955456D01*
X12192966Y-15955456D01*
X12173918Y-15945932D01*
X12164395Y-15936408D01*
X12154871Y-15917361D01*
X12145347Y-15879266D01*
X12145347Y-15831647D01*
X12154871Y-15793551D01*
X12164395Y-15774504D01*
X12173918Y-15764980D01*
X12192966Y-15755456D01*
X12345347Y-15936408D02*
X12354871Y-15945932D01*
X12345347Y-15955456D01*
X12335823Y-15945932D01*
X12345347Y-15936408D01*
X12345347Y-15955456D01*
X12478680Y-15755456D02*
X12497728Y-15755456D01*
X12516776Y-15764980D01*
X12526299Y-15774504D01*
X12535823Y-15793551D01*
X12545347Y-15831647D01*
X12545347Y-15879266D01*
X12535823Y-15917361D01*
X12526299Y-15936408D01*
X12516776Y-15945932D01*
X12497728Y-15955456D01*
X12478680Y-15955456D01*
X12459633Y-15945932D01*
X12450109Y-15936408D01*
X12440585Y-15917361D01*
X12431061Y-15879266D01*
X12431061Y-15831647D01*
X12440585Y-15793551D01*
X12450109Y-15774504D01*
X12459633Y-15764980D01*
X12478680Y-15755456D01*
X12612014Y-15755456D02*
X12735823Y-15755456D01*
X12669157Y-15831647D01*
X12697728Y-15831647D01*
X12716776Y-15841170D01*
X12726299Y-15850694D01*
X12735823Y-15869742D01*
X12735823Y-15917361D01*
X12726299Y-15936408D01*
X12716776Y-15945932D01*
X12697728Y-15955456D01*
X12640585Y-15955456D01*
X12621538Y-15945932D01*
X12612014Y-15936408D01*
X12831061Y-15955456D02*
X12869157Y-15955456D01*
X12888204Y-15945932D01*
X12897728Y-15936408D01*
X12916776Y-15907837D01*
X12926299Y-15869742D01*
X12926299Y-15793551D01*
X12916776Y-15774504D01*
X12907252Y-15764980D01*
X12888204Y-15755456D01*
X12850109Y-15755456D01*
X12831061Y-15764980D01*
X12821538Y-15774504D01*
X12812014Y-15793551D01*
X12812014Y-15841170D01*
X12821538Y-15860218D01*
X12831061Y-15869742D01*
X12850109Y-15879266D01*
X12888204Y-15879266D01*
X12907252Y-15869742D01*
X12916776Y-15860218D01*
X12926299Y-15841170D01*
X13097728Y-15822123D02*
X13097728Y-15955456D01*
X13050109Y-15745932D02*
X13002490Y-15888789D01*
X13126299Y-15888789D01*
X13192966Y-15755456D02*
X13192966Y-15793551D01*
X13269157Y-15755456D02*
X13269157Y-15793551D01*
X13564395Y-16031647D02*
X13554871Y-16022123D01*
X13535823Y-15993551D01*
X13526299Y-15974504D01*
X13516776Y-15945932D01*
X13507252Y-15898313D01*
X13507252Y-15860218D01*
X13516776Y-15812599D01*
X13526299Y-15784028D01*
X13535823Y-15764980D01*
X13554871Y-15736408D01*
X13564395Y-15726885D01*
X13735823Y-15755456D02*
X13640585Y-15755456D01*
X13631061Y-15850694D01*
X13640585Y-15841170D01*
X13659633Y-15831647D01*
X13707252Y-15831647D01*
X13726299Y-15841170D01*
X13735823Y-15850694D01*
X13745347Y-15869742D01*
X13745347Y-15917361D01*
X13735823Y-15936408D01*
X13726299Y-15945932D01*
X13707252Y-15955456D01*
X13659633Y-15955456D01*
X13640585Y-15945932D01*
X13631061Y-15936408D01*
X13983442Y-15955456D02*
X13983442Y-15755456D01*
X14069157Y-15955456D02*
X14069157Y-15850694D01*
X14059633Y-15831647D01*
X14040585Y-15822123D01*
X14012014Y-15822123D01*
X13992966Y-15831647D01*
X13983442Y-15841170D01*
X14192966Y-15955456D02*
X14173918Y-15945932D01*
X14164395Y-15936408D01*
X14154871Y-15917361D01*
X14154871Y-15860218D01*
X14164395Y-15841170D01*
X14173918Y-15831647D01*
X14192966Y-15822123D01*
X14221538Y-15822123D01*
X14240585Y-15831647D01*
X14250109Y-15841170D01*
X14259633Y-15860218D01*
X14259633Y-15917361D01*
X14250109Y-15936408D01*
X14240585Y-15945932D01*
X14221538Y-15955456D01*
X14192966Y-15955456D01*
X14373918Y-15955456D02*
X14354871Y-15945932D01*
X14345347Y-15926885D01*
X14345347Y-15755456D01*
X14526299Y-15945932D02*
X14507252Y-15955456D01*
X14469157Y-15955456D01*
X14450109Y-15945932D01*
X14440585Y-15926885D01*
X14440585Y-15850694D01*
X14450109Y-15831647D01*
X14469157Y-15822123D01*
X14507252Y-15822123D01*
X14526299Y-15831647D01*
X14535823Y-15850694D01*
X14535823Y-15869742D01*
X14440585Y-15888789D01*
X14612014Y-15945932D02*
X14631061Y-15955456D01*
X14669157Y-15955456D01*
X14688204Y-15945932D01*
X14697728Y-15926885D01*
X14697728Y-15917361D01*
X14688204Y-15898313D01*
X14669157Y-15888789D01*
X14640585Y-15888789D01*
X14621538Y-15879266D01*
X14612014Y-15860218D01*
X14612014Y-15850694D01*
X14621538Y-15831647D01*
X14640585Y-15822123D01*
X14669157Y-15822123D01*
X14688204Y-15831647D01*
X14764395Y-16031647D02*
X14773918Y-16022123D01*
X14792966Y-15993551D01*
X14802490Y-15974504D01*
X14812014Y-15945932D01*
X14821538Y-15898313D01*
X14821538Y-15860218D01*
X14812014Y-15812599D01*
X14802490Y-15784028D01*
X14792966Y-15764980D01*
X14773918Y-15736408D01*
X14764395Y-15726885D01*
D16*
X9941690Y-16179780D02*
X9992490Y-16128980D01*
X9941690Y-16078180D01*
X9890890Y-16128980D01*
X9941690Y-16179780D01*
D11*
X10354871Y-16219456D02*
X10240585Y-16219456D01*
X10297728Y-16219456D02*
X10297728Y-16019456D01*
X10278680Y-16048028D01*
X10259633Y-16067075D01*
X10240585Y-16076599D01*
X10440585Y-16200408D02*
X10450109Y-16209932D01*
X10440585Y-16219456D01*
X10431061Y-16209932D01*
X10440585Y-16200408D01*
X10440585Y-16219456D01*
X10573919Y-16019456D02*
X10592966Y-16019456D01*
X10612014Y-16028980D01*
X10621538Y-16038504D01*
X10631061Y-16057551D01*
X10640585Y-16095647D01*
X10640585Y-16143266D01*
X10631061Y-16181361D01*
X10621538Y-16200408D01*
X10612014Y-16209932D01*
X10592966Y-16219456D01*
X10573919Y-16219456D01*
X10554871Y-16209932D01*
X10545347Y-16200408D01*
X10535823Y-16181361D01*
X10526300Y-16143266D01*
X10526300Y-16095647D01*
X10535823Y-16057551D01*
X10545347Y-16038504D01*
X10554871Y-16028980D01*
X10573919Y-16019456D01*
X10831061Y-16219456D02*
X10716776Y-16219456D01*
X10773919Y-16219456D02*
X10773919Y-16019456D01*
X10754871Y-16048028D01*
X10735823Y-16067075D01*
X10716776Y-16076599D01*
X11002490Y-16019456D02*
X10964395Y-16019456D01*
X10945347Y-16028980D01*
X10935823Y-16038504D01*
X10916776Y-16067075D01*
X10907252Y-16105170D01*
X10907252Y-16181361D01*
X10916776Y-16200408D01*
X10926300Y-16209932D01*
X10945347Y-16219456D01*
X10983442Y-16219456D01*
X11002490Y-16209932D01*
X11012014Y-16200408D01*
X11021538Y-16181361D01*
X11021538Y-16133742D01*
X11012014Y-16114694D01*
X11002490Y-16105170D01*
X10983442Y-16095647D01*
X10945347Y-16095647D01*
X10926300Y-16105170D01*
X10916776Y-16114694D01*
X10907252Y-16133742D01*
X11107252Y-16219456D02*
X11107252Y-16086123D01*
X11107252Y-16105170D02*
X11116776Y-16095647D01*
X11135823Y-16086123D01*
X11164395Y-16086123D01*
X11183442Y-16095647D01*
X11192966Y-16114694D01*
X11192966Y-16219456D01*
X11192966Y-16114694D02*
X11202490Y-16095647D01*
X11221538Y-16086123D01*
X11250109Y-16086123D01*
X11269157Y-16095647D01*
X11278680Y-16114694D01*
X11278680Y-16219456D01*
X11373918Y-16219456D02*
X11373918Y-16086123D01*
X11373918Y-16105170D02*
X11383442Y-16095647D01*
X11402490Y-16086123D01*
X11431061Y-16086123D01*
X11450109Y-16095647D01*
X11459633Y-16114694D01*
X11459633Y-16219456D01*
X11459633Y-16114694D02*
X11469157Y-16095647D01*
X11488204Y-16086123D01*
X11516776Y-16086123D01*
X11535823Y-16095647D01*
X11545347Y-16114694D01*
X11545347Y-16219456D01*
X11935823Y-16009932D02*
X11764395Y-16267075D01*
X12192966Y-16019456D02*
X12212014Y-16019456D01*
X12231061Y-16028980D01*
X12240585Y-16038504D01*
X12250109Y-16057551D01*
X12259633Y-16095647D01*
X12259633Y-16143266D01*
X12250109Y-16181361D01*
X12240585Y-16200408D01*
X12231061Y-16209932D01*
X12212014Y-16219456D01*
X12192966Y-16219456D01*
X12173918Y-16209932D01*
X12164395Y-16200408D01*
X12154871Y-16181361D01*
X12145347Y-16143266D01*
X12145347Y-16095647D01*
X12154871Y-16057551D01*
X12164395Y-16038504D01*
X12173918Y-16028980D01*
X12192966Y-16019456D01*
X12345347Y-16200408D02*
X12354871Y-16209932D01*
X12345347Y-16219456D01*
X12335823Y-16209932D01*
X12345347Y-16200408D01*
X12345347Y-16219456D01*
X12478680Y-16019456D02*
X12497728Y-16019456D01*
X12516776Y-16028980D01*
X12526299Y-16038504D01*
X12535823Y-16057551D01*
X12545347Y-16095647D01*
X12545347Y-16143266D01*
X12535823Y-16181361D01*
X12526299Y-16200408D01*
X12516776Y-16209932D01*
X12497728Y-16219456D01*
X12478680Y-16219456D01*
X12459633Y-16209932D01*
X12450109Y-16200408D01*
X12440585Y-16181361D01*
X12431061Y-16143266D01*
X12431061Y-16095647D01*
X12440585Y-16057551D01*
X12450109Y-16038504D01*
X12459633Y-16028980D01*
X12478680Y-16019456D01*
X12716776Y-16086123D02*
X12716776Y-16219456D01*
X12669157Y-16009932D02*
X12621538Y-16152789D01*
X12745347Y-16152789D01*
X12859633Y-16019456D02*
X12878680Y-16019456D01*
X12897728Y-16028980D01*
X12907252Y-16038504D01*
X12916776Y-16057551D01*
X12926299Y-16095647D01*
X12926299Y-16143266D01*
X12916776Y-16181361D01*
X12907252Y-16200408D01*
X12897728Y-16209932D01*
X12878680Y-16219456D01*
X12859633Y-16219456D01*
X12840585Y-16209932D01*
X12831061Y-16200408D01*
X12821538Y-16181361D01*
X12812014Y-16143266D01*
X12812014Y-16095647D01*
X12821538Y-16057551D01*
X12831061Y-16038504D01*
X12840585Y-16028980D01*
X12859633Y-16019456D01*
X13050109Y-16019456D02*
X13069157Y-16019456D01*
X13088204Y-16028980D01*
X13097728Y-16038504D01*
X13107252Y-16057551D01*
X13116776Y-16095647D01*
X13116776Y-16143266D01*
X13107252Y-16181361D01*
X13097728Y-16200408D01*
X13088204Y-16209932D01*
X13069157Y-16219456D01*
X13050109Y-16219456D01*
X13031061Y-16209932D01*
X13021538Y-16200408D01*
X13012014Y-16181361D01*
X13002490Y-16143266D01*
X13002490Y-16095647D01*
X13012014Y-16057551D01*
X13021538Y-16038504D01*
X13031061Y-16028980D01*
X13050109Y-16019456D01*
X13192966Y-16019456D02*
X13192966Y-16057551D01*
X13269157Y-16019456D02*
X13269157Y-16057551D01*
X13564395Y-16295647D02*
X13554871Y-16286123D01*
X13535823Y-16257551D01*
X13526299Y-16238504D01*
X13516776Y-16209932D01*
X13507252Y-16162313D01*
X13507252Y-16124218D01*
X13516776Y-16076599D01*
X13526299Y-16048028D01*
X13535823Y-16028980D01*
X13554871Y-16000408D01*
X13564395Y-15990885D01*
X13631061Y-16038504D02*
X13640585Y-16028980D01*
X13659633Y-16019456D01*
X13707252Y-16019456D01*
X13726299Y-16028980D01*
X13735823Y-16038504D01*
X13745347Y-16057551D01*
X13745347Y-16076599D01*
X13735823Y-16105170D01*
X13621538Y-16219456D01*
X13745347Y-16219456D01*
X13859633Y-16105170D02*
X13840585Y-16095647D01*
X13831061Y-16086123D01*
X13821538Y-16067075D01*
X13821538Y-16057551D01*
X13831061Y-16038504D01*
X13840585Y-16028980D01*
X13859633Y-16019456D01*
X13897728Y-16019456D01*
X13916776Y-16028980D01*
X13926299Y-16038504D01*
X13935823Y-16057551D01*
X13935823Y-16067075D01*
X13926299Y-16086123D01*
X13916776Y-16095647D01*
X13897728Y-16105170D01*
X13859633Y-16105170D01*
X13840585Y-16114694D01*
X13831061Y-16124218D01*
X13821538Y-16143266D01*
X13821538Y-16181361D01*
X13831061Y-16200408D01*
X13840585Y-16209932D01*
X13859633Y-16219456D01*
X13897728Y-16219456D01*
X13916776Y-16209932D01*
X13926299Y-16200408D01*
X13935823Y-16181361D01*
X13935823Y-16143266D01*
X13926299Y-16124218D01*
X13916776Y-16114694D01*
X13897728Y-16105170D01*
X14173918Y-16219456D02*
X14173918Y-16019456D01*
X14259633Y-16219456D02*
X14259633Y-16114694D01*
X14250109Y-16095647D01*
X14231061Y-16086123D01*
X14202490Y-16086123D01*
X14183442Y-16095647D01*
X14173918Y-16105170D01*
X14383442Y-16219456D02*
X14364395Y-16209932D01*
X14354871Y-16200408D01*
X14345347Y-16181361D01*
X14345347Y-16124218D01*
X14354871Y-16105170D01*
X14364395Y-16095647D01*
X14383442Y-16086123D01*
X14412014Y-16086123D01*
X14431061Y-16095647D01*
X14440585Y-16105170D01*
X14450109Y-16124218D01*
X14450109Y-16181361D01*
X14440585Y-16200408D01*
X14431061Y-16209932D01*
X14412014Y-16219456D01*
X14383442Y-16219456D01*
X14564395Y-16219456D02*
X14545347Y-16209932D01*
X14535823Y-16190885D01*
X14535823Y-16019456D01*
X14716776Y-16209932D02*
X14697728Y-16219456D01*
X14659633Y-16219456D01*
X14640585Y-16209932D01*
X14631061Y-16190885D01*
X14631061Y-16114694D01*
X14640585Y-16095647D01*
X14659633Y-16086123D01*
X14697728Y-16086123D01*
X14716776Y-16095647D01*
X14726299Y-16114694D01*
X14726299Y-16133742D01*
X14631061Y-16152789D01*
X14802490Y-16209932D02*
X14821538Y-16219456D01*
X14859633Y-16219456D01*
X14878680Y-16209932D01*
X14888204Y-16190885D01*
X14888204Y-16181361D01*
X14878680Y-16162313D01*
X14859633Y-16152789D01*
X14831061Y-16152789D01*
X14812014Y-16143266D01*
X14802490Y-16124218D01*
X14802490Y-16114694D01*
X14812014Y-16095647D01*
X14831061Y-16086123D01*
X14859633Y-16086123D01*
X14878680Y-16095647D01*
X14954871Y-16295647D02*
X14964395Y-16286123D01*
X14983442Y-16257551D01*
X14992966Y-16238504D01*
X15002490Y-16209932D01*
X15012014Y-16162313D01*
X15012014Y-16124218D01*
X15002490Y-16076599D01*
X14992966Y-16048028D01*
X14983442Y-16028980D01*
X14964395Y-16000408D01*
X14954871Y-15990885D01*
D17*
X9842490Y-16317980D02*
X9992490Y-16467980D01*
X9992490Y-16317980D02*
X9842490Y-16467980D01*
X9992490Y-16392980D02*
G75*
G03*
X9992490Y-16392980I-75000J0D01*
G01*
D11*
X10354871Y-16483456D02*
X10240585Y-16483456D01*
X10297728Y-16483456D02*
X10297728Y-16283456D01*
X10278680Y-16312028D01*
X10259633Y-16331075D01*
X10240585Y-16340599D01*
X10440585Y-16464408D02*
X10450109Y-16473932D01*
X10440585Y-16483456D01*
X10431061Y-16473932D01*
X10440585Y-16464408D01*
X10440585Y-16483456D01*
X10631061Y-16283456D02*
X10535823Y-16283456D01*
X10526300Y-16378694D01*
X10535823Y-16369170D01*
X10554871Y-16359647D01*
X10602490Y-16359647D01*
X10621538Y-16369170D01*
X10631061Y-16378694D01*
X10640585Y-16397742D01*
X10640585Y-16445361D01*
X10631061Y-16464408D01*
X10621538Y-16473932D01*
X10602490Y-16483456D01*
X10554871Y-16483456D01*
X10535823Y-16473932D01*
X10526300Y-16464408D01*
X10764395Y-16283456D02*
X10783442Y-16283456D01*
X10802490Y-16292980D01*
X10812014Y-16302504D01*
X10821538Y-16321551D01*
X10831061Y-16359647D01*
X10831061Y-16407266D01*
X10821538Y-16445361D01*
X10812014Y-16464408D01*
X10802490Y-16473932D01*
X10783442Y-16483456D01*
X10764395Y-16483456D01*
X10745347Y-16473932D01*
X10735823Y-16464408D01*
X10726300Y-16445361D01*
X10716776Y-16407266D01*
X10716776Y-16359647D01*
X10726300Y-16321551D01*
X10735823Y-16302504D01*
X10745347Y-16292980D01*
X10764395Y-16283456D01*
X10954871Y-16283456D02*
X10973919Y-16283456D01*
X10992966Y-16292980D01*
X11002490Y-16302504D01*
X11012014Y-16321551D01*
X11021538Y-16359647D01*
X11021538Y-16407266D01*
X11012014Y-16445361D01*
X11002490Y-16464408D01*
X10992966Y-16473932D01*
X10973919Y-16483456D01*
X10954871Y-16483456D01*
X10935823Y-16473932D01*
X10926300Y-16464408D01*
X10916776Y-16445361D01*
X10907252Y-16407266D01*
X10907252Y-16359647D01*
X10916776Y-16321551D01*
X10926300Y-16302504D01*
X10935823Y-16292980D01*
X10954871Y-16283456D01*
X11107252Y-16483456D02*
X11107252Y-16350123D01*
X11107252Y-16369170D02*
X11116776Y-16359647D01*
X11135823Y-16350123D01*
X11164395Y-16350123D01*
X11183442Y-16359647D01*
X11192966Y-16378694D01*
X11192966Y-16483456D01*
X11192966Y-16378694D02*
X11202490Y-16359647D01*
X11221538Y-16350123D01*
X11250109Y-16350123D01*
X11269157Y-16359647D01*
X11278680Y-16378694D01*
X11278680Y-16483456D01*
X11373918Y-16483456D02*
X11373918Y-16350123D01*
X11373918Y-16369170D02*
X11383442Y-16359647D01*
X11402490Y-16350123D01*
X11431061Y-16350123D01*
X11450109Y-16359647D01*
X11459633Y-16378694D01*
X11459633Y-16483456D01*
X11459633Y-16378694D02*
X11469157Y-16359647D01*
X11488204Y-16350123D01*
X11516776Y-16350123D01*
X11535823Y-16359647D01*
X11545347Y-16378694D01*
X11545347Y-16483456D01*
X11935823Y-16273932D02*
X11764395Y-16531075D01*
X12192966Y-16283456D02*
X12212014Y-16283456D01*
X12231061Y-16292980D01*
X12240585Y-16302504D01*
X12250109Y-16321551D01*
X12259633Y-16359647D01*
X12259633Y-16407266D01*
X12250109Y-16445361D01*
X12240585Y-16464408D01*
X12231061Y-16473932D01*
X12212014Y-16483456D01*
X12192966Y-16483456D01*
X12173918Y-16473932D01*
X12164395Y-16464408D01*
X12154871Y-16445361D01*
X12145347Y-16407266D01*
X12145347Y-16359647D01*
X12154871Y-16321551D01*
X12164395Y-16302504D01*
X12173918Y-16292980D01*
X12192966Y-16283456D01*
X12345347Y-16464408D02*
X12354871Y-16473932D01*
X12345347Y-16483456D01*
X12335823Y-16473932D01*
X12345347Y-16464408D01*
X12345347Y-16483456D01*
X12478680Y-16283456D02*
X12497728Y-16283456D01*
X12516776Y-16292980D01*
X12526299Y-16302504D01*
X12535823Y-16321551D01*
X12545347Y-16359647D01*
X12545347Y-16407266D01*
X12535823Y-16445361D01*
X12526299Y-16464408D01*
X12516776Y-16473932D01*
X12497728Y-16483456D01*
X12478680Y-16483456D01*
X12459633Y-16473932D01*
X12450109Y-16464408D01*
X12440585Y-16445361D01*
X12431061Y-16407266D01*
X12431061Y-16359647D01*
X12440585Y-16321551D01*
X12450109Y-16302504D01*
X12459633Y-16292980D01*
X12478680Y-16283456D01*
X12726299Y-16283456D02*
X12631061Y-16283456D01*
X12621538Y-16378694D01*
X12631061Y-16369170D01*
X12650109Y-16359647D01*
X12697728Y-16359647D01*
X12716776Y-16369170D01*
X12726299Y-16378694D01*
X12735823Y-16397742D01*
X12735823Y-16445361D01*
X12726299Y-16464408D01*
X12716776Y-16473932D01*
X12697728Y-16483456D01*
X12650109Y-16483456D01*
X12631061Y-16473932D01*
X12621538Y-16464408D01*
X12831061Y-16483456D02*
X12869157Y-16483456D01*
X12888204Y-16473932D01*
X12897728Y-16464408D01*
X12916776Y-16435837D01*
X12926299Y-16397742D01*
X12926299Y-16321551D01*
X12916776Y-16302504D01*
X12907252Y-16292980D01*
X12888204Y-16283456D01*
X12850109Y-16283456D01*
X12831061Y-16292980D01*
X12821538Y-16302504D01*
X12812014Y-16321551D01*
X12812014Y-16369170D01*
X12821538Y-16388218D01*
X12831061Y-16397742D01*
X12850109Y-16407266D01*
X12888204Y-16407266D01*
X12907252Y-16397742D01*
X12916776Y-16388218D01*
X12926299Y-16369170D01*
X13116776Y-16483456D02*
X13002490Y-16483456D01*
X13059633Y-16483456D02*
X13059633Y-16283456D01*
X13040585Y-16312028D01*
X13021538Y-16331075D01*
X13002490Y-16340599D01*
X13192966Y-16283456D02*
X13192966Y-16321551D01*
X13269157Y-16283456D02*
X13269157Y-16321551D01*
X13564395Y-16559647D02*
X13554871Y-16550123D01*
X13535823Y-16521551D01*
X13526299Y-16502504D01*
X13516776Y-16473932D01*
X13507252Y-16426313D01*
X13507252Y-16388218D01*
X13516776Y-16340599D01*
X13526299Y-16312028D01*
X13535823Y-16292980D01*
X13554871Y-16264408D01*
X13564395Y-16254885D01*
X13678680Y-16283456D02*
X13697728Y-16283456D01*
X13716776Y-16292980D01*
X13726299Y-16302504D01*
X13735823Y-16321551D01*
X13745347Y-16359647D01*
X13745347Y-16407266D01*
X13735823Y-16445361D01*
X13726299Y-16464408D01*
X13716776Y-16473932D01*
X13697728Y-16483456D01*
X13678680Y-16483456D01*
X13659633Y-16473932D01*
X13650109Y-16464408D01*
X13640585Y-16445361D01*
X13631061Y-16407266D01*
X13631061Y-16359647D01*
X13640585Y-16321551D01*
X13650109Y-16302504D01*
X13659633Y-16292980D01*
X13678680Y-16283456D01*
X13983442Y-16483456D02*
X13983442Y-16283456D01*
X14069157Y-16483456D02*
X14069157Y-16378694D01*
X14059633Y-16359647D01*
X14040585Y-16350123D01*
X14012014Y-16350123D01*
X13992966Y-16359647D01*
X13983442Y-16369170D01*
X14192966Y-16483456D02*
X14173918Y-16473932D01*
X14164395Y-16464408D01*
X14154871Y-16445361D01*
X14154871Y-16388218D01*
X14164395Y-16369170D01*
X14173918Y-16359647D01*
X14192966Y-16350123D01*
X14221538Y-16350123D01*
X14240585Y-16359647D01*
X14250109Y-16369170D01*
X14259633Y-16388218D01*
X14259633Y-16445361D01*
X14250109Y-16464408D01*
X14240585Y-16473932D01*
X14221538Y-16483456D01*
X14192966Y-16483456D01*
X14373918Y-16483456D02*
X14354871Y-16473932D01*
X14345347Y-16454885D01*
X14345347Y-16283456D01*
X14526299Y-16473932D02*
X14507252Y-16483456D01*
X14469157Y-16483456D01*
X14450109Y-16473932D01*
X14440585Y-16454885D01*
X14440585Y-16378694D01*
X14450109Y-16359647D01*
X14469157Y-16350123D01*
X14507252Y-16350123D01*
X14526299Y-16359647D01*
X14535823Y-16378694D01*
X14535823Y-16397742D01*
X14440585Y-16416789D01*
X14612014Y-16473932D02*
X14631061Y-16483456D01*
X14669157Y-16483456D01*
X14688204Y-16473932D01*
X14697728Y-16454885D01*
X14697728Y-16445361D01*
X14688204Y-16426313D01*
X14669157Y-16416789D01*
X14640585Y-16416789D01*
X14621538Y-16407266D01*
X14612014Y-16388218D01*
X14612014Y-16378694D01*
X14621538Y-16359647D01*
X14640585Y-16350123D01*
X14669157Y-16350123D01*
X14688204Y-16359647D01*
X14935823Y-16407266D02*
X15088204Y-16407266D01*
X15012014Y-16483456D02*
X15012014Y-16331075D01*
X15326299Y-16302504D02*
X15335823Y-16292980D01*
X15354871Y-16283456D01*
X15402490Y-16283456D01*
X15421538Y-16292980D01*
X15431061Y-16302504D01*
X15440585Y-16321551D01*
X15440585Y-16340599D01*
X15431061Y-16369170D01*
X15316776Y-16483456D01*
X15440585Y-16483456D01*
X15669157Y-16473932D02*
X15688204Y-16483456D01*
X15726299Y-16483456D01*
X15745347Y-16473932D01*
X15754871Y-16454885D01*
X15754871Y-16445361D01*
X15745347Y-16426313D01*
X15726299Y-16416789D01*
X15697728Y-16416789D01*
X15678680Y-16407266D01*
X15669157Y-16388218D01*
X15669157Y-16378694D01*
X15678680Y-16359647D01*
X15697728Y-16350123D01*
X15726299Y-16350123D01*
X15745347Y-16359647D01*
X15869157Y-16483456D02*
X15850109Y-16473932D01*
X15840585Y-16454885D01*
X15840585Y-16283456D01*
X15973918Y-16483456D02*
X15954871Y-16473932D01*
X15945347Y-16464408D01*
X15935823Y-16445361D01*
X15935823Y-16388218D01*
X15945347Y-16369170D01*
X15954871Y-16359647D01*
X15973918Y-16350123D01*
X16002490Y-16350123D01*
X16021538Y-16359647D01*
X16031061Y-16369170D01*
X16040585Y-16388218D01*
X16040585Y-16445361D01*
X16031061Y-16464408D01*
X16021538Y-16473932D01*
X16002490Y-16483456D01*
X15973918Y-16483456D01*
X16097728Y-16350123D02*
X16173918Y-16350123D01*
X16126299Y-16283456D02*
X16126299Y-16454885D01*
X16135823Y-16473932D01*
X16154871Y-16483456D01*
X16173918Y-16483456D01*
X16231061Y-16473932D02*
X16250109Y-16483456D01*
X16288204Y-16483456D01*
X16307252Y-16473932D01*
X16316776Y-16454885D01*
X16316776Y-16445361D01*
X16307252Y-16426313D01*
X16288204Y-16416789D01*
X16259633Y-16416789D01*
X16240585Y-16407266D01*
X16231061Y-16388218D01*
X16231061Y-16378694D01*
X16240585Y-16359647D01*
X16259633Y-16350123D01*
X16288204Y-16350123D01*
X16307252Y-16359647D01*
X16383442Y-16559647D02*
X16392966Y-16550123D01*
X16412014Y-16521551D01*
X16421538Y-16502504D01*
X16431061Y-16473932D01*
X16440585Y-16426313D01*
X16440585Y-16388218D01*
X16431061Y-16340599D01*
X16421538Y-16312028D01*
X16412014Y-16292980D01*
X16392966Y-16264408D01*
X16383442Y-16254885D01*
X9792490Y-16562980D02*
X9992490Y-16762980D01*
X9992490Y-16562980D02*
X9792490Y-16762980D01*
X9892490Y-16562980D02*
X9892490Y-16762980D01*
X9792490Y-16662980D02*
X9992490Y-16662980D01*
X10231061Y-16553456D02*
X10354871Y-16553456D01*
X10288204Y-16629647D01*
X10316776Y-16629647D01*
X10335823Y-16639170D01*
X10345347Y-16648694D01*
X10354871Y-16667742D01*
X10354871Y-16715361D01*
X10345347Y-16734408D01*
X10335823Y-16743932D01*
X10316776Y-16753456D01*
X10259633Y-16753456D01*
X10240585Y-16743932D01*
X10231061Y-16734408D01*
X10440585Y-16734408D02*
X10450109Y-16743932D01*
X10440585Y-16753456D01*
X10431061Y-16743932D01*
X10440585Y-16734408D01*
X10440585Y-16753456D01*
X10573919Y-16553456D02*
X10592966Y-16553456D01*
X10612014Y-16562980D01*
X10621538Y-16572504D01*
X10631061Y-16591551D01*
X10640585Y-16629647D01*
X10640585Y-16677266D01*
X10631061Y-16715361D01*
X10621538Y-16734408D01*
X10612014Y-16743932D01*
X10592966Y-16753456D01*
X10573919Y-16753456D01*
X10554871Y-16743932D01*
X10545347Y-16734408D01*
X10535823Y-16715361D01*
X10526300Y-16677266D01*
X10526300Y-16629647D01*
X10535823Y-16591551D01*
X10545347Y-16572504D01*
X10554871Y-16562980D01*
X10573919Y-16553456D01*
X10821538Y-16553456D02*
X10726300Y-16553456D01*
X10716776Y-16648694D01*
X10726300Y-16639170D01*
X10745347Y-16629647D01*
X10792966Y-16629647D01*
X10812014Y-16639170D01*
X10821538Y-16648694D01*
X10831061Y-16667742D01*
X10831061Y-16715361D01*
X10821538Y-16734408D01*
X10812014Y-16743932D01*
X10792966Y-16753456D01*
X10745347Y-16753456D01*
X10726300Y-16743932D01*
X10716776Y-16734408D01*
X10954871Y-16553456D02*
X10973919Y-16553456D01*
X10992966Y-16562980D01*
X11002490Y-16572504D01*
X11012014Y-16591551D01*
X11021538Y-16629647D01*
X11021538Y-16677266D01*
X11012014Y-16715361D01*
X11002490Y-16734408D01*
X10992966Y-16743932D01*
X10973919Y-16753456D01*
X10954871Y-16753456D01*
X10935823Y-16743932D01*
X10926300Y-16734408D01*
X10916776Y-16715361D01*
X10907252Y-16677266D01*
X10907252Y-16629647D01*
X10916776Y-16591551D01*
X10926300Y-16572504D01*
X10935823Y-16562980D01*
X10954871Y-16553456D01*
X11107252Y-16753456D02*
X11107252Y-16620123D01*
X11107252Y-16639170D02*
X11116776Y-16629647D01*
X11135823Y-16620123D01*
X11164395Y-16620123D01*
X11183442Y-16629647D01*
X11192966Y-16648694D01*
X11192966Y-16753456D01*
X11192966Y-16648694D02*
X11202490Y-16629647D01*
X11221538Y-16620123D01*
X11250109Y-16620123D01*
X11269157Y-16629647D01*
X11278680Y-16648694D01*
X11278680Y-16753456D01*
X11373918Y-16753456D02*
X11373918Y-16620123D01*
X11373918Y-16639170D02*
X11383442Y-16629647D01*
X11402490Y-16620123D01*
X11431061Y-16620123D01*
X11450109Y-16629647D01*
X11459633Y-16648694D01*
X11459633Y-16753456D01*
X11459633Y-16648694D02*
X11469157Y-16629647D01*
X11488204Y-16620123D01*
X11516776Y-16620123D01*
X11535823Y-16629647D01*
X11545347Y-16648694D01*
X11545347Y-16753456D01*
X11935823Y-16543932D02*
X11764395Y-16801075D01*
X12192966Y-16553456D02*
X12212014Y-16553456D01*
X12231061Y-16562980D01*
X12240585Y-16572504D01*
X12250109Y-16591551D01*
X12259633Y-16629647D01*
X12259633Y-16677266D01*
X12250109Y-16715361D01*
X12240585Y-16734408D01*
X12231061Y-16743932D01*
X12212014Y-16753456D01*
X12192966Y-16753456D01*
X12173918Y-16743932D01*
X12164395Y-16734408D01*
X12154871Y-16715361D01*
X12145347Y-16677266D01*
X12145347Y-16629647D01*
X12154871Y-16591551D01*
X12164395Y-16572504D01*
X12173918Y-16562980D01*
X12192966Y-16553456D01*
X12345347Y-16734408D02*
X12354871Y-16743932D01*
X12345347Y-16753456D01*
X12335823Y-16743932D01*
X12345347Y-16734408D01*
X12345347Y-16753456D01*
X12545347Y-16753456D02*
X12431061Y-16753456D01*
X12488204Y-16753456D02*
X12488204Y-16553456D01*
X12469157Y-16582028D01*
X12450109Y-16601075D01*
X12431061Y-16610599D01*
X12621538Y-16572504D02*
X12631061Y-16562980D01*
X12650109Y-16553456D01*
X12697728Y-16553456D01*
X12716776Y-16562980D01*
X12726299Y-16572504D01*
X12735823Y-16591551D01*
X12735823Y-16610599D01*
X12726299Y-16639170D01*
X12612014Y-16753456D01*
X12735823Y-16753456D01*
X12859633Y-16553456D02*
X12878680Y-16553456D01*
X12897728Y-16562980D01*
X12907252Y-16572504D01*
X12916776Y-16591551D01*
X12926299Y-16629647D01*
X12926299Y-16677266D01*
X12916776Y-16715361D01*
X12907252Y-16734408D01*
X12897728Y-16743932D01*
X12878680Y-16753456D01*
X12859633Y-16753456D01*
X12840585Y-16743932D01*
X12831061Y-16734408D01*
X12821538Y-16715361D01*
X12812014Y-16677266D01*
X12812014Y-16629647D01*
X12821538Y-16591551D01*
X12831061Y-16572504D01*
X12840585Y-16562980D01*
X12859633Y-16553456D01*
X13116776Y-16753456D02*
X13002490Y-16753456D01*
X13059633Y-16753456D02*
X13059633Y-16553456D01*
X13040585Y-16582028D01*
X13021538Y-16601075D01*
X13002490Y-16610599D01*
X13192966Y-16553456D02*
X13192966Y-16591551D01*
X13269157Y-16553456D02*
X13269157Y-16591551D01*
X13564395Y-16829647D02*
X13554871Y-16820123D01*
X13535823Y-16791551D01*
X13526299Y-16772504D01*
X13516776Y-16743932D01*
X13507252Y-16696313D01*
X13507252Y-16658218D01*
X13516776Y-16610599D01*
X13526299Y-16582028D01*
X13535823Y-16562980D01*
X13554871Y-16534408D01*
X13564395Y-16524885D01*
X13621538Y-16553456D02*
X13745347Y-16553456D01*
X13678680Y-16629647D01*
X13707252Y-16629647D01*
X13726299Y-16639170D01*
X13735823Y-16648694D01*
X13745347Y-16667742D01*
X13745347Y-16715361D01*
X13735823Y-16734408D01*
X13726299Y-16743932D01*
X13707252Y-16753456D01*
X13650109Y-16753456D01*
X13631061Y-16743932D01*
X13621538Y-16734408D01*
X13821538Y-16572504D02*
X13831061Y-16562980D01*
X13850109Y-16553456D01*
X13897728Y-16553456D01*
X13916776Y-16562980D01*
X13926299Y-16572504D01*
X13935823Y-16591551D01*
X13935823Y-16610599D01*
X13926299Y-16639170D01*
X13812014Y-16753456D01*
X13935823Y-16753456D01*
X14173918Y-16753456D02*
X14173918Y-16553456D01*
X14259633Y-16753456D02*
X14259633Y-16648694D01*
X14250109Y-16629647D01*
X14231061Y-16620123D01*
X14202490Y-16620123D01*
X14183442Y-16629647D01*
X14173918Y-16639170D01*
X14383442Y-16753456D02*
X14364395Y-16743932D01*
X14354871Y-16734408D01*
X14345347Y-16715361D01*
X14345347Y-16658218D01*
X14354871Y-16639170D01*
X14364395Y-16629647D01*
X14383442Y-16620123D01*
X14412014Y-16620123D01*
X14431061Y-16629647D01*
X14440585Y-16639170D01*
X14450109Y-16658218D01*
X14450109Y-16715361D01*
X14440585Y-16734408D01*
X14431061Y-16743932D01*
X14412014Y-16753456D01*
X14383442Y-16753456D01*
X14564395Y-16753456D02*
X14545347Y-16743932D01*
X14535823Y-16724885D01*
X14535823Y-16553456D01*
X14716776Y-16743932D02*
X14697728Y-16753456D01*
X14659633Y-16753456D01*
X14640585Y-16743932D01*
X14631061Y-16724885D01*
X14631061Y-16648694D01*
X14640585Y-16629647D01*
X14659633Y-16620123D01*
X14697728Y-16620123D01*
X14716776Y-16629647D01*
X14726299Y-16648694D01*
X14726299Y-16667742D01*
X14631061Y-16686789D01*
X14802490Y-16743932D02*
X14821538Y-16753456D01*
X14859633Y-16753456D01*
X14878680Y-16743932D01*
X14888204Y-16724885D01*
X14888204Y-16715361D01*
X14878680Y-16696313D01*
X14859633Y-16686789D01*
X14831061Y-16686789D01*
X14812014Y-16677266D01*
X14802490Y-16658218D01*
X14802490Y-16648694D01*
X14812014Y-16629647D01*
X14831061Y-16620123D01*
X14859633Y-16620123D01*
X14878680Y-16629647D01*
X14954871Y-16829647D02*
X14964395Y-16820123D01*
X14983442Y-16791551D01*
X14992966Y-16772504D01*
X15002490Y-16743932D01*
X15012014Y-16696313D01*
X15012014Y-16658218D01*
X15002490Y-16610599D01*
X14992966Y-16582028D01*
X14983442Y-16562980D01*
X14964395Y-16534408D01*
X14954871Y-16524885D01*
M02*
