M48
; DRILL file {KiCad (6.0.1)} date Wed Feb  9 09:53:42 2022
; FORMAT={-:-/ absolute / metric / decimal}
; #@! TF.CreationDate,2022-02-09T09:53:42+01:00
; #@! TF.GenerationSoftware,Kicad,Pcbnew,(6.0.1)
; #@! TF.FileFunction,NonPlated,1,2,NPTH
FMAT,2
METRIC
; #@! TA.AperFunction,NonPlated,NPTH,ComponentDrill
T1C1.700
; #@! TA.AperFunction,NonPlated,NPTH,ComponentDrill
T2C2.100
; #@! TA.AperFunction,NonPlated,NPTH,ComponentDrill
T3C4.100
%
G90
G05
T1
X124.921Y-76.254
X124.921Y-95.304
X124.921Y-114.354
X124.921Y-133.407
X135.081Y-76.254
X135.081Y-95.304
X135.081Y-114.354
X135.081Y-133.407
X143.971Y-76.254
X143.971Y-95.304
X143.971Y-114.354
X143.971Y-133.404
X154.131Y-76.254
X154.131Y-95.304
X154.131Y-114.354
X154.131Y-133.404
X163.021Y-76.254
X163.021Y-95.304
X163.021Y-114.354
X163.021Y-133.404
X173.181Y-76.254
X173.181Y-95.304
X173.181Y-114.354
X173.181Y-133.404
X182.071Y-76.254
X182.071Y-95.304
X182.071Y-114.354
X182.071Y-133.407
X192.231Y-76.254
X192.231Y-95.304
X192.231Y-114.354
X192.231Y-133.407
T2
X138.576Y-84.829
X138.576Y-124.829
X178.576Y-84.829
X178.576Y-124.829
T3
X130.001Y-76.254
X130.001Y-95.304
X130.001Y-114.354
X130.001Y-133.407
X149.051Y-76.254
X149.051Y-95.304
X149.051Y-114.354
X149.051Y-133.404
X168.101Y-76.254
X168.101Y-95.304
X168.101Y-114.354
X168.101Y-133.404
X187.151Y-76.254
X187.151Y-95.304
X187.151Y-114.354
X187.151Y-133.407
T0
M30
