%TF.GenerationSoftware,KiCad,Pcbnew,8.0.4*%
%TF.CreationDate,2024-08-05T16:40:16-07:00*%
%TF.ProjectId,dumbpad.pcb,64756d62-7061-4642-9e70-63622e6b6963,rev?*%
%TF.SameCoordinates,Original*%
%TF.FileFunction,Legend,Top*%
%TF.FilePolarity,Positive*%
%FSLAX46Y46*%
G04 Gerber Fmt 4.6, Leading zero omitted, Abs format (unit mm)*
G04 Created by KiCad (PCBNEW 8.0.4) date 2024-08-05 16:40:16*
%MOMM*%
%LPD*%
G01*
G04 APERTURE LIST*
%ADD10C,0.152400*%
%ADD11C,0.112500*%
%ADD12C,0.262500*%
%ADD13C,0.150000*%
%ADD14C,0.203200*%
%ADD15C,0.120000*%
%ADD16C,0.254000*%
%ADD17C,0.381000*%
%ADD18C,2.006600*%
%ADD19C,2.100000*%
%ADD20R,2.000000X2.000000*%
%ADD21C,2.000000*%
%ADD22R,2.000000X3.200000*%
%ADD23C,1.700000*%
%ADD24C,4.100000*%
%ADD25C,3.600000*%
%ADD26C,1.477000*%
G04 APERTURE END LIST*
D10*
X119051100Y-68253600D02*
X119051100Y-101753600D01*
X106051100Y-66753600D02*
X114051100Y-66753600D01*
X106051100Y-68253600D02*
X106051100Y-66753600D01*
X114051100Y-66753600D02*
X114051100Y-68253600D01*
X114051100Y-68253600D02*
X119051100Y-68253600D01*
X101051100Y-68253600D02*
X106051100Y-68253600D01*
X101051100Y-101753600D02*
X101051100Y-68253600D01*
X119051100Y-101753600D02*
X101051100Y-101753600D01*
X106051100Y-68253600D02*
X114051100Y-68253600D01*
D11*
X104276898Y-87572670D02*
X104276898Y-86935170D01*
X104276898Y-86935170D02*
X104428684Y-86935170D01*
X104428684Y-86935170D02*
X104519755Y-86965527D01*
X104519755Y-86965527D02*
X104580470Y-87026241D01*
X104580470Y-87026241D02*
X104610827Y-87086955D01*
X104610827Y-87086955D02*
X104641184Y-87208384D01*
X104641184Y-87208384D02*
X104641184Y-87299455D01*
X104641184Y-87299455D02*
X104610827Y-87420884D01*
X104610827Y-87420884D02*
X104580470Y-87481598D01*
X104580470Y-87481598D02*
X104519755Y-87542313D01*
X104519755Y-87542313D02*
X104428684Y-87572670D01*
X104428684Y-87572670D02*
X104276898Y-87572670D01*
X105187613Y-87147670D02*
X105187613Y-87572670D01*
X105035827Y-86904813D02*
X104884041Y-87360170D01*
X104884041Y-87360170D02*
X105278684Y-87360170D01*
X115187800Y-89778741D02*
X114975300Y-89778741D01*
X114975300Y-90112670D02*
X114975300Y-89475170D01*
X114975300Y-89475170D02*
X115278872Y-89475170D01*
X115461015Y-89475170D02*
X115886015Y-89475170D01*
X115886015Y-89475170D02*
X115612801Y-90112670D01*
X104489398Y-99938741D02*
X104580470Y-99969098D01*
X104580470Y-99969098D02*
X104610827Y-99999455D01*
X104610827Y-99999455D02*
X104641184Y-100060170D01*
X104641184Y-100060170D02*
X104641184Y-100151241D01*
X104641184Y-100151241D02*
X104610827Y-100211955D01*
X104610827Y-100211955D02*
X104580470Y-100242313D01*
X104580470Y-100242313D02*
X104519755Y-100272670D01*
X104519755Y-100272670D02*
X104276898Y-100272670D01*
X104276898Y-100272670D02*
X104276898Y-99635170D01*
X104276898Y-99635170D02*
X104489398Y-99635170D01*
X104489398Y-99635170D02*
X104550113Y-99665527D01*
X104550113Y-99665527D02*
X104580470Y-99695884D01*
X104580470Y-99695884D02*
X104610827Y-99756598D01*
X104610827Y-99756598D02*
X104610827Y-99817313D01*
X104610827Y-99817313D02*
X104580470Y-99878027D01*
X104580470Y-99878027D02*
X104550113Y-99908384D01*
X104550113Y-99908384D02*
X104489398Y-99938741D01*
X104489398Y-99938741D02*
X104276898Y-99938741D01*
X105217970Y-99635170D02*
X104914398Y-99635170D01*
X104914398Y-99635170D02*
X104884041Y-99938741D01*
X104884041Y-99938741D02*
X104914398Y-99908384D01*
X104914398Y-99908384D02*
X104975113Y-99878027D01*
X104975113Y-99878027D02*
X105126898Y-99878027D01*
X105126898Y-99878027D02*
X105187613Y-99908384D01*
X105187613Y-99908384D02*
X105217970Y-99938741D01*
X105217970Y-99938741D02*
X105248327Y-99999455D01*
X105248327Y-99999455D02*
X105248327Y-100151241D01*
X105248327Y-100151241D02*
X105217970Y-100211955D01*
X105217970Y-100211955D02*
X105187613Y-100242313D01*
X105187613Y-100242313D02*
X105126898Y-100272670D01*
X105126898Y-100272670D02*
X104975113Y-100272670D01*
X104975113Y-100272670D02*
X104914398Y-100242313D01*
X104914398Y-100242313D02*
X104884041Y-100211955D01*
X104276898Y-92652670D02*
X104276898Y-92015170D01*
X104276898Y-92015170D02*
X104428684Y-92015170D01*
X104428684Y-92015170D02*
X104519755Y-92045527D01*
X104519755Y-92045527D02*
X104580470Y-92106241D01*
X104580470Y-92106241D02*
X104610827Y-92166955D01*
X104610827Y-92166955D02*
X104641184Y-92288384D01*
X104641184Y-92288384D02*
X104641184Y-92379455D01*
X104641184Y-92379455D02*
X104610827Y-92500884D01*
X104610827Y-92500884D02*
X104580470Y-92561598D01*
X104580470Y-92561598D02*
X104519755Y-92622313D01*
X104519755Y-92622313D02*
X104428684Y-92652670D01*
X104428684Y-92652670D02*
X104276898Y-92652670D01*
X104853684Y-92015170D02*
X105278684Y-92015170D01*
X105278684Y-92015170D02*
X105005470Y-92652670D01*
X115096729Y-92318741D02*
X115187801Y-92349098D01*
X115187801Y-92349098D02*
X115218158Y-92379455D01*
X115218158Y-92379455D02*
X115248515Y-92440170D01*
X115248515Y-92440170D02*
X115248515Y-92531241D01*
X115248515Y-92531241D02*
X115218158Y-92591955D01*
X115218158Y-92591955D02*
X115187801Y-92622313D01*
X115187801Y-92622313D02*
X115127086Y-92652670D01*
X115127086Y-92652670D02*
X114884229Y-92652670D01*
X114884229Y-92652670D02*
X114884229Y-92015170D01*
X114884229Y-92015170D02*
X115096729Y-92015170D01*
X115096729Y-92015170D02*
X115157444Y-92045527D01*
X115157444Y-92045527D02*
X115187801Y-92075884D01*
X115187801Y-92075884D02*
X115218158Y-92136598D01*
X115218158Y-92136598D02*
X115218158Y-92197313D01*
X115218158Y-92197313D02*
X115187801Y-92258027D01*
X115187801Y-92258027D02*
X115157444Y-92288384D01*
X115157444Y-92288384D02*
X115096729Y-92318741D01*
X115096729Y-92318741D02*
X114884229Y-92318741D01*
X115855658Y-92652670D02*
X115491372Y-92652670D01*
X115673515Y-92652670D02*
X115673515Y-92015170D01*
X115673515Y-92015170D02*
X115612801Y-92106241D01*
X115612801Y-92106241D02*
X115552086Y-92166955D01*
X115552086Y-92166955D02*
X115491372Y-92197313D01*
X115096729Y-97398741D02*
X115187801Y-97429098D01*
X115187801Y-97429098D02*
X115218158Y-97459455D01*
X115218158Y-97459455D02*
X115248515Y-97520170D01*
X115248515Y-97520170D02*
X115248515Y-97611241D01*
X115248515Y-97611241D02*
X115218158Y-97671955D01*
X115218158Y-97671955D02*
X115187801Y-97702313D01*
X115187801Y-97702313D02*
X115127086Y-97732670D01*
X115127086Y-97732670D02*
X114884229Y-97732670D01*
X114884229Y-97732670D02*
X114884229Y-97095170D01*
X114884229Y-97095170D02*
X115096729Y-97095170D01*
X115096729Y-97095170D02*
X115157444Y-97125527D01*
X115157444Y-97125527D02*
X115187801Y-97155884D01*
X115187801Y-97155884D02*
X115218158Y-97216598D01*
X115218158Y-97216598D02*
X115218158Y-97277313D01*
X115218158Y-97277313D02*
X115187801Y-97338027D01*
X115187801Y-97338027D02*
X115157444Y-97368384D01*
X115157444Y-97368384D02*
X115096729Y-97398741D01*
X115096729Y-97398741D02*
X114884229Y-97398741D01*
X115491372Y-97155884D02*
X115521729Y-97125527D01*
X115521729Y-97125527D02*
X115582444Y-97095170D01*
X115582444Y-97095170D02*
X115734229Y-97095170D01*
X115734229Y-97095170D02*
X115794944Y-97125527D01*
X115794944Y-97125527D02*
X115825301Y-97155884D01*
X115825301Y-97155884D02*
X115855658Y-97216598D01*
X115855658Y-97216598D02*
X115855658Y-97277313D01*
X115855658Y-97277313D02*
X115825301Y-97368384D01*
X115825301Y-97368384D02*
X115461015Y-97732670D01*
X115461015Y-97732670D02*
X115855658Y-97732670D01*
X104641184Y-90051955D02*
X104610827Y-90082313D01*
X104610827Y-90082313D02*
X104519755Y-90112670D01*
X104519755Y-90112670D02*
X104459041Y-90112670D01*
X104459041Y-90112670D02*
X104367970Y-90082313D01*
X104367970Y-90082313D02*
X104307255Y-90021598D01*
X104307255Y-90021598D02*
X104276898Y-89960884D01*
X104276898Y-89960884D02*
X104246541Y-89839455D01*
X104246541Y-89839455D02*
X104246541Y-89748384D01*
X104246541Y-89748384D02*
X104276898Y-89626955D01*
X104276898Y-89626955D02*
X104307255Y-89566241D01*
X104307255Y-89566241D02*
X104367970Y-89505527D01*
X104367970Y-89505527D02*
X104459041Y-89475170D01*
X104459041Y-89475170D02*
X104519755Y-89475170D01*
X104519755Y-89475170D02*
X104610827Y-89505527D01*
X104610827Y-89505527D02*
X104641184Y-89535884D01*
X105187613Y-89475170D02*
X105066184Y-89475170D01*
X105066184Y-89475170D02*
X105005470Y-89505527D01*
X105005470Y-89505527D02*
X104975113Y-89535884D01*
X104975113Y-89535884D02*
X104914398Y-89626955D01*
X104914398Y-89626955D02*
X104884041Y-89748384D01*
X104884041Y-89748384D02*
X104884041Y-89991241D01*
X104884041Y-89991241D02*
X104914398Y-90051955D01*
X104914398Y-90051955D02*
X104944755Y-90082313D01*
X104944755Y-90082313D02*
X105005470Y-90112670D01*
X105005470Y-90112670D02*
X105126898Y-90112670D01*
X105126898Y-90112670D02*
X105187613Y-90082313D01*
X105187613Y-90082313D02*
X105217970Y-90051955D01*
X105217970Y-90051955D02*
X105248327Y-89991241D01*
X105248327Y-89991241D02*
X105248327Y-89839455D01*
X105248327Y-89839455D02*
X105217970Y-89778741D01*
X105217970Y-89778741D02*
X105187613Y-89748384D01*
X105187613Y-89748384D02*
X105126898Y-89718027D01*
X105126898Y-89718027D02*
X105005470Y-89718027D01*
X105005470Y-89718027D02*
X104944755Y-89748384D01*
X104944755Y-89748384D02*
X104914398Y-89778741D01*
X104914398Y-89778741D02*
X104884041Y-89839455D01*
X104489398Y-97398741D02*
X104580470Y-97429098D01*
X104580470Y-97429098D02*
X104610827Y-97459455D01*
X104610827Y-97459455D02*
X104641184Y-97520170D01*
X104641184Y-97520170D02*
X104641184Y-97611241D01*
X104641184Y-97611241D02*
X104610827Y-97671955D01*
X104610827Y-97671955D02*
X104580470Y-97702313D01*
X104580470Y-97702313D02*
X104519755Y-97732670D01*
X104519755Y-97732670D02*
X104276898Y-97732670D01*
X104276898Y-97732670D02*
X104276898Y-97095170D01*
X104276898Y-97095170D02*
X104489398Y-97095170D01*
X104489398Y-97095170D02*
X104550113Y-97125527D01*
X104550113Y-97125527D02*
X104580470Y-97155884D01*
X104580470Y-97155884D02*
X104610827Y-97216598D01*
X104610827Y-97216598D02*
X104610827Y-97277313D01*
X104610827Y-97277313D02*
X104580470Y-97338027D01*
X104580470Y-97338027D02*
X104550113Y-97368384D01*
X104550113Y-97368384D02*
X104489398Y-97398741D01*
X104489398Y-97398741D02*
X104276898Y-97398741D01*
X105187613Y-97307670D02*
X105187613Y-97732670D01*
X105035827Y-97064813D02*
X104884041Y-97520170D01*
X104884041Y-97520170D02*
X105278684Y-97520170D01*
X104276898Y-72332670D02*
X104276898Y-71695170D01*
X104276898Y-71695170D02*
X104428684Y-71695170D01*
X104428684Y-71695170D02*
X104519755Y-71725527D01*
X104519755Y-71725527D02*
X104580470Y-71786241D01*
X104580470Y-71786241D02*
X104610827Y-71846955D01*
X104610827Y-71846955D02*
X104641184Y-71968384D01*
X104641184Y-71968384D02*
X104641184Y-72059455D01*
X104641184Y-72059455D02*
X104610827Y-72180884D01*
X104610827Y-72180884D02*
X104580470Y-72241598D01*
X104580470Y-72241598D02*
X104519755Y-72302313D01*
X104519755Y-72302313D02*
X104428684Y-72332670D01*
X104428684Y-72332670D02*
X104276898Y-72332670D01*
X104853684Y-71695170D02*
X105248327Y-71695170D01*
X105248327Y-71695170D02*
X105035827Y-71938027D01*
X105035827Y-71938027D02*
X105126898Y-71938027D01*
X105126898Y-71938027D02*
X105187613Y-71968384D01*
X105187613Y-71968384D02*
X105217970Y-71998741D01*
X105217970Y-71998741D02*
X105248327Y-72059455D01*
X105248327Y-72059455D02*
X105248327Y-72211241D01*
X105248327Y-72211241D02*
X105217970Y-72271955D01*
X105217970Y-72271955D02*
X105187613Y-72302313D01*
X105187613Y-72302313D02*
X105126898Y-72332670D01*
X105126898Y-72332670D02*
X104944755Y-72332670D01*
X104944755Y-72332670D02*
X104884041Y-72302313D01*
X104884041Y-72302313D02*
X104853684Y-72271955D01*
X114216372Y-79315170D02*
X114428872Y-79952670D01*
X114428872Y-79952670D02*
X114641372Y-79315170D01*
X115218158Y-79891955D02*
X115187801Y-79922313D01*
X115187801Y-79922313D02*
X115096729Y-79952670D01*
X115096729Y-79952670D02*
X115036015Y-79952670D01*
X115036015Y-79952670D02*
X114944944Y-79922313D01*
X114944944Y-79922313D02*
X114884229Y-79861598D01*
X114884229Y-79861598D02*
X114853872Y-79800884D01*
X114853872Y-79800884D02*
X114823515Y-79679455D01*
X114823515Y-79679455D02*
X114823515Y-79588384D01*
X114823515Y-79588384D02*
X114853872Y-79466955D01*
X114853872Y-79466955D02*
X114884229Y-79406241D01*
X114884229Y-79406241D02*
X114944944Y-79345527D01*
X114944944Y-79345527D02*
X115036015Y-79315170D01*
X115036015Y-79315170D02*
X115096729Y-79315170D01*
X115096729Y-79315170D02*
X115187801Y-79345527D01*
X115187801Y-79345527D02*
X115218158Y-79375884D01*
X115855658Y-79891955D02*
X115825301Y-79922313D01*
X115825301Y-79922313D02*
X115734229Y-79952670D01*
X115734229Y-79952670D02*
X115673515Y-79952670D01*
X115673515Y-79952670D02*
X115582444Y-79922313D01*
X115582444Y-79922313D02*
X115521729Y-79861598D01*
X115521729Y-79861598D02*
X115491372Y-79800884D01*
X115491372Y-79800884D02*
X115461015Y-79679455D01*
X115461015Y-79679455D02*
X115461015Y-79588384D01*
X115461015Y-79588384D02*
X115491372Y-79466955D01*
X115491372Y-79466955D02*
X115521729Y-79406241D01*
X115521729Y-79406241D02*
X115582444Y-79345527D01*
X115582444Y-79345527D02*
X115673515Y-79315170D01*
X115673515Y-79315170D02*
X115734229Y-79315170D01*
X115734229Y-79315170D02*
X115825301Y-79345527D01*
X115825301Y-79345527D02*
X115855658Y-79375884D01*
X104276898Y-94858741D02*
X104489398Y-94858741D01*
X104580470Y-95192670D02*
X104276898Y-95192670D01*
X104276898Y-95192670D02*
X104276898Y-94555170D01*
X104276898Y-94555170D02*
X104580470Y-94555170D01*
X105126899Y-94555170D02*
X105005470Y-94555170D01*
X105005470Y-94555170D02*
X104944756Y-94585527D01*
X104944756Y-94585527D02*
X104914399Y-94615884D01*
X104914399Y-94615884D02*
X104853684Y-94706955D01*
X104853684Y-94706955D02*
X104823327Y-94828384D01*
X104823327Y-94828384D02*
X104823327Y-95071241D01*
X104823327Y-95071241D02*
X104853684Y-95131955D01*
X104853684Y-95131955D02*
X104884041Y-95162313D01*
X104884041Y-95162313D02*
X104944756Y-95192670D01*
X104944756Y-95192670D02*
X105066184Y-95192670D01*
X105066184Y-95192670D02*
X105126899Y-95162313D01*
X105126899Y-95162313D02*
X105157256Y-95131955D01*
X105157256Y-95131955D02*
X105187613Y-95071241D01*
X105187613Y-95071241D02*
X105187613Y-94919455D01*
X105187613Y-94919455D02*
X105157256Y-94858741D01*
X105157256Y-94858741D02*
X105126899Y-94828384D01*
X105126899Y-94828384D02*
X105066184Y-94798027D01*
X105066184Y-94798027D02*
X104944756Y-94798027D01*
X104944756Y-94798027D02*
X104884041Y-94828384D01*
X104884041Y-94828384D02*
X104853684Y-94858741D01*
X104853684Y-94858741D02*
X104823327Y-94919455D01*
D12*
X104915684Y-69066241D02*
X104915684Y-70553741D01*
X104915684Y-69137075D02*
X105057351Y-69066241D01*
X105057351Y-69066241D02*
X105340684Y-69066241D01*
X105340684Y-69066241D02*
X105482351Y-69137075D01*
X105482351Y-69137075D02*
X105553184Y-69207908D01*
X105553184Y-69207908D02*
X105624018Y-69349575D01*
X105624018Y-69349575D02*
X105624018Y-69774575D01*
X105624018Y-69774575D02*
X105553184Y-69916241D01*
X105553184Y-69916241D02*
X105482351Y-69987075D01*
X105482351Y-69987075D02*
X105340684Y-70057908D01*
X105340684Y-70057908D02*
X105057351Y-70057908D01*
X105057351Y-70057908D02*
X104915684Y-69987075D01*
X106261517Y-70057908D02*
X106261517Y-69066241D01*
X106261517Y-69349575D02*
X106332351Y-69207908D01*
X106332351Y-69207908D02*
X106403184Y-69137075D01*
X106403184Y-69137075D02*
X106544851Y-69066241D01*
X106544851Y-69066241D02*
X106686517Y-69066241D01*
X107394850Y-70057908D02*
X107253184Y-69987075D01*
X107253184Y-69987075D02*
X107182350Y-69916241D01*
X107182350Y-69916241D02*
X107111517Y-69774575D01*
X107111517Y-69774575D02*
X107111517Y-69349575D01*
X107111517Y-69349575D02*
X107182350Y-69207908D01*
X107182350Y-69207908D02*
X107253184Y-69137075D01*
X107253184Y-69137075D02*
X107394850Y-69066241D01*
X107394850Y-69066241D02*
X107607350Y-69066241D01*
X107607350Y-69066241D02*
X107749017Y-69137075D01*
X107749017Y-69137075D02*
X107819850Y-69207908D01*
X107819850Y-69207908D02*
X107890684Y-69349575D01*
X107890684Y-69349575D02*
X107890684Y-69774575D01*
X107890684Y-69774575D02*
X107819850Y-69916241D01*
X107819850Y-69916241D02*
X107749017Y-69987075D01*
X107749017Y-69987075D02*
X107607350Y-70057908D01*
X107607350Y-70057908D02*
X107394850Y-70057908D01*
X109661516Y-70057908D02*
X109661516Y-69066241D01*
X109661516Y-69207908D02*
X109732350Y-69137075D01*
X109732350Y-69137075D02*
X109874016Y-69066241D01*
X109874016Y-69066241D02*
X110086516Y-69066241D01*
X110086516Y-69066241D02*
X110228183Y-69137075D01*
X110228183Y-69137075D02*
X110299016Y-69278741D01*
X110299016Y-69278741D02*
X110299016Y-70057908D01*
X110299016Y-69278741D02*
X110369850Y-69137075D01*
X110369850Y-69137075D02*
X110511516Y-69066241D01*
X110511516Y-69066241D02*
X110724016Y-69066241D01*
X110724016Y-69066241D02*
X110865683Y-69137075D01*
X110865683Y-69137075D02*
X110936516Y-69278741D01*
X110936516Y-69278741D02*
X110936516Y-70057908D01*
X111644849Y-70057908D02*
X111644849Y-69066241D01*
X111644849Y-68570408D02*
X111574016Y-68641241D01*
X111574016Y-68641241D02*
X111644849Y-68712075D01*
X111644849Y-68712075D02*
X111715683Y-68641241D01*
X111715683Y-68641241D02*
X111644849Y-68570408D01*
X111644849Y-68570408D02*
X111644849Y-68712075D01*
X112990682Y-69987075D02*
X112849016Y-70057908D01*
X112849016Y-70057908D02*
X112565682Y-70057908D01*
X112565682Y-70057908D02*
X112424016Y-69987075D01*
X112424016Y-69987075D02*
X112353182Y-69916241D01*
X112353182Y-69916241D02*
X112282349Y-69774575D01*
X112282349Y-69774575D02*
X112282349Y-69349575D01*
X112282349Y-69349575D02*
X112353182Y-69207908D01*
X112353182Y-69207908D02*
X112424016Y-69137075D01*
X112424016Y-69137075D02*
X112565682Y-69066241D01*
X112565682Y-69066241D02*
X112849016Y-69066241D01*
X112849016Y-69066241D02*
X112990682Y-69137075D01*
X113628182Y-70057908D02*
X113628182Y-69066241D01*
X113628182Y-69349575D02*
X113699016Y-69207908D01*
X113699016Y-69207908D02*
X113769849Y-69137075D01*
X113769849Y-69137075D02*
X113911516Y-69066241D01*
X113911516Y-69066241D02*
X114053182Y-69066241D01*
X114761515Y-70057908D02*
X114619849Y-69987075D01*
X114619849Y-69987075D02*
X114549015Y-69916241D01*
X114549015Y-69916241D02*
X114478182Y-69774575D01*
X114478182Y-69774575D02*
X114478182Y-69349575D01*
X114478182Y-69349575D02*
X114549015Y-69207908D01*
X114549015Y-69207908D02*
X114619849Y-69137075D01*
X114619849Y-69137075D02*
X114761515Y-69066241D01*
X114761515Y-69066241D02*
X114974015Y-69066241D01*
X114974015Y-69066241D02*
X115115682Y-69137075D01*
X115115682Y-69137075D02*
X115186515Y-69207908D01*
X115186515Y-69207908D02*
X115257349Y-69349575D01*
X115257349Y-69349575D02*
X115257349Y-69774575D01*
X115257349Y-69774575D02*
X115186515Y-69916241D01*
X115186515Y-69916241D02*
X115115682Y-69987075D01*
X115115682Y-69987075D02*
X114974015Y-70057908D01*
X114974015Y-70057908D02*
X114761515Y-70057908D01*
D11*
X114580658Y-72332670D02*
X114368158Y-72029098D01*
X114216372Y-72332670D02*
X114216372Y-71695170D01*
X114216372Y-71695170D02*
X114459229Y-71695170D01*
X114459229Y-71695170D02*
X114519944Y-71725527D01*
X114519944Y-71725527D02*
X114550301Y-71755884D01*
X114550301Y-71755884D02*
X114580658Y-71816598D01*
X114580658Y-71816598D02*
X114580658Y-71907670D01*
X114580658Y-71907670D02*
X114550301Y-71968384D01*
X114550301Y-71968384D02*
X114519944Y-71998741D01*
X114519944Y-71998741D02*
X114459229Y-72029098D01*
X114459229Y-72029098D02*
X114216372Y-72029098D01*
X114823515Y-72150527D02*
X115127087Y-72150527D01*
X114762801Y-72332670D02*
X114975301Y-71695170D01*
X114975301Y-71695170D02*
X115187801Y-72332670D01*
X115339587Y-71695170D02*
X115491373Y-72332670D01*
X115491373Y-72332670D02*
X115612801Y-71877313D01*
X115612801Y-71877313D02*
X115734230Y-72332670D01*
X115734230Y-72332670D02*
X115886016Y-71695170D01*
D12*
X102777963Y-143182908D02*
X102777963Y-141695408D01*
X102777963Y-142403741D02*
X103627963Y-142403741D01*
X103627963Y-143182908D02*
X103627963Y-141695408D01*
X104548796Y-143182908D02*
X104407130Y-143112075D01*
X104407130Y-143112075D02*
X104336296Y-143041241D01*
X104336296Y-143041241D02*
X104265463Y-142899575D01*
X104265463Y-142899575D02*
X104265463Y-142474575D01*
X104265463Y-142474575D02*
X104336296Y-142332908D01*
X104336296Y-142332908D02*
X104407130Y-142262075D01*
X104407130Y-142262075D02*
X104548796Y-142191241D01*
X104548796Y-142191241D02*
X104761296Y-142191241D01*
X104761296Y-142191241D02*
X104902963Y-142262075D01*
X104902963Y-142262075D02*
X104973796Y-142332908D01*
X104973796Y-142332908D02*
X105044630Y-142474575D01*
X105044630Y-142474575D02*
X105044630Y-142899575D01*
X105044630Y-142899575D02*
X104973796Y-143041241D01*
X104973796Y-143041241D02*
X104902963Y-143112075D01*
X104902963Y-143112075D02*
X104761296Y-143182908D01*
X104761296Y-143182908D02*
X104548796Y-143182908D01*
X105469629Y-142191241D02*
X106036296Y-142191241D01*
X105682129Y-141695408D02*
X105682129Y-142970408D01*
X105682129Y-142970408D02*
X105752963Y-143112075D01*
X105752963Y-143112075D02*
X105894629Y-143182908D01*
X105894629Y-143182908D02*
X106036296Y-143182908D01*
X106461296Y-143112075D02*
X106602963Y-143182908D01*
X106602963Y-143182908D02*
X106886296Y-143182908D01*
X106886296Y-143182908D02*
X107027963Y-143112075D01*
X107027963Y-143112075D02*
X107098796Y-142970408D01*
X107098796Y-142970408D02*
X107098796Y-142899575D01*
X107098796Y-142899575D02*
X107027963Y-142757908D01*
X107027963Y-142757908D02*
X106886296Y-142687075D01*
X106886296Y-142687075D02*
X106673796Y-142687075D01*
X106673796Y-142687075D02*
X106532129Y-142616241D01*
X106532129Y-142616241D02*
X106461296Y-142474575D01*
X106461296Y-142474575D02*
X106461296Y-142403741D01*
X106461296Y-142403741D02*
X106532129Y-142262075D01*
X106532129Y-142262075D02*
X106673796Y-142191241D01*
X106673796Y-142191241D02*
X106886296Y-142191241D01*
X106886296Y-142191241D02*
X107027963Y-142262075D01*
X107594630Y-142191241D02*
X107877963Y-143182908D01*
X107877963Y-143182908D02*
X108161296Y-142474575D01*
X108161296Y-142474575D02*
X108444630Y-143182908D01*
X108444630Y-143182908D02*
X108727963Y-142191241D01*
X109932129Y-143182908D02*
X109932129Y-142403741D01*
X109932129Y-142403741D02*
X109861296Y-142262075D01*
X109861296Y-142262075D02*
X109719629Y-142191241D01*
X109719629Y-142191241D02*
X109436296Y-142191241D01*
X109436296Y-142191241D02*
X109294629Y-142262075D01*
X109932129Y-143112075D02*
X109790463Y-143182908D01*
X109790463Y-143182908D02*
X109436296Y-143182908D01*
X109436296Y-143182908D02*
X109294629Y-143112075D01*
X109294629Y-143112075D02*
X109223796Y-142970408D01*
X109223796Y-142970408D02*
X109223796Y-142828741D01*
X109223796Y-142828741D02*
X109294629Y-142687075D01*
X109294629Y-142687075D02*
X109436296Y-142616241D01*
X109436296Y-142616241D02*
X109790463Y-142616241D01*
X109790463Y-142616241D02*
X109932129Y-142545408D01*
X110640462Y-142191241D02*
X110640462Y-143678741D01*
X110640462Y-142262075D02*
X110782129Y-142191241D01*
X110782129Y-142191241D02*
X111065462Y-142191241D01*
X111065462Y-142191241D02*
X111207129Y-142262075D01*
X111207129Y-142262075D02*
X111277962Y-142332908D01*
X111277962Y-142332908D02*
X111348796Y-142474575D01*
X111348796Y-142474575D02*
X111348796Y-142899575D01*
X111348796Y-142899575D02*
X111277962Y-143041241D01*
X111277962Y-143041241D02*
X111207129Y-143112075D01*
X111207129Y-143112075D02*
X111065462Y-143182908D01*
X111065462Y-143182908D02*
X110782129Y-143182908D01*
X110782129Y-143182908D02*
X110640462Y-143112075D01*
X113119628Y-142616241D02*
X114252962Y-142616241D01*
X116944628Y-143182908D02*
X116448795Y-142474575D01*
X116094628Y-143182908D02*
X116094628Y-141695408D01*
X116094628Y-141695408D02*
X116661295Y-141695408D01*
X116661295Y-141695408D02*
X116802962Y-141766241D01*
X116802962Y-141766241D02*
X116873795Y-141837075D01*
X116873795Y-141837075D02*
X116944628Y-141978741D01*
X116944628Y-141978741D02*
X116944628Y-142191241D01*
X116944628Y-142191241D02*
X116873795Y-142332908D01*
X116873795Y-142332908D02*
X116802962Y-142403741D01*
X116802962Y-142403741D02*
X116661295Y-142474575D01*
X116661295Y-142474575D02*
X116094628Y-142474575D01*
X118219628Y-142191241D02*
X118219628Y-143395408D01*
X118219628Y-143395408D02*
X118148795Y-143537075D01*
X118148795Y-143537075D02*
X118077962Y-143607908D01*
X118077962Y-143607908D02*
X117936295Y-143678741D01*
X117936295Y-143678741D02*
X117723795Y-143678741D01*
X117723795Y-143678741D02*
X117582128Y-143607908D01*
X118219628Y-143112075D02*
X118077962Y-143182908D01*
X118077962Y-143182908D02*
X117794628Y-143182908D01*
X117794628Y-143182908D02*
X117652962Y-143112075D01*
X117652962Y-143112075D02*
X117582128Y-143041241D01*
X117582128Y-143041241D02*
X117511295Y-142899575D01*
X117511295Y-142899575D02*
X117511295Y-142474575D01*
X117511295Y-142474575D02*
X117582128Y-142332908D01*
X117582128Y-142332908D02*
X117652962Y-142262075D01*
X117652962Y-142262075D02*
X117794628Y-142191241D01*
X117794628Y-142191241D02*
X118077962Y-142191241D01*
X118077962Y-142191241D02*
X118219628Y-142262075D01*
X118927961Y-143182908D02*
X118927961Y-141695408D01*
X118927961Y-142262075D02*
X119069628Y-142191241D01*
X119069628Y-142191241D02*
X119352961Y-142191241D01*
X119352961Y-142191241D02*
X119494628Y-142262075D01*
X119494628Y-142262075D02*
X119565461Y-142332908D01*
X119565461Y-142332908D02*
X119636295Y-142474575D01*
X119636295Y-142474575D02*
X119636295Y-142899575D01*
X119636295Y-142899575D02*
X119565461Y-143041241D01*
X119565461Y-143041241D02*
X119494628Y-143112075D01*
X119494628Y-143112075D02*
X119352961Y-143182908D01*
X119352961Y-143182908D02*
X119069628Y-143182908D01*
X119069628Y-143182908D02*
X118927961Y-143112075D01*
X121407127Y-142616241D02*
X122540461Y-142616241D01*
X124311294Y-143112075D02*
X124523794Y-143182908D01*
X124523794Y-143182908D02*
X124877961Y-143182908D01*
X124877961Y-143182908D02*
X125019627Y-143112075D01*
X125019627Y-143112075D02*
X125090461Y-143041241D01*
X125090461Y-143041241D02*
X125161294Y-142899575D01*
X125161294Y-142899575D02*
X125161294Y-142757908D01*
X125161294Y-142757908D02*
X125090461Y-142616241D01*
X125090461Y-142616241D02*
X125019627Y-142545408D01*
X125019627Y-142545408D02*
X124877961Y-142474575D01*
X124877961Y-142474575D02*
X124594627Y-142403741D01*
X124594627Y-142403741D02*
X124452961Y-142332908D01*
X124452961Y-142332908D02*
X124382127Y-142262075D01*
X124382127Y-142262075D02*
X124311294Y-142120408D01*
X124311294Y-142120408D02*
X124311294Y-141978741D01*
X124311294Y-141978741D02*
X124382127Y-141837075D01*
X124382127Y-141837075D02*
X124452961Y-141766241D01*
X124452961Y-141766241D02*
X124594627Y-141695408D01*
X124594627Y-141695408D02*
X124948794Y-141695408D01*
X124948794Y-141695408D02*
X125161294Y-141766241D01*
X125798794Y-143182908D02*
X125798794Y-142191241D01*
X125798794Y-142332908D02*
X125869628Y-142262075D01*
X125869628Y-142262075D02*
X126011294Y-142191241D01*
X126011294Y-142191241D02*
X126223794Y-142191241D01*
X126223794Y-142191241D02*
X126365461Y-142262075D01*
X126365461Y-142262075D02*
X126436294Y-142403741D01*
X126436294Y-142403741D02*
X126436294Y-143182908D01*
X126436294Y-142403741D02*
X126507128Y-142262075D01*
X126507128Y-142262075D02*
X126648794Y-142191241D01*
X126648794Y-142191241D02*
X126861294Y-142191241D01*
X126861294Y-142191241D02*
X127002961Y-142262075D01*
X127002961Y-142262075D02*
X127073794Y-142403741D01*
X127073794Y-142403741D02*
X127073794Y-143182908D01*
X128419627Y-143182908D02*
X128419627Y-142403741D01*
X128419627Y-142403741D02*
X128348794Y-142262075D01*
X128348794Y-142262075D02*
X128207127Y-142191241D01*
X128207127Y-142191241D02*
X127923794Y-142191241D01*
X127923794Y-142191241D02*
X127782127Y-142262075D01*
X128419627Y-143112075D02*
X128277961Y-143182908D01*
X128277961Y-143182908D02*
X127923794Y-143182908D01*
X127923794Y-143182908D02*
X127782127Y-143112075D01*
X127782127Y-143112075D02*
X127711294Y-142970408D01*
X127711294Y-142970408D02*
X127711294Y-142828741D01*
X127711294Y-142828741D02*
X127782127Y-142687075D01*
X127782127Y-142687075D02*
X127923794Y-142616241D01*
X127923794Y-142616241D02*
X128277961Y-142616241D01*
X128277961Y-142616241D02*
X128419627Y-142545408D01*
X129127960Y-143182908D02*
X129127960Y-142191241D01*
X129127960Y-142474575D02*
X129198794Y-142332908D01*
X129198794Y-142332908D02*
X129269627Y-142262075D01*
X129269627Y-142262075D02*
X129411294Y-142191241D01*
X129411294Y-142191241D02*
X129552960Y-142191241D01*
X129836293Y-142191241D02*
X130402960Y-142191241D01*
X130048793Y-141695408D02*
X130048793Y-142970408D01*
X130048793Y-142970408D02*
X130119627Y-143112075D01*
X130119627Y-143112075D02*
X130261293Y-143182908D01*
X130261293Y-143182908D02*
X130402960Y-143182908D01*
X130898793Y-142191241D02*
X130898793Y-143678741D01*
X130898793Y-142262075D02*
X131040460Y-142191241D01*
X131040460Y-142191241D02*
X131323793Y-142191241D01*
X131323793Y-142191241D02*
X131465460Y-142262075D01*
X131465460Y-142262075D02*
X131536293Y-142332908D01*
X131536293Y-142332908D02*
X131607127Y-142474575D01*
X131607127Y-142474575D02*
X131607127Y-142899575D01*
X131607127Y-142899575D02*
X131536293Y-143041241D01*
X131536293Y-143041241D02*
X131465460Y-143112075D01*
X131465460Y-143112075D02*
X131323793Y-143182908D01*
X131323793Y-143182908D02*
X131040460Y-143182908D01*
X131040460Y-143182908D02*
X130898793Y-143112075D01*
X132882126Y-143182908D02*
X132882126Y-142403741D01*
X132882126Y-142403741D02*
X132811293Y-142262075D01*
X132811293Y-142262075D02*
X132669626Y-142191241D01*
X132669626Y-142191241D02*
X132386293Y-142191241D01*
X132386293Y-142191241D02*
X132244626Y-142262075D01*
X132882126Y-143112075D02*
X132740460Y-143182908D01*
X132740460Y-143182908D02*
X132386293Y-143182908D01*
X132386293Y-143182908D02*
X132244626Y-143112075D01*
X132244626Y-143112075D02*
X132173793Y-142970408D01*
X132173793Y-142970408D02*
X132173793Y-142828741D01*
X132173793Y-142828741D02*
X132244626Y-142687075D01*
X132244626Y-142687075D02*
X132386293Y-142616241D01*
X132386293Y-142616241D02*
X132740460Y-142616241D01*
X132740460Y-142616241D02*
X132882126Y-142545408D01*
X134227959Y-143182908D02*
X134227959Y-141695408D01*
X134227959Y-143112075D02*
X134086293Y-143182908D01*
X134086293Y-143182908D02*
X133802959Y-143182908D01*
X133802959Y-143182908D02*
X133661293Y-143112075D01*
X133661293Y-143112075D02*
X133590459Y-143041241D01*
X133590459Y-143041241D02*
X133519626Y-142899575D01*
X133519626Y-142899575D02*
X133519626Y-142474575D01*
X133519626Y-142474575D02*
X133590459Y-142332908D01*
X133590459Y-142332908D02*
X133661293Y-142262075D01*
X133661293Y-142262075D02*
X133802959Y-142191241D01*
X133802959Y-142191241D02*
X134086293Y-142191241D01*
X134086293Y-142191241D02*
X134227959Y-142262075D01*
D11*
X104276898Y-85032670D02*
X104276898Y-84395170D01*
X104276898Y-84395170D02*
X104428684Y-84395170D01*
X104428684Y-84395170D02*
X104519755Y-84425527D01*
X104519755Y-84425527D02*
X104580470Y-84486241D01*
X104580470Y-84486241D02*
X104610827Y-84546955D01*
X104610827Y-84546955D02*
X104641184Y-84668384D01*
X104641184Y-84668384D02*
X104641184Y-84759455D01*
X104641184Y-84759455D02*
X104610827Y-84880884D01*
X104610827Y-84880884D02*
X104580470Y-84941598D01*
X104580470Y-84941598D02*
X104519755Y-85002313D01*
X104519755Y-85002313D02*
X104428684Y-85032670D01*
X104428684Y-85032670D02*
X104276898Y-85032670D01*
X105035827Y-84395170D02*
X105096541Y-84395170D01*
X105096541Y-84395170D02*
X105157255Y-84425527D01*
X105157255Y-84425527D02*
X105187613Y-84455884D01*
X105187613Y-84455884D02*
X105217970Y-84516598D01*
X105217970Y-84516598D02*
X105248327Y-84638027D01*
X105248327Y-84638027D02*
X105248327Y-84789813D01*
X105248327Y-84789813D02*
X105217970Y-84911241D01*
X105217970Y-84911241D02*
X105187613Y-84971955D01*
X105187613Y-84971955D02*
X105157255Y-85002313D01*
X105157255Y-85002313D02*
X105096541Y-85032670D01*
X105096541Y-85032670D02*
X105035827Y-85032670D01*
X105035827Y-85032670D02*
X104975113Y-85002313D01*
X104975113Y-85002313D02*
X104944755Y-84971955D01*
X104944755Y-84971955D02*
X104914398Y-84911241D01*
X104914398Y-84911241D02*
X104884041Y-84789813D01*
X104884041Y-84789813D02*
X104884041Y-84638027D01*
X104884041Y-84638027D02*
X104914398Y-84516598D01*
X104914398Y-84516598D02*
X104944755Y-84455884D01*
X104944755Y-84455884D02*
X104975113Y-84425527D01*
X104975113Y-84425527D02*
X105035827Y-84395170D01*
X115096729Y-99938741D02*
X115187801Y-99969098D01*
X115187801Y-99969098D02*
X115218158Y-99999455D01*
X115218158Y-99999455D02*
X115248515Y-100060170D01*
X115248515Y-100060170D02*
X115248515Y-100151241D01*
X115248515Y-100151241D02*
X115218158Y-100211955D01*
X115218158Y-100211955D02*
X115187801Y-100242313D01*
X115187801Y-100242313D02*
X115127086Y-100272670D01*
X115127086Y-100272670D02*
X114884229Y-100272670D01*
X114884229Y-100272670D02*
X114884229Y-99635170D01*
X114884229Y-99635170D02*
X115096729Y-99635170D01*
X115096729Y-99635170D02*
X115157444Y-99665527D01*
X115157444Y-99665527D02*
X115187801Y-99695884D01*
X115187801Y-99695884D02*
X115218158Y-99756598D01*
X115218158Y-99756598D02*
X115218158Y-99817313D01*
X115218158Y-99817313D02*
X115187801Y-99878027D01*
X115187801Y-99878027D02*
X115157444Y-99908384D01*
X115157444Y-99908384D02*
X115096729Y-99938741D01*
X115096729Y-99938741D02*
X114884229Y-99938741D01*
X115794944Y-99635170D02*
X115673515Y-99635170D01*
X115673515Y-99635170D02*
X115612801Y-99665527D01*
X115612801Y-99665527D02*
X115582444Y-99695884D01*
X115582444Y-99695884D02*
X115521729Y-99786955D01*
X115521729Y-99786955D02*
X115491372Y-99908384D01*
X115491372Y-99908384D02*
X115491372Y-100151241D01*
X115491372Y-100151241D02*
X115521729Y-100211955D01*
X115521729Y-100211955D02*
X115552086Y-100242313D01*
X115552086Y-100242313D02*
X115612801Y-100272670D01*
X115612801Y-100272670D02*
X115734229Y-100272670D01*
X115734229Y-100272670D02*
X115794944Y-100242313D01*
X115794944Y-100242313D02*
X115825301Y-100211955D01*
X115825301Y-100211955D02*
X115855658Y-100151241D01*
X115855658Y-100151241D02*
X115855658Y-99999455D01*
X115855658Y-99999455D02*
X115825301Y-99938741D01*
X115825301Y-99938741D02*
X115794944Y-99908384D01*
X115794944Y-99908384D02*
X115734229Y-99878027D01*
X115734229Y-99878027D02*
X115612801Y-99878027D01*
X115612801Y-99878027D02*
X115552086Y-99908384D01*
X115552086Y-99908384D02*
X115521729Y-99938741D01*
X115521729Y-99938741D02*
X115491372Y-99999455D01*
X104276898Y-74872670D02*
X104276898Y-74235170D01*
X104276898Y-74235170D02*
X104428684Y-74235170D01*
X104428684Y-74235170D02*
X104519755Y-74265527D01*
X104519755Y-74265527D02*
X104580470Y-74326241D01*
X104580470Y-74326241D02*
X104610827Y-74386955D01*
X104610827Y-74386955D02*
X104641184Y-74508384D01*
X104641184Y-74508384D02*
X104641184Y-74599455D01*
X104641184Y-74599455D02*
X104610827Y-74720884D01*
X104610827Y-74720884D02*
X104580470Y-74781598D01*
X104580470Y-74781598D02*
X104519755Y-74842313D01*
X104519755Y-74842313D02*
X104428684Y-74872670D01*
X104428684Y-74872670D02*
X104276898Y-74872670D01*
X104884041Y-74295884D02*
X104914398Y-74265527D01*
X104914398Y-74265527D02*
X104975113Y-74235170D01*
X104975113Y-74235170D02*
X105126898Y-74235170D01*
X105126898Y-74235170D02*
X105187613Y-74265527D01*
X105187613Y-74265527D02*
X105217970Y-74295884D01*
X105217970Y-74295884D02*
X105248327Y-74356598D01*
X105248327Y-74356598D02*
X105248327Y-74417313D01*
X105248327Y-74417313D02*
X105217970Y-74508384D01*
X105217970Y-74508384D02*
X104853684Y-74872670D01*
X104853684Y-74872670D02*
X105248327Y-74872670D01*
X115187800Y-84698741D02*
X114975300Y-84698741D01*
X114975300Y-85032670D02*
X114975300Y-84395170D01*
X114975300Y-84395170D02*
X115278872Y-84395170D01*
X115825301Y-84395170D02*
X115521729Y-84395170D01*
X115521729Y-84395170D02*
X115491372Y-84698741D01*
X115491372Y-84698741D02*
X115521729Y-84668384D01*
X115521729Y-84668384D02*
X115582444Y-84638027D01*
X115582444Y-84638027D02*
X115734229Y-84638027D01*
X115734229Y-84638027D02*
X115794944Y-84668384D01*
X115794944Y-84668384D02*
X115825301Y-84698741D01*
X115825301Y-84698741D02*
X115855658Y-84759455D01*
X115855658Y-84759455D02*
X115855658Y-84911241D01*
X115855658Y-84911241D02*
X115825301Y-84971955D01*
X115825301Y-84971955D02*
X115794944Y-85002313D01*
X115794944Y-85002313D02*
X115734229Y-85032670D01*
X115734229Y-85032670D02*
X115582444Y-85032670D01*
X115582444Y-85032670D02*
X115521729Y-85002313D01*
X115521729Y-85002313D02*
X115491372Y-84971955D01*
X114519944Y-74265527D02*
X114459230Y-74235170D01*
X114459230Y-74235170D02*
X114368158Y-74235170D01*
X114368158Y-74235170D02*
X114277087Y-74265527D01*
X114277087Y-74265527D02*
X114216372Y-74326241D01*
X114216372Y-74326241D02*
X114186015Y-74386955D01*
X114186015Y-74386955D02*
X114155658Y-74508384D01*
X114155658Y-74508384D02*
X114155658Y-74599455D01*
X114155658Y-74599455D02*
X114186015Y-74720884D01*
X114186015Y-74720884D02*
X114216372Y-74781598D01*
X114216372Y-74781598D02*
X114277087Y-74842313D01*
X114277087Y-74842313D02*
X114368158Y-74872670D01*
X114368158Y-74872670D02*
X114428872Y-74872670D01*
X114428872Y-74872670D02*
X114519944Y-74842313D01*
X114519944Y-74842313D02*
X114550301Y-74811955D01*
X114550301Y-74811955D02*
X114550301Y-74599455D01*
X114550301Y-74599455D02*
X114428872Y-74599455D01*
X114823515Y-74872670D02*
X114823515Y-74235170D01*
X114823515Y-74235170D02*
X115187801Y-74872670D01*
X115187801Y-74872670D02*
X115187801Y-74235170D01*
X115491372Y-74872670D02*
X115491372Y-74235170D01*
X115491372Y-74235170D02*
X115643158Y-74235170D01*
X115643158Y-74235170D02*
X115734229Y-74265527D01*
X115734229Y-74265527D02*
X115794944Y-74326241D01*
X115794944Y-74326241D02*
X115825301Y-74386955D01*
X115825301Y-74386955D02*
X115855658Y-74508384D01*
X115855658Y-74508384D02*
X115855658Y-74599455D01*
X115855658Y-74599455D02*
X115825301Y-74720884D01*
X115825301Y-74720884D02*
X115794944Y-74781598D01*
X115794944Y-74781598D02*
X115734229Y-74842313D01*
X115734229Y-74842313D02*
X115643158Y-74872670D01*
X115643158Y-74872670D02*
X115491372Y-74872670D01*
X114762801Y-77412670D02*
X114550301Y-77109098D01*
X114398515Y-77412670D02*
X114398515Y-76775170D01*
X114398515Y-76775170D02*
X114641372Y-76775170D01*
X114641372Y-76775170D02*
X114702087Y-76805527D01*
X114702087Y-76805527D02*
X114732444Y-76835884D01*
X114732444Y-76835884D02*
X114762801Y-76896598D01*
X114762801Y-76896598D02*
X114762801Y-76987670D01*
X114762801Y-76987670D02*
X114732444Y-77048384D01*
X114732444Y-77048384D02*
X114702087Y-77078741D01*
X114702087Y-77078741D02*
X114641372Y-77109098D01*
X114641372Y-77109098D02*
X114398515Y-77109098D01*
X115005658Y-77382313D02*
X115096730Y-77412670D01*
X115096730Y-77412670D02*
X115248515Y-77412670D01*
X115248515Y-77412670D02*
X115309230Y-77382313D01*
X115309230Y-77382313D02*
X115339587Y-77351955D01*
X115339587Y-77351955D02*
X115369944Y-77291241D01*
X115369944Y-77291241D02*
X115369944Y-77230527D01*
X115369944Y-77230527D02*
X115339587Y-77169813D01*
X115339587Y-77169813D02*
X115309230Y-77139455D01*
X115309230Y-77139455D02*
X115248515Y-77109098D01*
X115248515Y-77109098D02*
X115127087Y-77078741D01*
X115127087Y-77078741D02*
X115066372Y-77048384D01*
X115066372Y-77048384D02*
X115036015Y-77018027D01*
X115036015Y-77018027D02*
X115005658Y-76957313D01*
X115005658Y-76957313D02*
X115005658Y-76896598D01*
X115005658Y-76896598D02*
X115036015Y-76835884D01*
X115036015Y-76835884D02*
X115066372Y-76805527D01*
X115066372Y-76805527D02*
X115127087Y-76775170D01*
X115127087Y-76775170D02*
X115278872Y-76775170D01*
X115278872Y-76775170D02*
X115369944Y-76805527D01*
X115552087Y-76775170D02*
X115916373Y-76775170D01*
X115734230Y-77412670D02*
X115734230Y-76775170D01*
X115187800Y-87238741D02*
X114975300Y-87238741D01*
X114975300Y-87572670D02*
X114975300Y-86935170D01*
X114975300Y-86935170D02*
X115278872Y-86935170D01*
X115794944Y-86935170D02*
X115673515Y-86935170D01*
X115673515Y-86935170D02*
X115612801Y-86965527D01*
X115612801Y-86965527D02*
X115582444Y-86995884D01*
X115582444Y-86995884D02*
X115521729Y-87086955D01*
X115521729Y-87086955D02*
X115491372Y-87208384D01*
X115491372Y-87208384D02*
X115491372Y-87451241D01*
X115491372Y-87451241D02*
X115521729Y-87511955D01*
X115521729Y-87511955D02*
X115552086Y-87542313D01*
X115552086Y-87542313D02*
X115612801Y-87572670D01*
X115612801Y-87572670D02*
X115734229Y-87572670D01*
X115734229Y-87572670D02*
X115794944Y-87542313D01*
X115794944Y-87542313D02*
X115825301Y-87511955D01*
X115825301Y-87511955D02*
X115855658Y-87451241D01*
X115855658Y-87451241D02*
X115855658Y-87299455D01*
X115855658Y-87299455D02*
X115825301Y-87238741D01*
X115825301Y-87238741D02*
X115794944Y-87208384D01*
X115794944Y-87208384D02*
X115734229Y-87178027D01*
X115734229Y-87178027D02*
X115612801Y-87178027D01*
X115612801Y-87178027D02*
X115552086Y-87208384D01*
X115552086Y-87208384D02*
X115521729Y-87238741D01*
X115521729Y-87238741D02*
X115491372Y-87299455D01*
X104610827Y-76805527D02*
X104550113Y-76775170D01*
X104550113Y-76775170D02*
X104459041Y-76775170D01*
X104459041Y-76775170D02*
X104367970Y-76805527D01*
X104367970Y-76805527D02*
X104307255Y-76866241D01*
X104307255Y-76866241D02*
X104276898Y-76926955D01*
X104276898Y-76926955D02*
X104246541Y-77048384D01*
X104246541Y-77048384D02*
X104246541Y-77139455D01*
X104246541Y-77139455D02*
X104276898Y-77260884D01*
X104276898Y-77260884D02*
X104307255Y-77321598D01*
X104307255Y-77321598D02*
X104367970Y-77382313D01*
X104367970Y-77382313D02*
X104459041Y-77412670D01*
X104459041Y-77412670D02*
X104519755Y-77412670D01*
X104519755Y-77412670D02*
X104610827Y-77382313D01*
X104610827Y-77382313D02*
X104641184Y-77351955D01*
X104641184Y-77351955D02*
X104641184Y-77139455D01*
X104641184Y-77139455D02*
X104519755Y-77139455D01*
X104914398Y-77412670D02*
X104914398Y-76775170D01*
X104914398Y-76775170D02*
X105278684Y-77412670D01*
X105278684Y-77412670D02*
X105278684Y-76775170D01*
X105582255Y-77412670D02*
X105582255Y-76775170D01*
X105582255Y-76775170D02*
X105734041Y-76775170D01*
X105734041Y-76775170D02*
X105825112Y-76805527D01*
X105825112Y-76805527D02*
X105885827Y-76866241D01*
X105885827Y-76866241D02*
X105916184Y-76926955D01*
X105916184Y-76926955D02*
X105946541Y-77048384D01*
X105946541Y-77048384D02*
X105946541Y-77139455D01*
X105946541Y-77139455D02*
X105916184Y-77260884D01*
X105916184Y-77260884D02*
X105885827Y-77321598D01*
X105885827Y-77321598D02*
X105825112Y-77382313D01*
X105825112Y-77382313D02*
X105734041Y-77412670D01*
X105734041Y-77412670D02*
X105582255Y-77412670D01*
D12*
X160082574Y-143182908D02*
X159374240Y-143182908D01*
X159374240Y-143182908D02*
X159374240Y-141695408D01*
X160790907Y-143182908D02*
X160649241Y-143112075D01*
X160649241Y-143112075D02*
X160578407Y-143041241D01*
X160578407Y-143041241D02*
X160507574Y-142899575D01*
X160507574Y-142899575D02*
X160507574Y-142474575D01*
X160507574Y-142474575D02*
X160578407Y-142332908D01*
X160578407Y-142332908D02*
X160649241Y-142262075D01*
X160649241Y-142262075D02*
X160790907Y-142191241D01*
X160790907Y-142191241D02*
X161003407Y-142191241D01*
X161003407Y-142191241D02*
X161145074Y-142262075D01*
X161145074Y-142262075D02*
X161215907Y-142332908D01*
X161215907Y-142332908D02*
X161286741Y-142474575D01*
X161286741Y-142474575D02*
X161286741Y-142899575D01*
X161286741Y-142899575D02*
X161215907Y-143041241D01*
X161215907Y-143041241D02*
X161145074Y-143112075D01*
X161145074Y-143112075D02*
X161003407Y-143182908D01*
X161003407Y-143182908D02*
X160790907Y-143182908D01*
X162561740Y-142191241D02*
X162561740Y-143395408D01*
X162561740Y-143395408D02*
X162490907Y-143537075D01*
X162490907Y-143537075D02*
X162420074Y-143607908D01*
X162420074Y-143607908D02*
X162278407Y-143678741D01*
X162278407Y-143678741D02*
X162065907Y-143678741D01*
X162065907Y-143678741D02*
X161924240Y-143607908D01*
X162561740Y-143112075D02*
X162420074Y-143182908D01*
X162420074Y-143182908D02*
X162136740Y-143182908D01*
X162136740Y-143182908D02*
X161995074Y-143112075D01*
X161995074Y-143112075D02*
X161924240Y-143041241D01*
X161924240Y-143041241D02*
X161853407Y-142899575D01*
X161853407Y-142899575D02*
X161853407Y-142474575D01*
X161853407Y-142474575D02*
X161924240Y-142332908D01*
X161924240Y-142332908D02*
X161995074Y-142262075D01*
X161995074Y-142262075D02*
X162136740Y-142191241D01*
X162136740Y-142191241D02*
X162420074Y-142191241D01*
X162420074Y-142191241D02*
X162561740Y-142262075D01*
X163907573Y-143182908D02*
X163907573Y-142403741D01*
X163907573Y-142403741D02*
X163836740Y-142262075D01*
X163836740Y-142262075D02*
X163695073Y-142191241D01*
X163695073Y-142191241D02*
X163411740Y-142191241D01*
X163411740Y-142191241D02*
X163270073Y-142262075D01*
X163907573Y-143112075D02*
X163765907Y-143182908D01*
X163765907Y-143182908D02*
X163411740Y-143182908D01*
X163411740Y-143182908D02*
X163270073Y-143112075D01*
X163270073Y-143112075D02*
X163199240Y-142970408D01*
X163199240Y-142970408D02*
X163199240Y-142828741D01*
X163199240Y-142828741D02*
X163270073Y-142687075D01*
X163270073Y-142687075D02*
X163411740Y-142616241D01*
X163411740Y-142616241D02*
X163765907Y-142616241D01*
X163765907Y-142616241D02*
X163907573Y-142545408D01*
X164615906Y-142191241D02*
X164615906Y-143182908D01*
X164615906Y-142332908D02*
X164686740Y-142262075D01*
X164686740Y-142262075D02*
X164828406Y-142191241D01*
X164828406Y-142191241D02*
X165040906Y-142191241D01*
X165040906Y-142191241D02*
X165182573Y-142262075D01*
X165182573Y-142262075D02*
X165253406Y-142403741D01*
X165253406Y-142403741D02*
X165253406Y-143182908D01*
X166032573Y-141695408D02*
X165890906Y-141978741D01*
X166599239Y-143112075D02*
X166740906Y-143182908D01*
X166740906Y-143182908D02*
X167024239Y-143182908D01*
X167024239Y-143182908D02*
X167165906Y-143112075D01*
X167165906Y-143112075D02*
X167236739Y-142970408D01*
X167236739Y-142970408D02*
X167236739Y-142899575D01*
X167236739Y-142899575D02*
X167165906Y-142757908D01*
X167165906Y-142757908D02*
X167024239Y-142687075D01*
X167024239Y-142687075D02*
X166811739Y-142687075D01*
X166811739Y-142687075D02*
X166670072Y-142616241D01*
X166670072Y-142616241D02*
X166599239Y-142474575D01*
X166599239Y-142474575D02*
X166599239Y-142403741D01*
X166599239Y-142403741D02*
X166670072Y-142262075D01*
X166670072Y-142262075D02*
X166811739Y-142191241D01*
X166811739Y-142191241D02*
X167024239Y-142191241D01*
X167024239Y-142191241D02*
X167165906Y-142262075D01*
X169007572Y-143182908D02*
X169007572Y-141695408D01*
X169007572Y-141695408D02*
X169574239Y-141695408D01*
X169574239Y-141695408D02*
X169715906Y-141766241D01*
X169715906Y-141766241D02*
X169786739Y-141837075D01*
X169786739Y-141837075D02*
X169857572Y-141978741D01*
X169857572Y-141978741D02*
X169857572Y-142191241D01*
X169857572Y-142191241D02*
X169786739Y-142332908D01*
X169786739Y-142332908D02*
X169715906Y-142403741D01*
X169715906Y-142403741D02*
X169574239Y-142474575D01*
X169574239Y-142474575D02*
X169007572Y-142474575D01*
X171061739Y-143112075D02*
X170920072Y-143182908D01*
X170920072Y-143182908D02*
X170636739Y-143182908D01*
X170636739Y-143182908D02*
X170495072Y-143112075D01*
X170495072Y-143112075D02*
X170424239Y-142970408D01*
X170424239Y-142970408D02*
X170424239Y-142403741D01*
X170424239Y-142403741D02*
X170495072Y-142262075D01*
X170495072Y-142262075D02*
X170636739Y-142191241D01*
X170636739Y-142191241D02*
X170920072Y-142191241D01*
X170920072Y-142191241D02*
X171061739Y-142262075D01*
X171061739Y-142262075D02*
X171132572Y-142403741D01*
X171132572Y-142403741D02*
X171132572Y-142545408D01*
X171132572Y-142545408D02*
X170424239Y-142687075D01*
X171770072Y-143182908D02*
X171770072Y-142191241D01*
X171770072Y-142474575D02*
X171840906Y-142332908D01*
X171840906Y-142332908D02*
X171911739Y-142262075D01*
X171911739Y-142262075D02*
X172053406Y-142191241D01*
X172053406Y-142191241D02*
X172195072Y-142191241D01*
X172620072Y-143112075D02*
X172761739Y-143182908D01*
X172761739Y-143182908D02*
X173045072Y-143182908D01*
X173045072Y-143182908D02*
X173186739Y-143112075D01*
X173186739Y-143112075D02*
X173257572Y-142970408D01*
X173257572Y-142970408D02*
X173257572Y-142899575D01*
X173257572Y-142899575D02*
X173186739Y-142757908D01*
X173186739Y-142757908D02*
X173045072Y-142687075D01*
X173045072Y-142687075D02*
X172832572Y-142687075D01*
X172832572Y-142687075D02*
X172690905Y-142616241D01*
X172690905Y-142616241D02*
X172620072Y-142474575D01*
X172620072Y-142474575D02*
X172620072Y-142403741D01*
X172620072Y-142403741D02*
X172690905Y-142262075D01*
X172690905Y-142262075D02*
X172832572Y-142191241D01*
X172832572Y-142191241D02*
X173045072Y-142191241D01*
X173045072Y-142191241D02*
X173186739Y-142262075D01*
X174107572Y-143182908D02*
X173965906Y-143112075D01*
X173965906Y-143112075D02*
X173895072Y-143041241D01*
X173895072Y-143041241D02*
X173824239Y-142899575D01*
X173824239Y-142899575D02*
X173824239Y-142474575D01*
X173824239Y-142474575D02*
X173895072Y-142332908D01*
X173895072Y-142332908D02*
X173965906Y-142262075D01*
X173965906Y-142262075D02*
X174107572Y-142191241D01*
X174107572Y-142191241D02*
X174320072Y-142191241D01*
X174320072Y-142191241D02*
X174461739Y-142262075D01*
X174461739Y-142262075D02*
X174532572Y-142332908D01*
X174532572Y-142332908D02*
X174603406Y-142474575D01*
X174603406Y-142474575D02*
X174603406Y-142899575D01*
X174603406Y-142899575D02*
X174532572Y-143041241D01*
X174532572Y-143041241D02*
X174461739Y-143112075D01*
X174461739Y-143112075D02*
X174320072Y-143182908D01*
X174320072Y-143182908D02*
X174107572Y-143182908D01*
X175240905Y-142191241D02*
X175240905Y-143182908D01*
X175240905Y-142332908D02*
X175311739Y-142262075D01*
X175311739Y-142262075D02*
X175453405Y-142191241D01*
X175453405Y-142191241D02*
X175665905Y-142191241D01*
X175665905Y-142191241D02*
X175807572Y-142262075D01*
X175807572Y-142262075D02*
X175878405Y-142403741D01*
X175878405Y-142403741D02*
X175878405Y-143182908D01*
X177224238Y-143182908D02*
X177224238Y-142403741D01*
X177224238Y-142403741D02*
X177153405Y-142262075D01*
X177153405Y-142262075D02*
X177011738Y-142191241D01*
X177011738Y-142191241D02*
X176728405Y-142191241D01*
X176728405Y-142191241D02*
X176586738Y-142262075D01*
X177224238Y-143112075D02*
X177082572Y-143182908D01*
X177082572Y-143182908D02*
X176728405Y-143182908D01*
X176728405Y-143182908D02*
X176586738Y-143112075D01*
X176586738Y-143112075D02*
X176515905Y-142970408D01*
X176515905Y-142970408D02*
X176515905Y-142828741D01*
X176515905Y-142828741D02*
X176586738Y-142687075D01*
X176586738Y-142687075D02*
X176728405Y-142616241D01*
X176728405Y-142616241D02*
X177082572Y-142616241D01*
X177082572Y-142616241D02*
X177224238Y-142545408D01*
X178145071Y-143182908D02*
X178003405Y-143112075D01*
X178003405Y-143112075D02*
X177932571Y-142970408D01*
X177932571Y-142970408D02*
X177932571Y-141695408D01*
X178711738Y-143182908D02*
X178711738Y-142191241D01*
X178711738Y-141695408D02*
X178640905Y-141766241D01*
X178640905Y-141766241D02*
X178711738Y-141837075D01*
X178711738Y-141837075D02*
X178782572Y-141766241D01*
X178782572Y-141766241D02*
X178711738Y-141695408D01*
X178711738Y-141695408D02*
X178711738Y-141837075D01*
X179349238Y-143112075D02*
X179490905Y-143182908D01*
X179490905Y-143182908D02*
X179774238Y-143182908D01*
X179774238Y-143182908D02*
X179915905Y-143112075D01*
X179915905Y-143112075D02*
X179986738Y-142970408D01*
X179986738Y-142970408D02*
X179986738Y-142899575D01*
X179986738Y-142899575D02*
X179915905Y-142757908D01*
X179915905Y-142757908D02*
X179774238Y-142687075D01*
X179774238Y-142687075D02*
X179561738Y-142687075D01*
X179561738Y-142687075D02*
X179420071Y-142616241D01*
X179420071Y-142616241D02*
X179349238Y-142474575D01*
X179349238Y-142474575D02*
X179349238Y-142403741D01*
X179349238Y-142403741D02*
X179420071Y-142262075D01*
X179420071Y-142262075D02*
X179561738Y-142191241D01*
X179561738Y-142191241D02*
X179774238Y-142191241D01*
X179774238Y-142191241D02*
X179915905Y-142262075D01*
X181190905Y-143112075D02*
X181049238Y-143182908D01*
X181049238Y-143182908D02*
X180765905Y-143182908D01*
X180765905Y-143182908D02*
X180624238Y-143112075D01*
X180624238Y-143112075D02*
X180553405Y-142970408D01*
X180553405Y-142970408D02*
X180553405Y-142403741D01*
X180553405Y-142403741D02*
X180624238Y-142262075D01*
X180624238Y-142262075D02*
X180765905Y-142191241D01*
X180765905Y-142191241D02*
X181049238Y-142191241D01*
X181049238Y-142191241D02*
X181190905Y-142262075D01*
X181190905Y-142262075D02*
X181261738Y-142403741D01*
X181261738Y-142403741D02*
X181261738Y-142545408D01*
X181261738Y-142545408D02*
X180553405Y-142687075D01*
X182536738Y-143182908D02*
X182536738Y-141695408D01*
X182536738Y-143112075D02*
X182395072Y-143182908D01*
X182395072Y-143182908D02*
X182111738Y-143182908D01*
X182111738Y-143182908D02*
X181970072Y-143112075D01*
X181970072Y-143112075D02*
X181899238Y-143041241D01*
X181899238Y-143041241D02*
X181828405Y-142899575D01*
X181828405Y-142899575D02*
X181828405Y-142474575D01*
X181828405Y-142474575D02*
X181899238Y-142332908D01*
X181899238Y-142332908D02*
X181970072Y-142262075D01*
X181970072Y-142262075D02*
X182111738Y-142191241D01*
X182111738Y-142191241D02*
X182395072Y-142191241D01*
X182395072Y-142191241D02*
X182536738Y-142262075D01*
X184307571Y-143112075D02*
X184520071Y-143182908D01*
X184520071Y-143182908D02*
X184874238Y-143182908D01*
X184874238Y-143182908D02*
X185015904Y-143112075D01*
X185015904Y-143112075D02*
X185086738Y-143041241D01*
X185086738Y-143041241D02*
X185157571Y-142899575D01*
X185157571Y-142899575D02*
X185157571Y-142757908D01*
X185157571Y-142757908D02*
X185086738Y-142616241D01*
X185086738Y-142616241D02*
X185015904Y-142545408D01*
X185015904Y-142545408D02*
X184874238Y-142474575D01*
X184874238Y-142474575D02*
X184590904Y-142403741D01*
X184590904Y-142403741D02*
X184449238Y-142332908D01*
X184449238Y-142332908D02*
X184378404Y-142262075D01*
X184378404Y-142262075D02*
X184307571Y-142120408D01*
X184307571Y-142120408D02*
X184307571Y-141978741D01*
X184307571Y-141978741D02*
X184378404Y-141837075D01*
X184378404Y-141837075D02*
X184449238Y-141766241D01*
X184449238Y-141766241D02*
X184590904Y-141695408D01*
X184590904Y-141695408D02*
X184945071Y-141695408D01*
X184945071Y-141695408D02*
X185157571Y-141766241D01*
X185795071Y-143182908D02*
X185795071Y-142191241D01*
X185795071Y-142332908D02*
X185865905Y-142262075D01*
X185865905Y-142262075D02*
X186007571Y-142191241D01*
X186007571Y-142191241D02*
X186220071Y-142191241D01*
X186220071Y-142191241D02*
X186361738Y-142262075D01*
X186361738Y-142262075D02*
X186432571Y-142403741D01*
X186432571Y-142403741D02*
X186432571Y-143182908D01*
X186432571Y-142403741D02*
X186503405Y-142262075D01*
X186503405Y-142262075D02*
X186645071Y-142191241D01*
X186645071Y-142191241D02*
X186857571Y-142191241D01*
X186857571Y-142191241D02*
X186999238Y-142262075D01*
X186999238Y-142262075D02*
X187070071Y-142403741D01*
X187070071Y-142403741D02*
X187070071Y-143182908D01*
X188415904Y-143182908D02*
X188415904Y-142403741D01*
X188415904Y-142403741D02*
X188345071Y-142262075D01*
X188345071Y-142262075D02*
X188203404Y-142191241D01*
X188203404Y-142191241D02*
X187920071Y-142191241D01*
X187920071Y-142191241D02*
X187778404Y-142262075D01*
X188415904Y-143112075D02*
X188274238Y-143182908D01*
X188274238Y-143182908D02*
X187920071Y-143182908D01*
X187920071Y-143182908D02*
X187778404Y-143112075D01*
X187778404Y-143112075D02*
X187707571Y-142970408D01*
X187707571Y-142970408D02*
X187707571Y-142828741D01*
X187707571Y-142828741D02*
X187778404Y-142687075D01*
X187778404Y-142687075D02*
X187920071Y-142616241D01*
X187920071Y-142616241D02*
X188274238Y-142616241D01*
X188274238Y-142616241D02*
X188415904Y-142545408D01*
X189124237Y-143182908D02*
X189124237Y-142191241D01*
X189124237Y-142474575D02*
X189195071Y-142332908D01*
X189195071Y-142332908D02*
X189265904Y-142262075D01*
X189265904Y-142262075D02*
X189407571Y-142191241D01*
X189407571Y-142191241D02*
X189549237Y-142191241D01*
X189832570Y-142191241D02*
X190399237Y-142191241D01*
X190045070Y-141695408D02*
X190045070Y-142970408D01*
X190045070Y-142970408D02*
X190115904Y-143112075D01*
X190115904Y-143112075D02*
X190257570Y-143182908D01*
X190257570Y-143182908D02*
X190399237Y-143182908D01*
X190895070Y-142191241D02*
X190895070Y-143678741D01*
X190895070Y-142262075D02*
X191036737Y-142191241D01*
X191036737Y-142191241D02*
X191320070Y-142191241D01*
X191320070Y-142191241D02*
X191461737Y-142262075D01*
X191461737Y-142262075D02*
X191532570Y-142332908D01*
X191532570Y-142332908D02*
X191603404Y-142474575D01*
X191603404Y-142474575D02*
X191603404Y-142899575D01*
X191603404Y-142899575D02*
X191532570Y-143041241D01*
X191532570Y-143041241D02*
X191461737Y-143112075D01*
X191461737Y-143112075D02*
X191320070Y-143182908D01*
X191320070Y-143182908D02*
X191036737Y-143182908D01*
X191036737Y-143182908D02*
X190895070Y-143112075D01*
X192878403Y-143182908D02*
X192878403Y-142403741D01*
X192878403Y-142403741D02*
X192807570Y-142262075D01*
X192807570Y-142262075D02*
X192665903Y-142191241D01*
X192665903Y-142191241D02*
X192382570Y-142191241D01*
X192382570Y-142191241D02*
X192240903Y-142262075D01*
X192878403Y-143112075D02*
X192736737Y-143182908D01*
X192736737Y-143182908D02*
X192382570Y-143182908D01*
X192382570Y-143182908D02*
X192240903Y-143112075D01*
X192240903Y-143112075D02*
X192170070Y-142970408D01*
X192170070Y-142970408D02*
X192170070Y-142828741D01*
X192170070Y-142828741D02*
X192240903Y-142687075D01*
X192240903Y-142687075D02*
X192382570Y-142616241D01*
X192382570Y-142616241D02*
X192736737Y-142616241D01*
X192736737Y-142616241D02*
X192878403Y-142545408D01*
X194224236Y-143182908D02*
X194224236Y-141695408D01*
X194224236Y-143112075D02*
X194082570Y-143182908D01*
X194082570Y-143182908D02*
X193799236Y-143182908D01*
X193799236Y-143182908D02*
X193657570Y-143112075D01*
X193657570Y-143112075D02*
X193586736Y-143041241D01*
X193586736Y-143041241D02*
X193515903Y-142899575D01*
X193515903Y-142899575D02*
X193515903Y-142474575D01*
X193515903Y-142474575D02*
X193586736Y-142332908D01*
X193586736Y-142332908D02*
X193657570Y-142262075D01*
X193657570Y-142262075D02*
X193799236Y-142191241D01*
X193799236Y-142191241D02*
X194082570Y-142191241D01*
X194082570Y-142191241D02*
X194224236Y-142262075D01*
D11*
X115096729Y-94858741D02*
X115187801Y-94889098D01*
X115187801Y-94889098D02*
X115218158Y-94919455D01*
X115218158Y-94919455D02*
X115248515Y-94980170D01*
X115248515Y-94980170D02*
X115248515Y-95071241D01*
X115248515Y-95071241D02*
X115218158Y-95131955D01*
X115218158Y-95131955D02*
X115187801Y-95162313D01*
X115187801Y-95162313D02*
X115127086Y-95192670D01*
X115127086Y-95192670D02*
X114884229Y-95192670D01*
X114884229Y-95192670D02*
X114884229Y-94555170D01*
X114884229Y-94555170D02*
X115096729Y-94555170D01*
X115096729Y-94555170D02*
X115157444Y-94585527D01*
X115157444Y-94585527D02*
X115187801Y-94615884D01*
X115187801Y-94615884D02*
X115218158Y-94676598D01*
X115218158Y-94676598D02*
X115218158Y-94737313D01*
X115218158Y-94737313D02*
X115187801Y-94798027D01*
X115187801Y-94798027D02*
X115157444Y-94828384D01*
X115157444Y-94828384D02*
X115096729Y-94858741D01*
X115096729Y-94858741D02*
X114884229Y-94858741D01*
X115461015Y-94555170D02*
X115855658Y-94555170D01*
X115855658Y-94555170D02*
X115643158Y-94798027D01*
X115643158Y-94798027D02*
X115734229Y-94798027D01*
X115734229Y-94798027D02*
X115794944Y-94828384D01*
X115794944Y-94828384D02*
X115825301Y-94858741D01*
X115825301Y-94858741D02*
X115855658Y-94919455D01*
X115855658Y-94919455D02*
X115855658Y-95071241D01*
X115855658Y-95071241D02*
X115825301Y-95131955D01*
X115825301Y-95131955D02*
X115794944Y-95162313D01*
X115794944Y-95162313D02*
X115734229Y-95192670D01*
X115734229Y-95192670D02*
X115552086Y-95192670D01*
X115552086Y-95192670D02*
X115491372Y-95162313D01*
X115491372Y-95162313D02*
X115461015Y-95131955D01*
X104276898Y-82492670D02*
X104276898Y-81855170D01*
X104276898Y-81855170D02*
X104428684Y-81855170D01*
X104428684Y-81855170D02*
X104519755Y-81885527D01*
X104519755Y-81885527D02*
X104580470Y-81946241D01*
X104580470Y-81946241D02*
X104610827Y-82006955D01*
X104610827Y-82006955D02*
X104641184Y-82128384D01*
X104641184Y-82128384D02*
X104641184Y-82219455D01*
X104641184Y-82219455D02*
X104610827Y-82340884D01*
X104610827Y-82340884D02*
X104580470Y-82401598D01*
X104580470Y-82401598D02*
X104519755Y-82462313D01*
X104519755Y-82462313D02*
X104428684Y-82492670D01*
X104428684Y-82492670D02*
X104276898Y-82492670D01*
X105248327Y-82492670D02*
X104884041Y-82492670D01*
X105066184Y-82492670D02*
X105066184Y-81855170D01*
X105066184Y-81855170D02*
X105005470Y-81946241D01*
X105005470Y-81946241D02*
X104944755Y-82006955D01*
X104944755Y-82006955D02*
X104884041Y-82037313D01*
X115187800Y-82158741D02*
X114975300Y-82158741D01*
X114975300Y-82492670D02*
X114975300Y-81855170D01*
X114975300Y-81855170D02*
X115278872Y-81855170D01*
X115794944Y-82067670D02*
X115794944Y-82492670D01*
X115643158Y-81824813D02*
X115491372Y-82280170D01*
X115491372Y-82280170D02*
X115886015Y-82280170D01*
X104610827Y-79345527D02*
X104550113Y-79315170D01*
X104550113Y-79315170D02*
X104459041Y-79315170D01*
X104459041Y-79315170D02*
X104367970Y-79345527D01*
X104367970Y-79345527D02*
X104307255Y-79406241D01*
X104307255Y-79406241D02*
X104276898Y-79466955D01*
X104276898Y-79466955D02*
X104246541Y-79588384D01*
X104246541Y-79588384D02*
X104246541Y-79679455D01*
X104246541Y-79679455D02*
X104276898Y-79800884D01*
X104276898Y-79800884D02*
X104307255Y-79861598D01*
X104307255Y-79861598D02*
X104367970Y-79922313D01*
X104367970Y-79922313D02*
X104459041Y-79952670D01*
X104459041Y-79952670D02*
X104519755Y-79952670D01*
X104519755Y-79952670D02*
X104610827Y-79922313D01*
X104610827Y-79922313D02*
X104641184Y-79891955D01*
X104641184Y-79891955D02*
X104641184Y-79679455D01*
X104641184Y-79679455D02*
X104519755Y-79679455D01*
X104914398Y-79952670D02*
X104914398Y-79315170D01*
X104914398Y-79315170D02*
X105278684Y-79952670D01*
X105278684Y-79952670D02*
X105278684Y-79315170D01*
X105582255Y-79952670D02*
X105582255Y-79315170D01*
X105582255Y-79315170D02*
X105734041Y-79315170D01*
X105734041Y-79315170D02*
X105825112Y-79345527D01*
X105825112Y-79345527D02*
X105885827Y-79406241D01*
X105885827Y-79406241D02*
X105916184Y-79466955D01*
X105916184Y-79466955D02*
X105946541Y-79588384D01*
X105946541Y-79588384D02*
X105946541Y-79679455D01*
X105946541Y-79679455D02*
X105916184Y-79800884D01*
X105916184Y-79800884D02*
X105885827Y-79861598D01*
X105885827Y-79861598D02*
X105825112Y-79922313D01*
X105825112Y-79922313D02*
X105734041Y-79952670D01*
X105734041Y-79952670D02*
X105582255Y-79952670D01*
D13*
X102474819Y-139657143D02*
X101998628Y-139990476D01*
X102474819Y-140228571D02*
X101474819Y-140228571D01*
X101474819Y-140228571D02*
X101474819Y-139847619D01*
X101474819Y-139847619D02*
X101522438Y-139752381D01*
X101522438Y-139752381D02*
X101570057Y-139704762D01*
X101570057Y-139704762D02*
X101665295Y-139657143D01*
X101665295Y-139657143D02*
X101808152Y-139657143D01*
X101808152Y-139657143D02*
X101903390Y-139704762D01*
X101903390Y-139704762D02*
X101951009Y-139752381D01*
X101951009Y-139752381D02*
X101998628Y-139847619D01*
X101998628Y-139847619D02*
X101998628Y-140228571D01*
X101951009Y-139228571D02*
X101951009Y-138895238D01*
X102474819Y-138752381D02*
X102474819Y-139228571D01*
X102474819Y-139228571D02*
X101474819Y-139228571D01*
X101474819Y-139228571D02*
X101474819Y-138752381D01*
X102570057Y-138561905D02*
X102570057Y-137800000D01*
X101474819Y-137657142D02*
X101474819Y-137038095D01*
X101474819Y-137038095D02*
X101855771Y-137371428D01*
X101855771Y-137371428D02*
X101855771Y-137228571D01*
X101855771Y-137228571D02*
X101903390Y-137133333D01*
X101903390Y-137133333D02*
X101951009Y-137085714D01*
X101951009Y-137085714D02*
X102046247Y-137038095D01*
X102046247Y-137038095D02*
X102284342Y-137038095D01*
X102284342Y-137038095D02*
X102379580Y-137085714D01*
X102379580Y-137085714D02*
X102427200Y-137133333D01*
X102427200Y-137133333D02*
X102474819Y-137228571D01*
X102474819Y-137228571D02*
X102474819Y-137514285D01*
X102474819Y-137514285D02*
X102427200Y-137609523D01*
X102427200Y-137609523D02*
X102379580Y-137657142D01*
X102570057Y-136847619D02*
X102570057Y-136085714D01*
X102474819Y-135323809D02*
X102474819Y-135895237D01*
X102474819Y-135609523D02*
X101474819Y-135609523D01*
X101474819Y-135609523D02*
X101617676Y-135704761D01*
X101617676Y-135704761D02*
X101712914Y-135799999D01*
X101712914Y-135799999D02*
X101760533Y-135895237D01*
D14*
%TO.C,S17*%
X107003100Y-119975600D02*
X107003100Y-122019600D01*
X107892100Y-124051600D02*
X112210100Y-124051600D01*
X112210100Y-117955600D02*
X107892100Y-117955600D01*
X113099100Y-120005600D02*
X113099100Y-122019600D01*
X111829100Y-121003600D02*
G75*
G02*
X108273100Y-121003600I-1778000J0D01*
G01*
X108273100Y-121003600D02*
G75*
G02*
X111829100Y-121003600I1778000J0D01*
G01*
D15*
%TO.C,RE_3_1*%
X103320000Y-127000000D02*
X105720000Y-127000000D01*
X103320000Y-131100000D02*
X103320000Y-127000000D01*
X103320000Y-135100000D02*
X103320000Y-139200000D01*
X103320000Y-139200000D02*
X115120000Y-139200000D01*
X105120000Y-140300000D02*
X105420000Y-140600000D01*
X105120000Y-140900000D02*
X105120000Y-140300000D01*
X105420000Y-140600000D02*
X105120000Y-140900000D01*
X107920000Y-127000000D02*
X110520000Y-127000000D01*
X108720000Y-133100000D02*
X109720000Y-133100000D01*
X109220000Y-133600000D02*
X109220000Y-132600000D01*
X112720000Y-127000000D02*
X115120000Y-127000000D01*
X115120000Y-127000000D02*
X115120000Y-131100000D01*
X115120000Y-135100000D02*
X115120000Y-139200000D01*
X112220000Y-133100000D02*
G75*
G02*
X106220000Y-133100000I-3000000J0D01*
G01*
X106220000Y-133100000D02*
G75*
G02*
X112220000Y-133100000I3000000J0D01*
G01*
D14*
%TO.C,R3*%
X107511100Y-114741600D02*
X112591100Y-114741600D01*
X107511100Y-115503600D02*
X107257100Y-115503600D01*
X107511100Y-115503600D02*
X107511100Y-114741600D01*
X107511100Y-116265600D02*
X107511100Y-115503600D01*
X112591100Y-114741600D02*
X112591100Y-115503600D01*
X112591100Y-115503600D02*
X112591100Y-116265600D01*
X112591100Y-115503600D02*
X112845100Y-115503600D01*
X112591100Y-116265600D02*
X107511100Y-116265600D01*
%TO.C,R1*%
X107511100Y-109241600D02*
X112591100Y-109241600D01*
X107511100Y-110003600D02*
X107257100Y-110003600D01*
X107511100Y-110003600D02*
X107511100Y-109241600D01*
X107511100Y-110765600D02*
X107511100Y-110003600D01*
X112591100Y-109241600D02*
X112591100Y-110003600D01*
X112591100Y-110003600D02*
X112591100Y-110765600D01*
X112591100Y-110003600D02*
X112845100Y-110003600D01*
X112591100Y-110765600D02*
X107511100Y-110765600D01*
D16*
%TO.C,D18*%
X108755700Y-107078400D02*
X109212900Y-107078400D01*
X111346500Y-107078400D02*
X110838500Y-107078400D01*
X108019100Y-105503600D02*
G75*
G02*
X109042900Y-103739300I2031996J59D01*
G01*
X108738500Y-107054800D02*
G75*
G02*
X108019100Y-105503600I1312603J1551164D01*
G01*
X111007300Y-103710700D02*
G75*
G02*
X112083100Y-105503600I-956200J-1792960D01*
G01*
X112083100Y-105503600D02*
G75*
G02*
X111352000Y-107064600I-2031997J-14D01*
G01*
%TO.C,D19*%
X114005700Y-107078400D02*
X114462900Y-107078400D01*
X116596500Y-107078400D02*
X116088500Y-107078400D01*
X113269100Y-105503600D02*
G75*
G02*
X114292900Y-103739300I2031996J59D01*
G01*
X113988500Y-107054800D02*
G75*
G02*
X113269100Y-105503600I1312603J1551164D01*
G01*
X116257300Y-103710700D02*
G75*
G02*
X117333100Y-105503600I-956200J-1792960D01*
G01*
X117333100Y-105503600D02*
G75*
G02*
X116602000Y-107064600I-2031997J-14D01*
G01*
%TO.C,D17*%
X103505700Y-107078400D02*
X103962900Y-107078400D01*
X106096500Y-107078400D02*
X105588500Y-107078400D01*
X102769100Y-105503600D02*
G75*
G02*
X103792900Y-103739300I2031996J59D01*
G01*
X103488500Y-107054800D02*
G75*
G02*
X102769100Y-105503600I1312603J1551164D01*
G01*
X105757300Y-103710700D02*
G75*
G02*
X106833100Y-105503600I-956200J-1792960D01*
G01*
X106833100Y-105503600D02*
G75*
G02*
X106102000Y-107064600I-2031997J-14D01*
G01*
D14*
%TO.C,R2*%
X107511100Y-111991600D02*
X112591100Y-111991600D01*
X107511100Y-112753600D02*
X107257100Y-112753600D01*
X107511100Y-112753600D02*
X107511100Y-111991600D01*
X107511100Y-113515600D02*
X107511100Y-112753600D01*
X112591100Y-111991600D02*
X112591100Y-112753600D01*
X112591100Y-112753600D02*
X112591100Y-113515600D01*
X112591100Y-112753600D02*
X112845100Y-112753600D01*
X112591100Y-113515600D02*
X107511100Y-113515600D01*
D17*
%TO.C,S1*%
X122201100Y-69268600D02*
X122201100Y-71173600D01*
X122201100Y-81333600D02*
X122201100Y-83238600D01*
X122201100Y-83238600D02*
X123701100Y-83238600D01*
X123701100Y-69268600D02*
X122201100Y-69268600D01*
X136301100Y-83238600D02*
X137801100Y-83238600D01*
X137801100Y-69268600D02*
X136351100Y-69268600D01*
X137801100Y-71173600D02*
X137801100Y-69268600D01*
X137801100Y-83238600D02*
X137801100Y-81333600D01*
%TO.C,S15*%
X160301100Y-126418600D02*
X160301100Y-128323600D01*
X160301100Y-138483600D02*
X160301100Y-140388600D01*
X160301100Y-140388600D02*
X161801100Y-140388600D01*
X161801100Y-126418600D02*
X160301100Y-126418600D01*
X174401100Y-140388600D02*
X175901100Y-140388600D01*
X175901100Y-126418600D02*
X174451100Y-126418600D01*
X175901100Y-128323600D02*
X175901100Y-126418600D01*
X175901100Y-140388600D02*
X175901100Y-138483600D01*
%TO.C,S8*%
X179351100Y-88318600D02*
X179351100Y-90223600D01*
X179351100Y-100383600D02*
X179351100Y-102288600D01*
X179351100Y-102288600D02*
X180851100Y-102288600D01*
X180851100Y-88318600D02*
X179351100Y-88318600D01*
X193451100Y-102288600D02*
X194951100Y-102288600D01*
X194951100Y-88318600D02*
X193501100Y-88318600D01*
X194951100Y-90223600D02*
X194951100Y-88318600D01*
X194951100Y-102288600D02*
X194951100Y-100383600D01*
%TO.C,S2*%
X141251100Y-69268600D02*
X141251100Y-71173600D01*
X141251100Y-81333600D02*
X141251100Y-83238600D01*
X141251100Y-83238600D02*
X142751100Y-83238600D01*
X142751100Y-69268600D02*
X141251100Y-69268600D01*
X155351100Y-83238600D02*
X156851100Y-83238600D01*
X156851100Y-69268600D02*
X155401100Y-69268600D01*
X156851100Y-71173600D02*
X156851100Y-69268600D01*
X156851100Y-83238600D02*
X156851100Y-81333600D01*
%TO.C,S4*%
X179351100Y-69268600D02*
X179351100Y-71173600D01*
X179351100Y-81333600D02*
X179351100Y-83238600D01*
X179351100Y-83238600D02*
X180851100Y-83238600D01*
X180851100Y-69268600D02*
X179351100Y-69268600D01*
X193451100Y-83238600D02*
X194951100Y-83238600D01*
X194951100Y-69268600D02*
X193501100Y-69268600D01*
X194951100Y-71173600D02*
X194951100Y-69268600D01*
X194951100Y-83238600D02*
X194951100Y-81333600D01*
%TO.C,S5*%
X122201100Y-88318600D02*
X122201100Y-90223600D01*
X122201100Y-100383600D02*
X122201100Y-102288600D01*
X122201100Y-102288600D02*
X123701100Y-102288600D01*
X123701100Y-88318600D02*
X122201100Y-88318600D01*
X136301100Y-102288600D02*
X137801100Y-102288600D01*
X137801100Y-88318600D02*
X136351100Y-88318600D01*
X137801100Y-90223600D02*
X137801100Y-88318600D01*
X137801100Y-102288600D02*
X137801100Y-100383600D01*
%TO.C,S14*%
X141251100Y-126418600D02*
X141251100Y-128323600D01*
X141251100Y-138483600D02*
X141251100Y-140388600D01*
X141251100Y-140388600D02*
X142751100Y-140388600D01*
X142751100Y-126418600D02*
X141251100Y-126418600D01*
X155351100Y-140388600D02*
X156851100Y-140388600D01*
X156851100Y-126418600D02*
X155401100Y-126418600D01*
X156851100Y-128323600D02*
X156851100Y-126418600D01*
X156851100Y-140388600D02*
X156851100Y-138483600D01*
%TO.C,S11*%
X160301100Y-107368600D02*
X160301100Y-109273600D01*
X160301100Y-119433600D02*
X160301100Y-121338600D01*
X160301100Y-121338600D02*
X161801100Y-121338600D01*
X161801100Y-107368600D02*
X160301100Y-107368600D01*
X174401100Y-121338600D02*
X175901100Y-121338600D01*
X175901100Y-107368600D02*
X174451100Y-107368600D01*
X175901100Y-109273600D02*
X175901100Y-107368600D01*
X175901100Y-121338600D02*
X175901100Y-119433600D01*
%TO.C,S7*%
X160301100Y-88318600D02*
X160301100Y-90223600D01*
X160301100Y-100383600D02*
X160301100Y-102288600D01*
X160301100Y-102288600D02*
X161801100Y-102288600D01*
X161801100Y-88318600D02*
X160301100Y-88318600D01*
X174401100Y-102288600D02*
X175901100Y-102288600D01*
X175901100Y-88318600D02*
X174451100Y-88318600D01*
X175901100Y-90223600D02*
X175901100Y-88318600D01*
X175901100Y-102288600D02*
X175901100Y-100383600D01*
%TO.C,S6*%
X141251100Y-88318600D02*
X141251100Y-90223600D01*
X141251100Y-100383600D02*
X141251100Y-102288600D01*
X141251100Y-102288600D02*
X142751100Y-102288600D01*
X142751100Y-88318600D02*
X141251100Y-88318600D01*
X155351100Y-102288600D02*
X156851100Y-102288600D01*
X156851100Y-88318600D02*
X155401100Y-88318600D01*
X156851100Y-90223600D02*
X156851100Y-88318600D01*
X156851100Y-102288600D02*
X156851100Y-100383600D01*
%TO.C,S12*%
X179351100Y-107368600D02*
X179351100Y-109273600D01*
X179351100Y-119433600D02*
X179351100Y-121338600D01*
X179351100Y-121338600D02*
X180851100Y-121338600D01*
X180851100Y-107368600D02*
X179351100Y-107368600D01*
X193451100Y-121338600D02*
X194951100Y-121338600D01*
X194951100Y-107368600D02*
X193501100Y-107368600D01*
X194951100Y-109273600D02*
X194951100Y-107368600D01*
X194951100Y-121338600D02*
X194951100Y-119433600D01*
%TO.C,S3*%
X160301100Y-69268600D02*
X160301100Y-71173600D01*
X160301100Y-81333600D02*
X160301100Y-83238600D01*
X160301100Y-83238600D02*
X161801100Y-83238600D01*
X161801100Y-69268600D02*
X160301100Y-69268600D01*
X174401100Y-83238600D02*
X175901100Y-83238600D01*
X175901100Y-69268600D02*
X174451100Y-69268600D01*
X175901100Y-71173600D02*
X175901100Y-69268600D01*
X175901100Y-83238600D02*
X175901100Y-81333600D01*
%TO.C,S13*%
X122201100Y-126422200D02*
X122201100Y-128327200D01*
X122201100Y-138487200D02*
X122201100Y-140392200D01*
X122201100Y-140392200D02*
X123701100Y-140392200D01*
X123701100Y-126422200D02*
X122201100Y-126422200D01*
X136301100Y-140392200D02*
X137801100Y-140392200D01*
X137801100Y-126422200D02*
X136351100Y-126422200D01*
X137801100Y-128327200D02*
X137801100Y-126422200D01*
X137801100Y-140392200D02*
X137801100Y-138487200D01*
%TO.C,S9*%
X122201100Y-107368600D02*
X122201100Y-109273600D01*
X122201100Y-119433600D02*
X122201100Y-121338600D01*
X122201100Y-121338600D02*
X123701100Y-121338600D01*
X123701100Y-107368600D02*
X122201100Y-107368600D01*
X136301100Y-121338600D02*
X137801100Y-121338600D01*
X137801100Y-107368600D02*
X136351100Y-107368600D01*
X137801100Y-109273600D02*
X137801100Y-107368600D01*
X137801100Y-121338600D02*
X137801100Y-119433600D01*
%TO.C,S16*%
X179351100Y-126422200D02*
X179351100Y-128327200D01*
X179351100Y-138487200D02*
X179351100Y-140392200D01*
X179351100Y-140392200D02*
X180851100Y-140392200D01*
X180851100Y-126422200D02*
X179351100Y-126422200D01*
X193451100Y-140392200D02*
X194951100Y-140392200D01*
X194951100Y-126422200D02*
X193501100Y-126422200D01*
X194951100Y-128327200D02*
X194951100Y-126422200D01*
X194951100Y-140392200D02*
X194951100Y-138487200D01*
%TO.C,S10*%
X141251100Y-107368600D02*
X141251100Y-109273600D01*
X141251100Y-119433600D02*
X141251100Y-121338600D01*
X141251100Y-121338600D02*
X142751100Y-121338600D01*
X142751100Y-107368600D02*
X141251100Y-107368600D01*
X155351100Y-121338600D02*
X156851100Y-121338600D01*
X156851100Y-107368600D02*
X155401100Y-107368600D01*
X156851100Y-109273600D02*
X156851100Y-107368600D01*
X156851100Y-121338600D02*
X156851100Y-119433600D01*
%TD*%
%LPC*%
D18*
%TO.C,S17*%
X106799900Y-118743000D03*
X113302300Y-118743000D03*
X106799900Y-123264200D03*
X113302300Y-123264200D03*
%TD*%
D19*
%TO.C,REF\u002A\u002A*%
X138576100Y-124828600D03*
%TD*%
%TO.C,REF\u002A\u002A*%
X178576100Y-124828600D03*
%TD*%
D18*
%TO.C,B1*%
X102431100Y-72053600D03*
X102431100Y-74593600D03*
X102431100Y-77133600D03*
X102431100Y-79673600D03*
X102431100Y-82213600D03*
X102431100Y-84753600D03*
X102431100Y-87293600D03*
X102431100Y-89833600D03*
X102431100Y-92373600D03*
X102431100Y-94913600D03*
X102431100Y-97453600D03*
X102431100Y-99993600D03*
X117671100Y-99993600D03*
X117671100Y-97453600D03*
X117671100Y-94913600D03*
X117671100Y-92373600D03*
X117671100Y-89833600D03*
X117671100Y-87293600D03*
X117671100Y-84753600D03*
X117671100Y-82213600D03*
X117671100Y-79673600D03*
X117671100Y-77133600D03*
X117671100Y-74593600D03*
X117671100Y-72053600D03*
%TD*%
D20*
%TO.C,RE_3_1*%
X106720000Y-140600000D03*
D21*
X111720000Y-140600000D03*
X109220000Y-140600000D03*
D22*
X103620000Y-133100000D03*
X114820000Y-133100000D03*
D21*
X111720000Y-126100000D03*
X106720000Y-126100000D03*
%TD*%
D18*
%TO.C,R3*%
X106241100Y-115503600D03*
X113861100Y-115503600D03*
%TD*%
%TO.C,R1*%
X106241100Y-110003600D03*
X113861100Y-110003600D03*
%TD*%
%TO.C,D18*%
X110051100Y-104233600D03*
X110051100Y-106773600D03*
%TD*%
%TO.C,D19*%
X115301100Y-104233600D03*
X115301100Y-106773600D03*
%TD*%
D19*
%TO.C,REF\u002A\u002A*%
X138576100Y-84828600D03*
%TD*%
D18*
%TO.C,D17*%
X104801100Y-104233600D03*
X104801100Y-106773600D03*
%TD*%
%TO.C,R2*%
X106241100Y-112753600D03*
X113861100Y-112753600D03*
%TD*%
D19*
%TO.C,REF\u002A\u002A*%
X178576100Y-84828600D03*
%TD*%
D23*
%TO.C,S1*%
X135081100Y-76253600D03*
D24*
X130001100Y-76253600D03*
D23*
X124921100Y-76253600D03*
D25*
X132541100Y-71173600D03*
X126191100Y-73713600D03*
%TD*%
D26*
%TO.C,D10*%
X158750000Y-109220000D03*
X158750000Y-116840000D03*
%TD*%
D23*
%TO.C,S15*%
X173181100Y-133403600D03*
D24*
X168101100Y-133403600D03*
D23*
X163021100Y-133403600D03*
D25*
X170641100Y-128323600D03*
X164291100Y-130863600D03*
%TD*%
D23*
%TO.C,S8*%
X192231100Y-95303600D03*
D24*
X187151100Y-95303600D03*
D23*
X182071100Y-95303600D03*
D25*
X189691100Y-90223600D03*
X183341100Y-92763600D03*
%TD*%
D23*
%TO.C,S2*%
X154131100Y-76253600D03*
D24*
X149051100Y-76253600D03*
D23*
X143971100Y-76253600D03*
D25*
X151591100Y-71173600D03*
X145241100Y-73713600D03*
%TD*%
D26*
%TO.C,D8*%
X190961100Y-86360000D03*
X183341100Y-86360000D03*
%TD*%
%TO.C,D6*%
X158576100Y-90170000D03*
X158576100Y-97790000D03*
%TD*%
D23*
%TO.C,S4*%
X192231100Y-76253600D03*
D24*
X187151100Y-76253600D03*
D23*
X182071100Y-76253600D03*
D25*
X189691100Y-71173600D03*
X183341100Y-73713600D03*
%TD*%
D23*
%TO.C,S5*%
X135081100Y-95303600D03*
D24*
X130001100Y-95303600D03*
D23*
X124921100Y-95303600D03*
D25*
X132541100Y-90223600D03*
X126191100Y-92763600D03*
%TD*%
D26*
%TO.C,D4*%
X190961100Y-67310000D03*
X183341100Y-67310000D03*
%TD*%
D23*
%TO.C,S14*%
X154131100Y-133403600D03*
D24*
X149051100Y-133403600D03*
D23*
X143971100Y-133403600D03*
D25*
X151591100Y-128323600D03*
X145241100Y-130863600D03*
%TD*%
D23*
%TO.C,S11*%
X173181100Y-114353600D03*
D24*
X168101100Y-114353600D03*
D23*
X163021100Y-114353600D03*
D25*
X170641100Y-109273600D03*
X164291100Y-111813600D03*
%TD*%
D23*
%TO.C,S7*%
X173181100Y-95303600D03*
D24*
X168101100Y-95303600D03*
D23*
X163021100Y-95303600D03*
D25*
X170641100Y-90223600D03*
X164291100Y-92763600D03*
%TD*%
D23*
%TO.C,S6*%
X154131100Y-95303600D03*
D24*
X149051100Y-95303600D03*
D23*
X143971100Y-95303600D03*
D25*
X151591100Y-90223600D03*
X145241100Y-92763600D03*
%TD*%
D26*
%TO.C,D9*%
X139526100Y-109220000D03*
X139526100Y-116840000D03*
%TD*%
%TO.C,D11*%
X177626100Y-109220000D03*
X177626100Y-116840000D03*
%TD*%
%TO.C,D13*%
X139526100Y-128270000D03*
X139526100Y-135890000D03*
%TD*%
D23*
%TO.C,S12*%
X192231100Y-114353600D03*
D24*
X187151100Y-114353600D03*
D23*
X182071100Y-114353600D03*
D25*
X189691100Y-109273600D03*
X183341100Y-111813600D03*
%TD*%
D26*
%TO.C,D20*%
X119380000Y-128270000D03*
X119380000Y-135890000D03*
%TD*%
%TO.C,D7*%
X177626100Y-90170000D03*
X177626100Y-97790000D03*
%TD*%
D23*
%TO.C,S3*%
X173181100Y-76253600D03*
D24*
X168101100Y-76253600D03*
D23*
X163021100Y-76253600D03*
D25*
X170641100Y-71173600D03*
X164291100Y-73713600D03*
%TD*%
D26*
%TO.C,D5*%
X139526100Y-90170000D03*
X139526100Y-97790000D03*
%TD*%
%TO.C,D16*%
X190961100Y-124460000D03*
X183341100Y-124460000D03*
%TD*%
%TO.C,D14*%
X158576100Y-128270000D03*
X158576100Y-135890000D03*
%TD*%
%TO.C,D3*%
X177626100Y-71120000D03*
X177626100Y-78740000D03*
%TD*%
%TO.C,D15*%
X177626100Y-128270000D03*
X177626100Y-135890000D03*
%TD*%
D23*
%TO.C,S13*%
X135081100Y-133407200D03*
D24*
X130001100Y-133407200D03*
D23*
X124921100Y-133407200D03*
D25*
X132541100Y-128327200D03*
X126191100Y-130867200D03*
%TD*%
D23*
%TO.C,S9*%
X135081100Y-114353600D03*
D24*
X130001100Y-114353600D03*
D23*
X124921100Y-114353600D03*
D25*
X132541100Y-109273600D03*
X126191100Y-111813600D03*
%TD*%
D26*
%TO.C,D1*%
X139526100Y-71120000D03*
X139526100Y-78740000D03*
%TD*%
D23*
%TO.C,S16*%
X192231100Y-133407200D03*
D24*
X187151100Y-133407200D03*
D23*
X182071100Y-133407200D03*
D25*
X189691100Y-128327200D03*
X183341100Y-130867200D03*
%TD*%
D26*
%TO.C,D12*%
X190961100Y-105410000D03*
X183341100Y-105410000D03*
%TD*%
%TO.C,D2*%
X158576100Y-71120000D03*
X158576100Y-78740000D03*
%TD*%
D23*
%TO.C,S10*%
X154131100Y-114353600D03*
D24*
X149051100Y-114353600D03*
D23*
X143971100Y-114353600D03*
D25*
X151591100Y-109273600D03*
X145241100Y-111813600D03*
%TD*%
%LPD*%
M02*
