M48
; DRILL file {KiCad (6.0.1)} date Wed Feb  9 09:53:42 2022
; FORMAT={-:-/ absolute / metric / decimal}
; #@! TF.CreationDate,2022-02-09T09:53:42+01:00
; #@! TF.GenerationSoftware,Kicad,Pcbnew,(6.0.1)
; #@! TF.FileFunction,Plated,1,2,PTH
FMAT,2
METRIC
; #@! TA.AperFunction,Plated,PTH,ViaDrill
T1C0.400
; #@! TA.AperFunction,Plated,PTH,ComponentDrill
T2C0.813
; #@! TA.AperFunction,Plated,PTH,ComponentDrill
T3C0.900
; #@! TA.AperFunction,Plated,PTH,ComponentDrill
T4C1.000
; #@! TA.AperFunction,Plated,PTH,ComponentDrill
T5C1.016
; #@! TA.AperFunction,Plated,PTH,ComponentDrill
T6C1.500
; #@! TA.AperFunction,Plated,PTH,ComponentDrill
T7C3.050
%
G90
G05
T1
X113.03Y-87.63
X113.03Y-93.98
X121.452Y-106.426
X123.19Y-76.2
X123.19Y-90.17
X123.19Y-95.25
X123.19Y-109.22
X123.19Y-114.3
X123.19Y-128.27
X124.968Y-120.142
X127.254Y-102.616
X142.24Y-76.2
X142.24Y-90.17
X142.24Y-95.25
X142.24Y-109.22
X142.24Y-114.3
X142.24Y-128.27
X161.29Y-76.2
X161.29Y-90.17
X161.29Y-95.25
X161.29Y-109.22
X161.29Y-114.3
X161.29Y-128.27
X161.29Y-133.35
X161.29Y-140.97
X180.34Y-76.2
X180.34Y-95.25
X180.34Y-114.3
X180.34Y-133.35
X180.34Y-142.24
X180.414Y-90.244
X180.414Y-109.294
X180.414Y-128.344
X190.246Y-98.298
X191.516Y-80.518
X191.516Y-118.618
X191.77Y-137.668
T2
X104.801Y-104.234
X104.801Y-106.774
X110.051Y-104.234
X110.051Y-106.774
X115.301Y-104.234
X115.301Y-106.774
T3
X106.241Y-110.004
X106.241Y-112.754
X106.241Y-115.504
X113.861Y-110.004
X113.861Y-112.754
X113.861Y-115.504
X119.38Y-128.27
X119.38Y-135.89
X139.526Y-71.12
X139.526Y-78.74
X139.526Y-90.17
X139.526Y-97.79
X139.526Y-109.22
X139.526Y-116.84
X139.526Y-128.27
X139.526Y-135.89
X158.576Y-71.12
X158.576Y-78.74
X158.576Y-90.17
X158.576Y-97.79
X158.576Y-128.27
X158.576Y-135.89
X158.75Y-109.22
X158.75Y-116.84
X177.626Y-71.12
X177.626Y-78.74
X177.626Y-90.17
X177.626Y-97.79
X177.626Y-109.22
X177.626Y-116.84
X177.626Y-128.27
X177.626Y-135.89
X183.341Y-67.31
X183.341Y-86.36
X183.341Y-105.41
X183.341Y-124.46
X190.961Y-67.31
X190.961Y-86.36
X190.961Y-105.41
X190.961Y-124.46
T4
X106.72Y-126.1
X106.72Y-140.6
X109.22Y-140.6
X111.72Y-126.1
X111.72Y-140.6
T5
X102.431Y-72.054
X102.431Y-74.594
X102.431Y-77.134
X102.431Y-79.674
X102.431Y-82.214
X102.431Y-84.754
X102.431Y-87.294
X102.431Y-89.834
X102.431Y-92.374
X102.431Y-94.914
X102.431Y-97.454
X102.431Y-99.994
X106.8Y-118.743
X106.8Y-123.264
X113.302Y-118.743
X113.302Y-123.264
X117.671Y-72.054
X117.671Y-74.594
X117.671Y-77.134
X117.671Y-79.674
X117.671Y-82.214
X117.671Y-84.754
X117.671Y-87.294
X117.671Y-89.834
X117.671Y-92.374
X117.671Y-94.914
X117.671Y-97.454
X117.671Y-99.994
T7
X126.191Y-73.714
X126.191Y-92.764
X126.191Y-111.814
X126.191Y-130.867
X132.541Y-71.174
X132.541Y-90.224
X132.541Y-109.274
X132.541Y-128.327
X145.241Y-73.714
X145.241Y-92.764
X145.241Y-111.814
X145.241Y-130.864
X151.591Y-71.174
X151.591Y-90.224
X151.591Y-109.274
X151.591Y-128.324
X164.291Y-73.714
X164.291Y-92.764
X164.291Y-111.814
X164.291Y-130.864
X170.641Y-71.174
X170.641Y-90.224
X170.641Y-109.274
X170.641Y-128.324
X183.341Y-73.714
X183.341Y-92.764
X183.341Y-111.814
X183.341Y-130.867
X189.691Y-71.174
X189.691Y-90.224
X189.691Y-109.274
X189.691Y-128.327
T6
X103.62Y-133.75G85X103.62Y-132.45
G05
X114.82Y-133.75G85X114.82Y-132.45
G05
T0
M30
